<?xml version="1.0" encoding="utf-8" standalone="no"?>
<!DOCTYPE svg PUBLIC "-//W3C//DTD SVG 1.1//EN"
  "http://www.w3.org/Graphics/SVG/1.1/DTD/svg11.dtd">
<svg xmlns:xlink="http://www.w3.org/1999/xlink" width="460.8pt" height="345.6pt" viewBox="0 0 460.8 345.6" xmlns="http://www.w3.org/2000/svg" version="1.1">
 <metadata>
  <rdf:RDF xmlns:dc="http://purl.org/dc/elements/1.1/" xmlns:cc="http://creativecommons.org/ns#" xmlns:rdf="http://www.w3.org/1999/02/22-rdf-syntax-ns#">
   <cc:Work>
    <dc:type rdf:resource="http://purl.org/dc/dcmitype/StillImage"/>
    <dc:date>2026-03-01T00:25:13.046159</dc:date>
    <dc:format>image/svg+xml</dc:format>
    <dc:creator>
     <cc:Agent>
      <dc:title>Matplotlib v3.9.0, https://matplotlib.org/</dc:title>
     </cc:Agent>
    </dc:creator>
   </cc:Work>
  </rdf:RDF>
 </metadata>
 <defs>
  <style type="text/css">*{stroke-linejoin: round; stroke-linecap: butt}</style>
 </defs>
 <g id="figure_1">
  <g id="patch_1">
   <path d="M 0 345.6 
L 460.8 345.6 
L 460.8 0 
L 0 0 
z
" style="fill: #ffffff"/>
  </g>
  <g id="axes_1">
   <g id="patch_2">
    <path d="M 57.6 307.584 
L 414.72 307.584 
L 414.72 41.472 
L 57.6 41.472 
z
" style="fill: #ffffff"/>
   </g>
   <g id="matplotlib.axis_1">
    <g id="xtick_1">
     <g id="line2d_1">
      <defs>
       <path id="m846080dc58" d="M 0 0 
L 0 3.5 
" style="stroke: #000000; stroke-width: 0.8"/>
      </defs>
      <g>
       <use xlink:href="#m846080dc58" x="73.824611" y="307.584" style="stroke: #000000; stroke-width: 0.8"/>
      </g>
     </g>
     <g id="text_1">
      <!-- 0.0 -->
      <g transform="translate(65.873048 322.182437) scale(0.1 -0.1)">
       <defs>
        <path id="DejaVuSans-30" d="M 2034 4250 
Q 1547 4250 1301 3770 
Q 1056 3291 1056 2328 
Q 1056 1369 1301 889 
Q 1547 409 2034 409 
Q 2525 409 2770 889 
Q 3016 1369 3016 2328 
Q 3016 3291 2770 3770 
Q 2525 4250 2034 4250 
z
M 2034 4750 
Q 2819 4750 3233 4129 
Q 3647 3509 3647 2328 
Q 3647 1150 3233 529 
Q 2819 -91 2034 -91 
Q 1250 -91 836 529 
Q 422 1150 422 2328 
Q 422 3509 836 4129 
Q 1250 4750 2034 4750 
z
" transform="scale(0.015625)"/>
        <path id="DejaVuSans-2e" d="M 684 794 
L 1344 794 
L 1344 0 
L 684 0 
L 684 794 
z
" transform="scale(0.015625)"/>
       </defs>
       <use xlink:href="#DejaVuSans-30"/>
       <use xlink:href="#DejaVuSans-2e" x="63.623047"/>
       <use xlink:href="#DejaVuSans-30" x="95.410156"/>
      </g>
     </g>
    </g>
    <g id="xtick_2">
     <g id="line2d_2">
      <g>
       <use xlink:href="#m846080dc58" x="114.407443" y="307.584" style="stroke: #000000; stroke-width: 0.8"/>
      </g>
     </g>
     <g id="text_2">
      <!-- 0.5 -->
      <g transform="translate(106.455881 322.182437) scale(0.1 -0.1)">
       <defs>
        <path id="DejaVuSans-35" d="M 691 4666 
L 3169 4666 
L 3169 4134 
L 1269 4134 
L 1269 2991 
Q 1406 3038 1543 3061 
Q 1681 3084 1819 3084 
Q 2600 3084 3056 2656 
Q 3513 2228 3513 1497 
Q 3513 744 3044 326 
Q 2575 -91 1722 -91 
Q 1428 -91 1123 -41 
Q 819 9 494 109 
L 494 744 
Q 775 591 1075 516 
Q 1375 441 1709 441 
Q 2250 441 2565 725 
Q 2881 1009 2881 1497 
Q 2881 1984 2565 2268 
Q 2250 2553 1709 2553 
Q 1456 2553 1204 2497 
Q 953 2441 691 2322 
L 691 4666 
z
" transform="scale(0.015625)"/>
       </defs>
       <use xlink:href="#DejaVuSans-30"/>
       <use xlink:href="#DejaVuSans-2e" x="63.623047"/>
       <use xlink:href="#DejaVuSans-35" x="95.410156"/>
      </g>
     </g>
    </g>
    <g id="xtick_3">
     <g id="line2d_3">
      <g>
       <use xlink:href="#m846080dc58" x="154.990276" y="307.584" style="stroke: #000000; stroke-width: 0.8"/>
      </g>
     </g>
     <g id="text_3">
      <!-- 1.0 -->
      <g transform="translate(147.038714 322.182437) scale(0.1 -0.1)">
       <defs>
        <path id="DejaVuSans-31" d="M 794 531 
L 1825 531 
L 1825 4091 
L 703 3866 
L 703 4441 
L 1819 4666 
L 2450 4666 
L 2450 531 
L 3481 531 
L 3481 0 
L 794 0 
L 794 531 
z
" transform="scale(0.015625)"/>
       </defs>
       <use xlink:href="#DejaVuSans-31"/>
       <use xlink:href="#DejaVuSans-2e" x="63.623047"/>
       <use xlink:href="#DejaVuSans-30" x="95.410156"/>
      </g>
     </g>
    </g>
    <g id="xtick_4">
     <g id="line2d_4">
      <g>
       <use xlink:href="#m846080dc58" x="195.573109" y="307.584" style="stroke: #000000; stroke-width: 0.8"/>
      </g>
     </g>
     <g id="text_4">
      <!-- 1.5 -->
      <g transform="translate(187.621546 322.182437) scale(0.1 -0.1)">
       <use xlink:href="#DejaVuSans-31"/>
       <use xlink:href="#DejaVuSans-2e" x="63.623047"/>
       <use xlink:href="#DejaVuSans-35" x="95.410156"/>
      </g>
     </g>
    </g>
    <g id="xtick_5">
     <g id="line2d_5">
      <g>
       <use xlink:href="#m846080dc58" x="236.155942" y="307.584" style="stroke: #000000; stroke-width: 0.8"/>
      </g>
     </g>
     <g id="text_5">
      <!-- 2.0 -->
      <g transform="translate(228.204379 322.182437) scale(0.1 -0.1)">
       <defs>
        <path id="DejaVuSans-32" d="M 1228 531 
L 3431 531 
L 3431 0 
L 469 0 
L 469 531 
Q 828 903 1448 1529 
Q 2069 2156 2228 2338 
Q 2531 2678 2651 2914 
Q 2772 3150 2772 3378 
Q 2772 3750 2511 3984 
Q 2250 4219 1831 4219 
Q 1534 4219 1204 4116 
Q 875 4013 500 3803 
L 500 4441 
Q 881 4594 1212 4672 
Q 1544 4750 1819 4750 
Q 2544 4750 2975 4387 
Q 3406 4025 3406 3419 
Q 3406 3131 3298 2873 
Q 3191 2616 2906 2266 
Q 2828 2175 2409 1742 
Q 1991 1309 1228 531 
z
" transform="scale(0.015625)"/>
       </defs>
       <use xlink:href="#DejaVuSans-32"/>
       <use xlink:href="#DejaVuSans-2e" x="63.623047"/>
       <use xlink:href="#DejaVuSans-30" x="95.410156"/>
      </g>
     </g>
    </g>
    <g id="xtick_6">
     <g id="line2d_6">
      <g>
       <use xlink:href="#m846080dc58" x="276.738774" y="307.584" style="stroke: #000000; stroke-width: 0.8"/>
      </g>
     </g>
     <g id="text_6">
      <!-- 2.5 -->
      <g transform="translate(268.787212 322.182437) scale(0.1 -0.1)">
       <use xlink:href="#DejaVuSans-32"/>
       <use xlink:href="#DejaVuSans-2e" x="63.623047"/>
       <use xlink:href="#DejaVuSans-35" x="95.410156"/>
      </g>
     </g>
    </g>
    <g id="xtick_7">
     <g id="line2d_7">
      <g>
       <use xlink:href="#m846080dc58" x="317.321607" y="307.584" style="stroke: #000000; stroke-width: 0.8"/>
      </g>
     </g>
     <g id="text_7">
      <!-- 3.0 -->
      <g transform="translate(309.370045 322.182437) scale(0.1 -0.1)">
       <defs>
        <path id="DejaVuSans-33" d="M 2597 2516 
Q 3050 2419 3304 2112 
Q 3559 1806 3559 1356 
Q 3559 666 3084 287 
Q 2609 -91 1734 -91 
Q 1441 -91 1130 -33 
Q 819 25 488 141 
L 488 750 
Q 750 597 1062 519 
Q 1375 441 1716 441 
Q 2309 441 2620 675 
Q 2931 909 2931 1356 
Q 2931 1769 2642 2001 
Q 2353 2234 1838 2234 
L 1294 2234 
L 1294 2753 
L 1863 2753 
Q 2328 2753 2575 2939 
Q 2822 3125 2822 3475 
Q 2822 3834 2567 4026 
Q 2313 4219 1838 4219 
Q 1578 4219 1281 4162 
Q 984 4106 628 3988 
L 628 4550 
Q 988 4650 1302 4700 
Q 1616 4750 1894 4750 
Q 2613 4750 3031 4423 
Q 3450 4097 3450 3541 
Q 3450 3153 3228 2886 
Q 3006 2619 2597 2516 
z
" transform="scale(0.015625)"/>
       </defs>
       <use xlink:href="#DejaVuSans-33"/>
       <use xlink:href="#DejaVuSans-2e" x="63.623047"/>
       <use xlink:href="#DejaVuSans-30" x="95.410156"/>
      </g>
     </g>
    </g>
    <g id="xtick_8">
     <g id="line2d_8">
      <g>
       <use xlink:href="#m846080dc58" x="357.90444" y="307.584" style="stroke: #000000; stroke-width: 0.8"/>
      </g>
     </g>
     <g id="text_8">
      <!-- 3.5 -->
      <g transform="translate(349.952877 322.182437) scale(0.1 -0.1)">
       <use xlink:href="#DejaVuSans-33"/>
       <use xlink:href="#DejaVuSans-2e" x="63.623047"/>
       <use xlink:href="#DejaVuSans-35" x="95.410156"/>
      </g>
     </g>
    </g>
    <g id="xtick_9">
     <g id="line2d_9">
      <g>
       <use xlink:href="#m846080dc58" x="398.487273" y="307.584" style="stroke: #000000; stroke-width: 0.8"/>
      </g>
     </g>
     <g id="text_9">
      <!-- 4.0 -->
      <g transform="translate(390.53571 322.182437) scale(0.1 -0.1)">
       <defs>
        <path id="DejaVuSans-34" d="M 2419 4116 
L 825 1625 
L 2419 1625 
L 2419 4116 
z
M 2253 4666 
L 3047 4666 
L 3047 1625 
L 3713 1625 
L 3713 1100 
L 3047 1100 
L 3047 0 
L 2419 0 
L 2419 1100 
L 313 1100 
L 313 1709 
L 2253 4666 
z
" transform="scale(0.015625)"/>
       </defs>
       <use xlink:href="#DejaVuSans-34"/>
       <use xlink:href="#DejaVuSans-2e" x="63.623047"/>
       <use xlink:href="#DejaVuSans-30" x="95.410156"/>
      </g>
     </g>
    </g>
    <g id="text_10">
     <!-- $a_{T-1}$ -->
     <g transform="translate(224.26 335.860562) scale(0.1 -0.1)">
      <defs>
       <path id="DejaVuSans-Oblique-61" d="M 3438 1997 
L 3047 0 
L 2472 0 
L 2578 531 
Q 2325 219 2001 64 
Q 1678 -91 1281 -91 
Q 834 -91 548 182 
Q 263 456 263 884 
Q 263 1497 752 1853 
Q 1241 2209 2100 2209 
L 2900 2209 
L 2931 2363 
Q 2938 2388 2941 2417 
Q 2944 2447 2944 2509 
Q 2944 2788 2717 2942 
Q 2491 3097 2081 3097 
Q 1800 3097 1504 3025 
Q 1209 2953 897 2809 
L 997 3341 
Q 1322 3463 1633 3523 
Q 1944 3584 2234 3584 
Q 2853 3584 3176 3315 
Q 3500 3047 3500 2534 
Q 3500 2431 3484 2292 
Q 3469 2153 3438 1997 
z
M 2816 1759 
L 2241 1759 
Q 1534 1759 1195 1570 
Q 856 1381 856 984 
Q 856 709 1029 553 
Q 1203 397 1509 397 
Q 1978 397 2328 733 
Q 2678 1069 2791 1631 
L 2816 1759 
z
" transform="scale(0.015625)"/>
       <path id="DejaVuSans-Oblique-54" d="M 378 4666 
L 4325 4666 
L 4225 4134 
L 2559 4134 
L 1759 0 
L 1125 0 
L 1925 4134 
L 275 4134 
L 378 4666 
z
" transform="scale(0.015625)"/>
       <path id="DejaVuSans-2212" d="M 678 2272 
L 4684 2272 
L 4684 1741 
L 678 1741 
L 678 2272 
z
" transform="scale(0.015625)"/>
      </defs>
      <use xlink:href="#DejaVuSans-Oblique-61"/>
      <use xlink:href="#DejaVuSans-Oblique-54" transform="translate(61.279297 -16.40625) scale(0.7)"/>
      <use xlink:href="#DejaVuSans-2212" transform="translate(117.675781 -16.40625) scale(0.7)"/>
      <use xlink:href="#DejaVuSans-31" transform="translate(189.96582 -16.40625) scale(0.7)"/>
     </g>
    </g>
   </g>
   <g id="matplotlib.axis_2">
    <g id="ytick_1">
     <g id="line2d_10">
      <defs>
       <path id="m45b147814c" d="M 0 0 
L -3.5 0 
" style="stroke: #000000; stroke-width: 0.8"/>
      </defs>
      <g>
       <use xlink:href="#m45b147814c" x="57.6" y="300.525268" style="stroke: #000000; stroke-width: 0.8"/>
      </g>
     </g>
     <g id="text_11">
      <!-- 0.00 -->
      <g transform="translate(28.334375 304.324487) scale(0.1 -0.1)">
       <use xlink:href="#DejaVuSans-30"/>
       <use xlink:href="#DejaVuSans-2e" x="63.623047"/>
       <use xlink:href="#DejaVuSans-30" x="95.410156"/>
       <use xlink:href="#DejaVuSans-30" x="159.033203"/>
      </g>
     </g>
    </g>
    <g id="ytick_2">
     <g id="line2d_11">
      <g>
       <use xlink:href="#m45b147814c" x="57.6" y="268.179277" style="stroke: #000000; stroke-width: 0.8"/>
      </g>
     </g>
     <g id="text_12">
      <!-- 0.25 -->
      <g transform="translate(28.334375 271.978495) scale(0.1 -0.1)">
       <use xlink:href="#DejaVuSans-30"/>
       <use xlink:href="#DejaVuSans-2e" x="63.623047"/>
       <use xlink:href="#DejaVuSans-32" x="95.410156"/>
       <use xlink:href="#DejaVuSans-35" x="159.033203"/>
      </g>
     </g>
    </g>
    <g id="ytick_3">
     <g id="line2d_12">
      <g>
       <use xlink:href="#m45b147814c" x="57.6" y="235.833285" style="stroke: #000000; stroke-width: 0.8"/>
      </g>
     </g>
     <g id="text_13">
      <!-- 0.50 -->
      <g transform="translate(28.334375 239.632504) scale(0.1 -0.1)">
       <use xlink:href="#DejaVuSans-30"/>
       <use xlink:href="#DejaVuSans-2e" x="63.623047"/>
       <use xlink:href="#DejaVuSans-35" x="95.410156"/>
       <use xlink:href="#DejaVuSans-30" x="159.033203"/>
      </g>
     </g>
    </g>
    <g id="ytick_4">
     <g id="line2d_13">
      <g>
       <use xlink:href="#m45b147814c" x="57.6" y="203.487293" style="stroke: #000000; stroke-width: 0.8"/>
      </g>
     </g>
     <g id="text_14">
      <!-- 0.75 -->
      <g transform="translate(28.334375 207.286512) scale(0.1 -0.1)">
       <defs>
        <path id="DejaVuSans-37" d="M 525 4666 
L 3525 4666 
L 3525 4397 
L 1831 0 
L 1172 0 
L 2766 4134 
L 525 4134 
L 525 4666 
z
" transform="scale(0.015625)"/>
       </defs>
       <use xlink:href="#DejaVuSans-30"/>
       <use xlink:href="#DejaVuSans-2e" x="63.623047"/>
       <use xlink:href="#DejaVuSans-37" x="95.410156"/>
       <use xlink:href="#DejaVuSans-35" x="159.033203"/>
      </g>
     </g>
    </g>
    <g id="ytick_5">
     <g id="line2d_14">
      <g>
       <use xlink:href="#m45b147814c" x="57.6" y="171.141302" style="stroke: #000000; stroke-width: 0.8"/>
      </g>
     </g>
     <g id="text_15">
      <!-- 1.00 -->
      <g transform="translate(28.334375 174.940521) scale(0.1 -0.1)">
       <use xlink:href="#DejaVuSans-31"/>
       <use xlink:href="#DejaVuSans-2e" x="63.623047"/>
       <use xlink:href="#DejaVuSans-30" x="95.410156"/>
       <use xlink:href="#DejaVuSans-30" x="159.033203"/>
      </g>
     </g>
    </g>
    <g id="ytick_6">
     <g id="line2d_15">
      <g>
       <use xlink:href="#m45b147814c" x="57.6" y="138.79531" style="stroke: #000000; stroke-width: 0.8"/>
      </g>
     </g>
     <g id="text_16">
      <!-- 1.25 -->
      <g transform="translate(28.334375 142.594529) scale(0.1 -0.1)">
       <use xlink:href="#DejaVuSans-31"/>
       <use xlink:href="#DejaVuSans-2e" x="63.623047"/>
       <use xlink:href="#DejaVuSans-32" x="95.410156"/>
       <use xlink:href="#DejaVuSans-35" x="159.033203"/>
      </g>
     </g>
    </g>
    <g id="ytick_7">
     <g id="line2d_16">
      <g>
       <use xlink:href="#m45b147814c" x="57.6" y="106.449319" style="stroke: #000000; stroke-width: 0.8"/>
      </g>
     </g>
     <g id="text_17">
      <!-- 1.50 -->
      <g transform="translate(28.334375 110.248537) scale(0.1 -0.1)">
       <use xlink:href="#DejaVuSans-31"/>
       <use xlink:href="#DejaVuSans-2e" x="63.623047"/>
       <use xlink:href="#DejaVuSans-35" x="95.410156"/>
       <use xlink:href="#DejaVuSans-30" x="159.033203"/>
      </g>
     </g>
    </g>
    <g id="ytick_8">
     <g id="line2d_17">
      <g>
       <use xlink:href="#m45b147814c" x="57.6" y="74.103327" style="stroke: #000000; stroke-width: 0.8"/>
      </g>
     </g>
     <g id="text_18">
      <!-- 1.75 -->
      <g transform="translate(28.334375 77.902546) scale(0.1 -0.1)">
       <use xlink:href="#DejaVuSans-31"/>
       <use xlink:href="#DejaVuSans-2e" x="63.623047"/>
       <use xlink:href="#DejaVuSans-37" x="95.410156"/>
       <use xlink:href="#DejaVuSans-35" x="159.033203"/>
      </g>
     </g>
    </g>
    <g id="ytick_9">
     <g id="line2d_18">
      <g>
       <use xlink:href="#m45b147814c" x="57.6" y="41.757335" style="stroke: #000000; stroke-width: 0.8"/>
      </g>
     </g>
     <g id="text_19">
      <!-- 2.00 -->
      <g transform="translate(28.334375 45.556554) scale(0.1 -0.1)">
       <use xlink:href="#DejaVuSans-32"/>
       <use xlink:href="#DejaVuSans-2e" x="63.623047"/>
       <use xlink:href="#DejaVuSans-30" x="95.410156"/>
       <use xlink:href="#DejaVuSans-30" x="159.033203"/>
      </g>
     </g>
    </g>
    <g id="text_20">
     <!-- $\mathrm{v}^{\partial}_{\succ,T-1},\quad \grave{\grave{\mathrm{v}}}^{\partial}_{\succ,T-1}$ -->
     <g transform="translate(20.734375 217.778) rotate(-90) scale(0.1 -0.1)">
      <defs>
       <path id="DejaVuSans-76" d="M 191 3500 
L 800 3500 
L 1894 563 
L 2988 3500 
L 3597 3500 
L 2284 0 
L 1503 0 
L 191 3500 
z
" transform="scale(0.015625)"/>
       <path id="DejaVuSans-2202" d="M 1366 -91 
Q 925 -91 638 175 
Q 297 491 297 1063 
Q 297 1656 597 2119 
Q 906 2594 1463 2594 
Q 1828 2594 2116 2366 
Q 2284 2231 2400 2006 
Q 2441 2259 2441 2547 
Q 2441 2969 2341 3213 
Q 2119 3753 1531 3753 
Q 1309 3753 966 3616 
L 966 4141 
Q 1328 4238 1653 4238 
Q 2491 4238 2847 3469 
Q 3013 3106 3013 2566 
Q 3013 2213 2934 1803 
Q 2738 778 2228 291 
Q 1828 -91 1366 -91 
z
M 831 969 
Q 831 656 969 488 
Q 1116 309 1341 309 
Q 1541 309 1700 450 
Q 1925 644 2091 959 
Q 2228 1219 2297 1497 
Q 2019 2169 1538 2169 
Q 1125 2169 944 1625 
Q 831 1288 831 969 
z
" transform="scale(0.015625)"/>
       <path id="DejaVuSans-227b" d="M 678 3503 
L 678 4250 
Q 1925 2650 4684 2263 
L 4684 1744 
Q 1931 1356 678 -244 
L 678 503 
Q 1934 1709 3563 2003 
Q 1922 2306 678 3503 
z
" transform="scale(0.015625)"/>
       <path id="DejaVuSans-2c" d="M 750 794 
L 1409 794 
L 1409 256 
L 897 -744 
L 494 -744 
L 750 256 
L 750 794 
z
" transform="scale(0.015625)"/>
       <path id="DejaVuSans-300" d="M -2059 5119 
L -1178 3950 
L -1656 3950 
L -2675 5119 
L -2059 5119 
z
M -1600 3584 
L -1600 3584 
z
" transform="scale(0.015625)"/>
      </defs>
      <use xlink:href="#DejaVuSans-76" transform="translate(0 0.34375)"/>
      <use xlink:href="#DejaVuSans-2202" transform="translate(60.136719 38.625) scale(0.7)"/>
      <use xlink:href="#DejaVuSans-227b" transform="translate(73.774414 -27) scale(0.7)"/>
      <use xlink:href="#DejaVuSans-2c" transform="translate(146.064453 -27) scale(0.7)"/>
      <use xlink:href="#DejaVuSans-Oblique-54" transform="translate(181.953125 -27) scale(0.7)"/>
      <use xlink:href="#DejaVuSans-2212" transform="translate(238.349609 -27) scale(0.7)"/>
      <use xlink:href="#DejaVuSans-31" transform="translate(310.639648 -27) scale(0.7)"/>
      <use xlink:href="#DejaVuSans-2c" transform="translate(357.910156 0.34375)"/>
      <use xlink:href="#DejaVuSans-300" transform="translate(573.183594 48.015625)"/>
      <use xlink:href="#DejaVuSans-300" transform="translate(573.183594 11.53125)"/>
      <use xlink:href="#DejaVuSans-76" transform="translate(506.591797 0.34375)"/>
      <use xlink:href="#DejaVuSans-2202" transform="translate(566.728516 38.625) scale(0.7)"/>
      <use xlink:href="#DejaVuSans-227b" transform="translate(580.366211 -27) scale(0.7)"/>
      <use xlink:href="#DejaVuSans-2c" transform="translate(652.65625 -27) scale(0.7)"/>
      <use xlink:href="#DejaVuSans-Oblique-54" transform="translate(688.544922 -27) scale(0.7)"/>
      <use xlink:href="#DejaVuSans-2212" transform="translate(744.941406 -27) scale(0.7)"/>
      <use xlink:href="#DejaVuSans-31" transform="translate(817.231445 -27) scale(0.7)"/>
     </g>
    </g>
   </g>
   <g id="line2d_19">
    <path d="M 73.832727 53.57952 
L 75.457625 70.775675 
L 77.407502 88.921009 
L 79.357379 104.806261 
L 81.307256 118.812571 
L 83.257133 131.241236 
L 85.207011 142.333408 
L 87.156888 152.284259 
L 89.431744 162.662352 
L 91.706601 171.909258 
L 93.981458 180.191613 
L 96.256314 187.645443 
L 98.531171 194.382831 
L 100.806028 200.496912 
L 103.405864 206.820671 
L 106.0057 212.528935 
L 108.605536 217.702351 
L 111.205373 222.408383 
L 114.130188 227.214428 
L 117.055004 231.568667 
L 119.97982 235.528045 
L 122.904636 239.140572 
L 126.154431 242.797028 
L 129.404226 246.122752 
L 132.979001 249.44657 
L 136.553776 252.463321 
L 140.45353 255.448353 
L 144.353284 258.154104 
L 148.578018 260.810297 
L 153.127731 263.392148 
L 157.677445 265.722683 
L 162.552138 267.977445 
L 167.75181 270.142783 
L 173.276462 272.20894 
L 179.451073 274.272283 
L 185.950663 276.204274 
L 193.100213 278.08785 
L 200.574742 279.827714 
L 208.69923 281.494646 
L 217.798657 283.129152 
L 227.548043 284.653549 
L 238.272367 286.106551 
L 250.296609 287.507243 
L 263.62077 288.830648 
L 278.569828 290.086017 
L 295.468763 291.273789 
L 314.317576 292.372124 
L 336.091204 293.411862 
L 361.114627 294.376999 
L 390.037805 295.265005 
L 398.487273 295.488 
L 398.487273 295.488 
" clip-path="url(#p338cf488bf)" style="fill: none; stroke: #000000; stroke-width: 1.5; stroke-linecap: square"/>
   </g>
   <g id="line2d_20">
    <path d="M 73.832727 53.568 
L 75.782604 71.658384 
L 77.732482 87.831434 
L 79.682359 102.348829 
L 81.632236 115.429079 
L 83.907093 129.116316 
L 86.181949 141.339651 
L 88.456806 152.300638 
L 90.731663 162.1673 
L 93.006519 171.080607 
L 95.281376 179.15954 
L 97.556233 186.505079 
L 100.156069 194.11189 
L 102.755905 200.982109 
L 105.355741 207.207857 
L 107.955577 212.867293 
L 110.555414 218.027073 
L 113.480229 223.305401 
L 116.405045 228.092902 
L 119.329861 232.448596 
L 122.254676 236.422893 
L 125.504472 240.443873 
L 128.754267 244.098048 
L 132.004062 247.428713 
L 135.578837 250.762898 
L 139.153612 253.792613 
L 143.053366 256.792639 
L 146.95312 259.512788 
L 151.177854 262.182819 
L 155.402588 264.582632 
L 160.277281 266.911523 
L 165.476953 269.154711 
L 171.001605 271.300673 
L 176.851237 273.341423 
L 183.350827 275.367916 
L 190.175397 277.261206 
L 197.649926 279.099592 
L 205.774414 280.861155 
L 214.548862 282.530291 
L 223.973268 284.096937 
L 234.372613 285.599473 
L 244.771957 286.884764 
L 257.771138 288.266207 
L 272.070238 289.556627 
L 287.994234 290.767661 
L 306.193088 291.921342 
L 326.341818 292.971522 
L 350.065324 293.974698 
L 377.363604 294.900143 
L 398.487273 295.488 
L 398.487273 295.488 
" clip-path="url(#p338cf488bf)" style="fill: none; stroke-dasharray: 5.55,2.4; stroke-dashoffset: 0; stroke: #1f77b4; stroke-width: 1.5"/>
   </g>
   <g id="patch_3">
    <path d="M 57.6 307.584 
L 57.6 41.472 
" style="fill: none; stroke: #000000; stroke-width: 0.8; stroke-linejoin: miter; stroke-linecap: square"/>
   </g>
   <g id="patch_4">
    <path d="M 414.72 307.584 
L 414.72 41.472 
" style="fill: none; stroke: #000000; stroke-width: 0.8; stroke-linejoin: miter; stroke-linecap: square"/>
   </g>
   <g id="patch_5">
    <path d="M 57.6 307.584 
L 414.72 307.584 
" style="fill: none; stroke: #000000; stroke-width: 0.8; stroke-linejoin: miter; stroke-linecap: square"/>
   </g>
   <g id="patch_6">
    <path d="M 57.6 41.472 
L 414.72 41.472 
" style="fill: none; stroke: #000000; stroke-width: 0.8; stroke-linejoin: miter; stroke-linecap: square"/>
   </g>
   <g id="text_21">
    <!-- $\mathrm{v}^{\partial}_{\succ,T-1}(a_{T-1})$ (solid) versus $\grave{\grave{\mathrm{v}}}^{\partial}_{\succ}(a_{T-1})$ -->
    <g transform="translate(123.78 17.76) scale(0.12 -0.12)">
     <defs>
      <path id="DejaVuSans-28" d="M 1984 4856 
Q 1566 4138 1362 3434 
Q 1159 2731 1159 2009 
Q 1159 1288 1364 580 
Q 1569 -128 1984 -844 
L 1484 -844 
Q 1016 -109 783 600 
Q 550 1309 550 2009 
Q 550 2706 781 3412 
Q 1013 4119 1484 4856 
L 1984 4856 
z
" transform="scale(0.015625)"/>
      <path id="DejaVuSans-29" d="M 513 4856 
L 1013 4856 
Q 1481 4119 1714 3412 
Q 1947 2706 1947 2009 
Q 1947 1309 1714 600 
Q 1481 -109 1013 -844 
L 513 -844 
Q 928 -128 1133 580 
Q 1338 1288 1338 2009 
Q 1338 2731 1133 3434 
Q 928 4138 513 4856 
z
" transform="scale(0.015625)"/>
      <path id="DejaVuSans-20" transform="scale(0.015625)"/>
      <path id="DejaVuSans-73" d="M 2834 3397 
L 2834 2853 
Q 2591 2978 2328 3040 
Q 2066 3103 1784 3103 
Q 1356 3103 1142 2972 
Q 928 2841 928 2578 
Q 928 2378 1081 2264 
Q 1234 2150 1697 2047 
L 1894 2003 
Q 2506 1872 2764 1633 
Q 3022 1394 3022 966 
Q 3022 478 2636 193 
Q 2250 -91 1575 -91 
Q 1294 -91 989 -36 
Q 684 19 347 128 
L 347 722 
Q 666 556 975 473 
Q 1284 391 1588 391 
Q 1994 391 2212 530 
Q 2431 669 2431 922 
Q 2431 1156 2273 1281 
Q 2116 1406 1581 1522 
L 1381 1569 
Q 847 1681 609 1914 
Q 372 2147 372 2553 
Q 372 3047 722 3315 
Q 1072 3584 1716 3584 
Q 2034 3584 2315 3537 
Q 2597 3491 2834 3397 
z
" transform="scale(0.015625)"/>
      <path id="DejaVuSans-6f" d="M 1959 3097 
Q 1497 3097 1228 2736 
Q 959 2375 959 1747 
Q 959 1119 1226 758 
Q 1494 397 1959 397 
Q 2419 397 2687 759 
Q 2956 1122 2956 1747 
Q 2956 2369 2687 2733 
Q 2419 3097 1959 3097 
z
M 1959 3584 
Q 2709 3584 3137 3096 
Q 3566 2609 3566 1747 
Q 3566 888 3137 398 
Q 2709 -91 1959 -91 
Q 1206 -91 779 398 
Q 353 888 353 1747 
Q 353 2609 779 3096 
Q 1206 3584 1959 3584 
z
" transform="scale(0.015625)"/>
      <path id="DejaVuSans-6c" d="M 603 4863 
L 1178 4863 
L 1178 0 
L 603 0 
L 603 4863 
z
" transform="scale(0.015625)"/>
      <path id="DejaVuSans-69" d="M 603 3500 
L 1178 3500 
L 1178 0 
L 603 0 
L 603 3500 
z
M 603 4863 
L 1178 4863 
L 1178 4134 
L 603 4134 
L 603 4863 
z
" transform="scale(0.015625)"/>
      <path id="DejaVuSans-64" d="M 2906 2969 
L 2906 4863 
L 3481 4863 
L 3481 0 
L 2906 0 
L 2906 525 
Q 2725 213 2448 61 
Q 2172 -91 1784 -91 
Q 1150 -91 751 415 
Q 353 922 353 1747 
Q 353 2572 751 3078 
Q 1150 3584 1784 3584 
Q 2172 3584 2448 3432 
Q 2725 3281 2906 2969 
z
M 947 1747 
Q 947 1113 1208 752 
Q 1469 391 1925 391 
Q 2381 391 2643 752 
Q 2906 1113 2906 1747 
Q 2906 2381 2643 2742 
Q 2381 3103 1925 3103 
Q 1469 3103 1208 2742 
Q 947 2381 947 1747 
z
" transform="scale(0.015625)"/>
      <path id="DejaVuSans-65" d="M 3597 1894 
L 3597 1613 
L 953 1613 
Q 991 1019 1311 708 
Q 1631 397 2203 397 
Q 2534 397 2845 478 
Q 3156 559 3463 722 
L 3463 178 
Q 3153 47 2828 -22 
Q 2503 -91 2169 -91 
Q 1331 -91 842 396 
Q 353 884 353 1716 
Q 353 2575 817 3079 
Q 1281 3584 2069 3584 
Q 2775 3584 3186 3129 
Q 3597 2675 3597 1894 
z
M 3022 2063 
Q 3016 2534 2758 2815 
Q 2500 3097 2075 3097 
Q 1594 3097 1305 2825 
Q 1016 2553 972 2059 
L 3022 2063 
z
" transform="scale(0.015625)"/>
      <path id="DejaVuSans-72" d="M 2631 2963 
Q 2534 3019 2420 3045 
Q 2306 3072 2169 3072 
Q 1681 3072 1420 2755 
Q 1159 2438 1159 1844 
L 1159 0 
L 581 0 
L 581 3500 
L 1159 3500 
L 1159 2956 
Q 1341 3275 1631 3429 
Q 1922 3584 2338 3584 
Q 2397 3584 2469 3576 
Q 2541 3569 2628 3553 
L 2631 2963 
z
" transform="scale(0.015625)"/>
      <path id="DejaVuSans-75" d="M 544 1381 
L 544 3500 
L 1119 3500 
L 1119 1403 
Q 1119 906 1312 657 
Q 1506 409 1894 409 
Q 2359 409 2629 706 
Q 2900 1003 2900 1516 
L 2900 3500 
L 3475 3500 
L 3475 0 
L 2900 0 
L 2900 538 
Q 2691 219 2414 64 
Q 2138 -91 1772 -91 
Q 1169 -91 856 284 
Q 544 659 544 1381 
z
M 1991 3584 
L 1991 3584 
z
" transform="scale(0.015625)"/>
     </defs>
     <use xlink:href="#DejaVuSans-76" transform="translate(0 0.34375)"/>
     <use xlink:href="#DejaVuSans-2202" transform="translate(60.136719 38.625) scale(0.7)"/>
     <use xlink:href="#DejaVuSans-227b" transform="translate(73.774414 -27) scale(0.7)"/>
     <use xlink:href="#DejaVuSans-2c" transform="translate(146.064453 -27) scale(0.7)"/>
     <use xlink:href="#DejaVuSans-Oblique-54" transform="translate(181.953125 -27) scale(0.7)"/>
     <use xlink:href="#DejaVuSans-2212" transform="translate(238.349609 -27) scale(0.7)"/>
     <use xlink:href="#DejaVuSans-31" transform="translate(310.639648 -27) scale(0.7)"/>
     <use xlink:href="#DejaVuSans-28" transform="translate(357.910156 0.34375)"/>
     <use xlink:href="#DejaVuSans-Oblique-61" transform="translate(396.923828 0.34375)"/>
     <use xlink:href="#DejaVuSans-Oblique-54" transform="translate(458.203125 -16.0625) scale(0.7)"/>
     <use xlink:href="#DejaVuSans-2212" transform="translate(514.599609 -16.0625) scale(0.7)"/>
     <use xlink:href="#DejaVuSans-31" transform="translate(586.889648 -16.0625) scale(0.7)"/>
     <use xlink:href="#DejaVuSans-29" transform="translate(634.160156 0.34375)"/>
     <use xlink:href="#DejaVuSans-20" transform="translate(673.173828 0.34375)"/>
     <use xlink:href="#DejaVuSans-28" transform="translate(704.960938 0.34375)"/>
     <use xlink:href="#DejaVuSans-73" transform="translate(743.974609 0.34375)"/>
     <use xlink:href="#DejaVuSans-6f" transform="translate(796.074219 0.34375)"/>
     <use xlink:href="#DejaVuSans-6c" transform="translate(857.255859 0.34375)"/>
     <use xlink:href="#DejaVuSans-69" transform="translate(885.039062 0.34375)"/>
     <use xlink:href="#DejaVuSans-64" transform="translate(912.822266 0.34375)"/>
     <use xlink:href="#DejaVuSans-29" transform="translate(976.298828 0.34375)"/>
     <use xlink:href="#DejaVuSans-20" transform="translate(1015.3125 0.34375)"/>
     <use xlink:href="#DejaVuSans-76" transform="translate(1047.099609 0.34375)"/>
     <use xlink:href="#DejaVuSans-65" transform="translate(1106.279297 0.34375)"/>
     <use xlink:href="#DejaVuSans-72" transform="translate(1167.802734 0.34375)"/>
     <use xlink:href="#DejaVuSans-73" transform="translate(1208.916016 0.34375)"/>
     <use xlink:href="#DejaVuSans-75" transform="translate(1261.015625 0.34375)"/>
     <use xlink:href="#DejaVuSans-73" transform="translate(1324.394531 0.34375)"/>
     <use xlink:href="#DejaVuSans-20" transform="translate(1376.494141 0.34375)"/>
     <use xlink:href="#DejaVuSans-300" transform="translate(1474.873047 48.015625)"/>
     <use xlink:href="#DejaVuSans-300" transform="translate(1474.873047 11.53125)"/>
     <use xlink:href="#DejaVuSans-76" transform="translate(1408.28125 0.34375)"/>
     <use xlink:href="#DejaVuSans-2202" transform="translate(1468.417969 38.625) scale(0.7)"/>
     <use xlink:href="#DejaVuSans-227b" transform="translate(1482.055664 -27) scale(0.7)"/>
     <use xlink:href="#DejaVuSans-28" transform="translate(1557.080078 0.34375)"/>
     <use xlink:href="#DejaVuSans-Oblique-61" transform="translate(1596.09375 0.34375)"/>
     <use xlink:href="#DejaVuSans-Oblique-54" transform="translate(1657.373047 -16.0625) scale(0.7)"/>
     <use xlink:href="#DejaVuSans-2212" transform="translate(1713.769531 -16.0625) scale(0.7)"/>
     <use xlink:href="#DejaVuSans-31" transform="translate(1786.05957 -16.0625) scale(0.7)"/>
     <use xlink:href="#DejaVuSans-29" transform="translate(1833.330078 0.34375)"/>
    </g>
    <!--  constructed using $\grave{\mathrm{c}}_{\succ,T-1}$ (dashed) -->
    <g transform="translate(128.82 35.472) scale(0.12 -0.12)">
     <defs>
      <path id="DejaVuSans-63" d="M 3122 3366 
L 3122 2828 
Q 2878 2963 2633 3030 
Q 2388 3097 2138 3097 
Q 1578 3097 1268 2742 
Q 959 2388 959 1747 
Q 959 1106 1268 751 
Q 1578 397 2138 397 
Q 2388 397 2633 464 
Q 2878 531 3122 666 
L 3122 134 
Q 2881 22 2623 -34 
Q 2366 -91 2075 -91 
Q 1284 -91 818 406 
Q 353 903 353 1747 
Q 353 2603 823 3093 
Q 1294 3584 2113 3584 
Q 2378 3584 2631 3529 
Q 2884 3475 3122 3366 
z
" transform="scale(0.015625)"/>
      <path id="DejaVuSans-6e" d="M 3513 2113 
L 3513 0 
L 2938 0 
L 2938 2094 
Q 2938 2591 2744 2837 
Q 2550 3084 2163 3084 
Q 1697 3084 1428 2787 
Q 1159 2491 1159 1978 
L 1159 0 
L 581 0 
L 581 3500 
L 1159 3500 
L 1159 2956 
Q 1366 3272 1645 3428 
Q 1925 3584 2291 3584 
Q 2894 3584 3203 3211 
Q 3513 2838 3513 2113 
z
" transform="scale(0.015625)"/>
      <path id="DejaVuSans-74" d="M 1172 4494 
L 1172 3500 
L 2356 3500 
L 2356 3053 
L 1172 3053 
L 1172 1153 
Q 1172 725 1289 603 
Q 1406 481 1766 481 
L 2356 481 
L 2356 0 
L 1766 0 
Q 1100 0 847 248 
Q 594 497 594 1153 
L 594 3053 
L 172 3053 
L 172 3500 
L 594 3500 
L 594 4494 
L 1172 4494 
z
" transform="scale(0.015625)"/>
      <path id="DejaVuSans-67" d="M 2906 1791 
Q 2906 2416 2648 2759 
Q 2391 3103 1925 3103 
Q 1463 3103 1205 2759 
Q 947 2416 947 1791 
Q 947 1169 1205 825 
Q 1463 481 1925 481 
Q 2391 481 2648 825 
Q 2906 1169 2906 1791 
z
M 3481 434 
Q 3481 -459 3084 -895 
Q 2688 -1331 1869 -1331 
Q 1566 -1331 1297 -1286 
Q 1028 -1241 775 -1147 
L 775 -588 
Q 1028 -725 1275 -790 
Q 1522 -856 1778 -856 
Q 2344 -856 2625 -561 
Q 2906 -266 2906 331 
L 2906 616 
Q 2728 306 2450 153 
Q 2172 0 1784 0 
Q 1141 0 747 490 
Q 353 981 353 1791 
Q 353 2603 747 3093 
Q 1141 3584 1784 3584 
Q 2172 3584 2450 3431 
Q 2728 3278 2906 2969 
L 2906 3500 
L 3481 3500 
L 3481 434 
z
" transform="scale(0.015625)"/>
      <path id="DejaVuSans-61" d="M 2194 1759 
Q 1497 1759 1228 1600 
Q 959 1441 959 1056 
Q 959 750 1161 570 
Q 1363 391 1709 391 
Q 2188 391 2477 730 
Q 2766 1069 2766 1631 
L 2766 1759 
L 2194 1759 
z
M 3341 1997 
L 3341 0 
L 2766 0 
L 2766 531 
Q 2569 213 2275 61 
Q 1981 -91 1556 -91 
Q 1019 -91 701 211 
Q 384 513 384 1019 
Q 384 1609 779 1909 
Q 1175 2209 1959 2209 
L 2766 2209 
L 2766 2266 
Q 2766 2663 2505 2880 
Q 2244 3097 1772 3097 
Q 1472 3097 1187 3025 
Q 903 2953 641 2809 
L 641 3341 
Q 956 3463 1253 3523 
Q 1550 3584 1831 3584 
Q 2591 3584 2966 3190 
Q 3341 2797 3341 1997 
z
" transform="scale(0.015625)"/>
      <path id="DejaVuSans-68" d="M 3513 2113 
L 3513 0 
L 2938 0 
L 2938 2094 
Q 2938 2591 2744 2837 
Q 2550 3084 2163 3084 
Q 1697 3084 1428 2787 
Q 1159 2491 1159 1978 
L 1159 0 
L 581 0 
L 581 4863 
L 1159 4863 
L 1159 2956 
Q 1366 3272 1645 3428 
Q 1925 3584 2291 3584 
Q 2894 3584 3203 3211 
Q 3513 2838 3513 2113 
z
" transform="scale(0.015625)"/>
     </defs>
     <use xlink:href="#DejaVuSans-20" transform="translate(0 0.515625)"/>
     <use xlink:href="#DejaVuSans-63" transform="translate(31.787109 0.515625)"/>
     <use xlink:href="#DejaVuSans-6f" transform="translate(86.767578 0.515625)"/>
     <use xlink:href="#DejaVuSans-6e" transform="translate(147.949219 0.515625)"/>
     <use xlink:href="#DejaVuSans-73" transform="translate(211.328125 0.515625)"/>
     <use xlink:href="#DejaVuSans-74" transform="translate(263.427734 0.515625)"/>
     <use xlink:href="#DejaVuSans-72" transform="translate(302.636719 0.515625)"/>
     <use xlink:href="#DejaVuSans-75" transform="translate(343.75 0.515625)"/>
     <use xlink:href="#DejaVuSans-63" transform="translate(407.128906 0.515625)"/>
     <use xlink:href="#DejaVuSans-74" transform="translate(462.109375 0.515625)"/>
     <use xlink:href="#DejaVuSans-65" transform="translate(501.318359 0.515625)"/>
     <use xlink:href="#DejaVuSans-64" transform="translate(562.841797 0.515625)"/>
     <use xlink:href="#DejaVuSans-20" transform="translate(626.318359 0.515625)"/>
     <use xlink:href="#DejaVuSans-75" transform="translate(658.105469 0.515625)"/>
     <use xlink:href="#DejaVuSans-73" transform="translate(721.484375 0.515625)"/>
     <use xlink:href="#DejaVuSans-69" transform="translate(773.583984 0.515625)"/>
     <use xlink:href="#DejaVuSans-6e" transform="translate(801.367188 0.515625)"/>
     <use xlink:href="#DejaVuSans-67" transform="translate(864.746094 0.515625)"/>
     <use xlink:href="#DejaVuSans-20" transform="translate(928.222656 0.515625)"/>
     <use xlink:href="#DejaVuSans-300" transform="translate(1024.551758 13.015625)"/>
     <use xlink:href="#DejaVuSans-63" transform="translate(960.009766 0.515625)"/>
     <use xlink:href="#DejaVuSans-227b" transform="translate(1029.584961 -15.890625) scale(0.7)"/>
     <use xlink:href="#DejaVuSans-2c" transform="translate(1101.875 -15.890625) scale(0.7)"/>
     <use xlink:href="#DejaVuSans-Oblique-54" transform="translate(1137.763672 -15.890625) scale(0.7)"/>
     <use xlink:href="#DejaVuSans-2212" transform="translate(1194.160156 -15.890625) scale(0.7)"/>
     <use xlink:href="#DejaVuSans-31" transform="translate(1266.450195 -15.890625) scale(0.7)"/>
     <use xlink:href="#DejaVuSans-20" transform="translate(1313.720703 0.515625)"/>
     <use xlink:href="#DejaVuSans-28" transform="translate(1345.507812 0.515625)"/>
     <use xlink:href="#DejaVuSans-64" transform="translate(1384.521484 0.515625)"/>
     <use xlink:href="#DejaVuSans-61" transform="translate(1447.998047 0.515625)"/>
     <use xlink:href="#DejaVuSans-73" transform="translate(1509.277344 0.515625)"/>
     <use xlink:href="#DejaVuSans-68" transform="translate(1561.376953 0.515625)"/>
     <use xlink:href="#DejaVuSans-65" transform="translate(1624.755859 0.515625)"/>
     <use xlink:href="#DejaVuSans-64" transform="translate(1686.279297 0.515625)"/>
     <use xlink:href="#DejaVuSans-29" transform="translate(1749.755859 0.515625)"/>
    </g>
   </g>
  </g>
 </g>
 <defs>
  <clipPath id="p338cf488bf">
   <rect x="57.6" y="41.472" width="357.12" height="266.112"/>
  </clipPath>
 </defs>
</svg>
