<?xml version="1.0" encoding="utf-8" standalone="no"?>
<!DOCTYPE svg PUBLIC "-//W3C//DTD SVG 1.1//EN"
  "http://www.w3.org/Graphics/SVG/1.1/DTD/svg11.dtd">
<svg xmlns:xlink="http://www.w3.org/1999/xlink" width="460.8pt" height="345.6pt" viewBox="0 0 460.8 345.6" xmlns="http://www.w3.org/2000/svg" version="1.1">
 <metadata>
  <rdf:RDF xmlns:dc="http://purl.org/dc/elements/1.1/" xmlns:cc="http://creativecommons.org/ns#" xmlns:rdf="http://www.w3.org/1999/02/22-rdf-syntax-ns#">
   <cc:Work>
    <dc:type rdf:resource="http://purl.org/dc/dcmitype/StillImage"/>
    <dc:date>2026-03-01T00:25:14.487627</dc:date>
    <dc:format>image/svg+xml</dc:format>
    <dc:creator>
     <cc:Agent>
      <dc:title>Matplotlib v3.9.0, https://matplotlib.org/</dc:title>
     </cc:Agent>
    </dc:creator>
   </cc:Work>
  </rdf:RDF>
 </metadata>
 <defs>
  <style type="text/css">*{stroke-linejoin: round; stroke-linecap: butt}</style>
 </defs>
 <g id="figure_1">
  <g id="patch_1">
   <path d="M 0 345.6 
L 460.8 345.6 
L 460.8 0 
L 0 0 
z
" style="fill: #ffffff"/>
  </g>
  <g id="axes_1">
   <g id="patch_2">
    <path d="M 57.6 307.584 
L 414.72 307.584 
L 414.72 41.472 
L 57.6 41.472 
z
" style="fill: #ffffff"/>
   </g>
   <g id="matplotlib.axis_1">
    <g id="xtick_1">
     <g id="line2d_1">
      <defs>
       <path id="m1ebba03d18" d="M 0 0 
L 0 3.5 
" style="stroke: #000000; stroke-width: 0.8"/>
      </defs>
      <g>
       <use xlink:href="#m1ebba03d18" x="81.751131" y="307.584" style="stroke: #000000; stroke-width: 0.8"/>
      </g>
     </g>
     <g id="text_1">
      <!-- 0 -->
      <g transform="translate(78.569881 322.182437) scale(0.1 -0.1)">
       <defs>
        <path id="DejaVuSans-30" d="M 2034 4250 
Q 1547 4250 1301 3770 
Q 1056 3291 1056 2328 
Q 1056 1369 1301 889 
Q 1547 409 2034 409 
Q 2525 409 2770 889 
Q 3016 1369 3016 2328 
Q 3016 3291 2770 3770 
Q 2525 4250 2034 4250 
z
M 2034 4750 
Q 2819 4750 3233 4129 
Q 3647 3509 3647 2328 
Q 3647 1150 3233 529 
Q 2819 -91 2034 -91 
Q 1250 -91 836 529 
Q 422 1150 422 2328 
Q 422 3509 836 4129 
Q 1250 4750 2034 4750 
z
" transform="scale(0.015625)"/>
       </defs>
       <use xlink:href="#DejaVuSans-30"/>
      </g>
     </g>
    </g>
    <g id="xtick_2">
     <g id="line2d_2">
      <g>
       <use xlink:href="#m1ebba03d18" x="160.935166" y="307.584" style="stroke: #000000; stroke-width: 0.8"/>
      </g>
     </g>
     <g id="text_2">
      <!-- 1 -->
      <g transform="translate(157.753916 322.182437) scale(0.1 -0.1)">
       <defs>
        <path id="DejaVuSans-31" d="M 794 531 
L 1825 531 
L 1825 4091 
L 703 3866 
L 703 4441 
L 1819 4666 
L 2450 4666 
L 2450 531 
L 3481 531 
L 3481 0 
L 794 0 
L 794 531 
z
" transform="scale(0.015625)"/>
       </defs>
       <use xlink:href="#DejaVuSans-31"/>
      </g>
     </g>
    </g>
    <g id="xtick_3">
     <g id="line2d_3">
      <g>
       <use xlink:href="#m1ebba03d18" x="240.119202" y="307.584" style="stroke: #000000; stroke-width: 0.8"/>
      </g>
     </g>
     <g id="text_3">
      <!-- 2 -->
      <g transform="translate(236.937952 322.182437) scale(0.1 -0.1)">
       <defs>
        <path id="DejaVuSans-32" d="M 1228 531 
L 3431 531 
L 3431 0 
L 469 0 
L 469 531 
Q 828 903 1448 1529 
Q 2069 2156 2228 2338 
Q 2531 2678 2651 2914 
Q 2772 3150 2772 3378 
Q 2772 3750 2511 3984 
Q 2250 4219 1831 4219 
Q 1534 4219 1204 4116 
Q 875 4013 500 3803 
L 500 4441 
Q 881 4594 1212 4672 
Q 1544 4750 1819 4750 
Q 2544 4750 2975 4387 
Q 3406 4025 3406 3419 
Q 3406 3131 3298 2873 
Q 3191 2616 2906 2266 
Q 2828 2175 2409 1742 
Q 1991 1309 1228 531 
z
" transform="scale(0.015625)"/>
       </defs>
       <use xlink:href="#DejaVuSans-32"/>
      </g>
     </g>
    </g>
    <g id="xtick_4">
     <g id="line2d_4">
      <g>
       <use xlink:href="#m1ebba03d18" x="319.303237" y="307.584" style="stroke: #000000; stroke-width: 0.8"/>
      </g>
     </g>
     <g id="text_4">
      <!-- 3 -->
      <g transform="translate(316.121987 322.182437) scale(0.1 -0.1)">
       <defs>
        <path id="DejaVuSans-33" d="M 2597 2516 
Q 3050 2419 3304 2112 
Q 3559 1806 3559 1356 
Q 3559 666 3084 287 
Q 2609 -91 1734 -91 
Q 1441 -91 1130 -33 
Q 819 25 488 141 
L 488 750 
Q 750 597 1062 519 
Q 1375 441 1716 441 
Q 2309 441 2620 675 
Q 2931 909 2931 1356 
Q 2931 1769 2642 2001 
Q 2353 2234 1838 2234 
L 1294 2234 
L 1294 2753 
L 1863 2753 
Q 2328 2753 2575 2939 
Q 2822 3125 2822 3475 
Q 2822 3834 2567 4026 
Q 2313 4219 1838 4219 
Q 1578 4219 1281 4162 
Q 984 4106 628 3988 
L 628 4550 
Q 988 4650 1302 4700 
Q 1616 4750 1894 4750 
Q 2613 4750 3031 4423 
Q 3450 4097 3450 3541 
Q 3450 3153 3228 2886 
Q 3006 2619 2597 2516 
z
" transform="scale(0.015625)"/>
       </defs>
       <use xlink:href="#DejaVuSans-33"/>
      </g>
     </g>
    </g>
    <g id="xtick_5">
     <g id="line2d_5">
      <g>
       <use xlink:href="#m1ebba03d18" x="398.487273" y="307.584" style="stroke: #000000; stroke-width: 0.8"/>
      </g>
     </g>
     <g id="text_5">
      <!-- 4 -->
      <g transform="translate(395.306023 322.182437) scale(0.1 -0.1)">
       <defs>
        <path id="DejaVuSans-34" d="M 2419 4116 
L 825 1625 
L 2419 1625 
L 2419 4116 
z
M 2253 4666 
L 3047 4666 
L 3047 1625 
L 3713 1625 
L 3713 1100 
L 3047 1100 
L 3047 0 
L 2419 0 
L 2419 1100 
L 313 1100 
L 313 1709 
L 2253 4666 
z
" transform="scale(0.015625)"/>
       </defs>
       <use xlink:href="#DejaVuSans-34"/>
      </g>
     </g>
    </g>
    <g id="text_6">
     <!-- $m$ -->
     <g transform="translate(231.26 335.860562) scale(0.1 -0.1)">
      <defs>
       <path id="DejaVuSans-Oblique-6d" d="M 5747 2113 
L 5338 0 
L 4763 0 
L 5166 2094 
Q 5191 2228 5203 2325 
Q 5216 2422 5216 2491 
Q 5216 2772 5059 2928 
Q 4903 3084 4622 3084 
Q 4203 3084 3875 2770 
Q 3547 2456 3450 1953 
L 3066 0 
L 2491 0 
L 2900 2094 
Q 2925 2209 2937 2307 
Q 2950 2406 2950 2484 
Q 2950 2769 2794 2926 
Q 2638 3084 2363 3084 
Q 1938 3084 1609 2770 
Q 1281 2456 1184 1953 
L 800 0 
L 225 0 
L 909 3500 
L 1484 3500 
L 1375 2956 
Q 1609 3263 1923 3423 
Q 2238 3584 2597 3584 
Q 2978 3584 3223 3384 
Q 3469 3184 3519 2828 
Q 3781 3197 4126 3390 
Q 4472 3584 4856 3584 
Q 5306 3584 5551 3325 
Q 5797 3066 5797 2591 
Q 5797 2488 5784 2364 
Q 5772 2241 5747 2113 
z
" transform="scale(0.015625)"/>
      </defs>
      <use xlink:href="#DejaVuSans-Oblique-6d"/>
     </g>
    </g>
   </g>
   <g id="matplotlib.axis_2">
    <g id="ytick_1">
     <g id="line2d_6">
      <defs>
       <path id="m9b004f9b71" d="M 0 0 
L -3.5 0 
" style="stroke: #000000; stroke-width: 0.8"/>
      </defs>
      <g>
       <use xlink:href="#m9b004f9b71" x="57.6" y="286.100626" style="stroke: #000000; stroke-width: 0.8"/>
      </g>
     </g>
     <g id="text_7">
      <!-- 0.0 -->
      <g transform="translate(34.696875 289.899844) scale(0.1 -0.1)">
       <defs>
        <path id="DejaVuSans-2e" d="M 684 794 
L 1344 794 
L 1344 0 
L 684 0 
L 684 794 
z
" transform="scale(0.015625)"/>
       </defs>
       <use xlink:href="#DejaVuSans-30"/>
       <use xlink:href="#DejaVuSans-2e" x="63.623047"/>
       <use xlink:href="#DejaVuSans-30" x="95.410156"/>
      </g>
     </g>
    </g>
    <g id="ytick_2">
     <g id="line2d_7">
      <g>
       <use xlink:href="#m9b004f9b71" x="57.6" y="238.992691" style="stroke: #000000; stroke-width: 0.8"/>
      </g>
     </g>
     <g id="text_8">
      <!-- 0.5 -->
      <g transform="translate(34.696875 242.791909) scale(0.1 -0.1)">
       <defs>
        <path id="DejaVuSans-35" d="M 691 4666 
L 3169 4666 
L 3169 4134 
L 1269 4134 
L 1269 2991 
Q 1406 3038 1543 3061 
Q 1681 3084 1819 3084 
Q 2600 3084 3056 2656 
Q 3513 2228 3513 1497 
Q 3513 744 3044 326 
Q 2575 -91 1722 -91 
Q 1428 -91 1123 -41 
Q 819 9 494 109 
L 494 744 
Q 775 591 1075 516 
Q 1375 441 1709 441 
Q 2250 441 2565 725 
Q 2881 1009 2881 1497 
Q 2881 1984 2565 2268 
Q 2250 2553 1709 2553 
Q 1456 2553 1204 2497 
Q 953 2441 691 2322 
L 691 4666 
z
" transform="scale(0.015625)"/>
       </defs>
       <use xlink:href="#DejaVuSans-30"/>
       <use xlink:href="#DejaVuSans-2e" x="63.623047"/>
       <use xlink:href="#DejaVuSans-35" x="95.410156"/>
      </g>
     </g>
    </g>
    <g id="ytick_3">
     <g id="line2d_8">
      <g>
       <use xlink:href="#m9b004f9b71" x="57.6" y="191.884756" style="stroke: #000000; stroke-width: 0.8"/>
      </g>
     </g>
     <g id="text_9">
      <!-- 1.0 -->
      <g transform="translate(34.696875 195.683974) scale(0.1 -0.1)">
       <use xlink:href="#DejaVuSans-31"/>
       <use xlink:href="#DejaVuSans-2e" x="63.623047"/>
       <use xlink:href="#DejaVuSans-30" x="95.410156"/>
      </g>
     </g>
    </g>
    <g id="ytick_4">
     <g id="line2d_9">
      <g>
       <use xlink:href="#m9b004f9b71" x="57.6" y="144.776821" style="stroke: #000000; stroke-width: 0.8"/>
      </g>
     </g>
     <g id="text_10">
      <!-- 1.5 -->
      <g transform="translate(34.696875 148.576039) scale(0.1 -0.1)">
       <use xlink:href="#DejaVuSans-31"/>
       <use xlink:href="#DejaVuSans-2e" x="63.623047"/>
       <use xlink:href="#DejaVuSans-35" x="95.410156"/>
      </g>
     </g>
    </g>
    <g id="ytick_5">
     <g id="line2d_10">
      <g>
       <use xlink:href="#m9b004f9b71" x="57.6" y="97.668885" style="stroke: #000000; stroke-width: 0.8"/>
      </g>
     </g>
     <g id="text_11">
      <!-- 2.0 -->
      <g transform="translate(34.696875 101.468104) scale(0.1 -0.1)">
       <use xlink:href="#DejaVuSans-32"/>
       <use xlink:href="#DejaVuSans-2e" x="63.623047"/>
       <use xlink:href="#DejaVuSans-30" x="95.410156"/>
      </g>
     </g>
    </g>
    <g id="ytick_6">
     <g id="line2d_11">
      <g>
       <use xlink:href="#m9b004f9b71" x="57.6" y="50.56095" style="stroke: #000000; stroke-width: 0.8"/>
      </g>
     </g>
     <g id="text_12">
      <!-- 2.5 -->
      <g transform="translate(34.696875 54.360169) scale(0.1 -0.1)">
       <use xlink:href="#DejaVuSans-32"/>
       <use xlink:href="#DejaVuSans-2e" x="63.623047"/>
       <use xlink:href="#DejaVuSans-35" x="95.410156"/>
      </g>
     </g>
    </g>
    <g id="text_13">
     <!-- $\grave{\mathrm{c}}_{T-n}(m)$ -->
     <g transform="translate(28.617187 194.928) rotate(-90) scale(0.1 -0.1)">
      <defs>
       <path id="DejaVuSans-300" d="M -2059 5119 
L -1178 3950 
L -1656 3950 
L -2675 5119 
L -2059 5119 
z
M -1600 3584 
L -1600 3584 
z
" transform="scale(0.015625)"/>
       <path id="DejaVuSans-63" d="M 3122 3366 
L 3122 2828 
Q 2878 2963 2633 3030 
Q 2388 3097 2138 3097 
Q 1578 3097 1268 2742 
Q 959 2388 959 1747 
Q 959 1106 1268 751 
Q 1578 397 2138 397 
Q 2388 397 2633 464 
Q 2878 531 3122 666 
L 3122 134 
Q 2881 22 2623 -34 
Q 2366 -91 2075 -91 
Q 1284 -91 818 406 
Q 353 903 353 1747 
Q 353 2603 823 3093 
Q 1294 3584 2113 3584 
Q 2378 3584 2631 3529 
Q 2884 3475 3122 3366 
z
" transform="scale(0.015625)"/>
       <path id="DejaVuSans-Oblique-54" d="M 378 4666 
L 4325 4666 
L 4225 4134 
L 2559 4134 
L 1759 0 
L 1125 0 
L 1925 4134 
L 275 4134 
L 378 4666 
z
" transform="scale(0.015625)"/>
       <path id="DejaVuSans-2212" d="M 678 2272 
L 4684 2272 
L 4684 1741 
L 678 1741 
L 678 2272 
z
" transform="scale(0.015625)"/>
       <path id="DejaVuSans-Oblique-6e" d="M 3566 2113 
L 3156 0 
L 2578 0 
L 2988 2091 
Q 3016 2238 3031 2350 
Q 3047 2463 3047 2528 
Q 3047 2791 2881 2937 
Q 2716 3084 2419 3084 
Q 1956 3084 1622 2776 
Q 1288 2469 1184 1941 
L 800 0 
L 225 0 
L 903 3500 
L 1478 3500 
L 1363 2950 
Q 1603 3253 1940 3418 
Q 2278 3584 2650 3584 
Q 3113 3584 3367 3334 
Q 3622 3084 3622 2631 
Q 3622 2519 3608 2391 
Q 3594 2263 3566 2113 
z
" transform="scale(0.015625)"/>
       <path id="DejaVuSans-28" d="M 1984 4856 
Q 1566 4138 1362 3434 
Q 1159 2731 1159 2009 
Q 1159 1288 1364 580 
Q 1569 -128 1984 -844 
L 1484 -844 
Q 1016 -109 783 600 
Q 550 1309 550 2009 
Q 550 2706 781 3412 
Q 1013 4119 1484 4856 
L 1984 4856 
z
" transform="scale(0.015625)"/>
       <path id="DejaVuSans-29" d="M 513 4856 
L 1013 4856 
Q 1481 4119 1714 3412 
Q 1947 2706 1947 2009 
Q 1947 1309 1714 600 
Q 1481 -109 1013 -844 
L 513 -844 
Q 928 -128 1133 580 
Q 1338 1288 1338 2009 
Q 1338 2731 1133 3434 
Q 928 4138 513 4856 
z
" transform="scale(0.015625)"/>
      </defs>
      <use xlink:href="#DejaVuSans-300" transform="translate(64.541992 13.015625)"/>
      <use xlink:href="#DejaVuSans-63" transform="translate(0 0.515625)"/>
      <use xlink:href="#DejaVuSans-Oblique-54" transform="translate(55.9375 -15.890625) scale(0.7)"/>
      <use xlink:href="#DejaVuSans-2212" transform="translate(112.333984 -15.890625) scale(0.7)"/>
      <use xlink:href="#DejaVuSans-Oblique-6e" transform="translate(184.624023 -15.890625) scale(0.7)"/>
      <use xlink:href="#DejaVuSans-28" transform="translate(231.723633 0.515625)"/>
      <use xlink:href="#DejaVuSans-Oblique-6d" transform="translate(270.737305 0.515625)"/>
      <use xlink:href="#DejaVuSans-29" transform="translate(368.149414 0.515625)"/>
     </g>
    </g>
   </g>
   <g id="line2d_12">
    <path d="M 73.832727 295.488 
L 77.112066 291.6003 
L 80.391405 287.712599 
L 83.670744 283.824899 
L 86.950083 279.937198 
L 90.229421 276.049498 
L 93.50876 272.161797 
L 96.788099 268.274097 
L 100.067438 264.386396 
L 103.346777 260.498696 
L 106.626116 256.610995 
L 109.905455 252.723295 
L 113.184793 248.835594 
L 116.464132 244.947894 
L 119.743471 241.060193 
L 123.02281 237.172493 
L 126.302149 233.284792 
L 129.581488 229.397092 
L 132.860826 225.509391 
L 136.140165 221.621691 
L 139.419504 217.73399 
L 142.698843 215.443789 
L 145.978182 213.227946 
L 149.257521 211.021412 
L 152.53686 208.823833 
L 155.816198 206.634432 
L 159.095537 204.452863 
L 162.374876 202.278265 
L 165.654215 200.111163 
L 168.933554 197.950476 
L 172.212893 195.795858 
L 175.492231 193.646908 
L 178.77157 191.502866 
L 182.050909 189.365682 
L 185.330248 187.232923 
L 188.609587 185.103408 
L 191.888926 182.981109 
L 195.168264 180.859892 
L 198.447603 178.746251 
L 201.726942 176.634024 
L 205.006281 174.525694 
L 208.28562 172.423217 
L 211.564959 170.32074 
L 214.844298 168.22251 
L 218.123636 166.130611 
L 221.402975 164.038712 
L 224.682314 161.946812 
L 227.961653 159.862265 
L 231.240992 157.781833 
L 234.520331 155.701401 
L 237.799669 153.62097 
L 241.079008 151.540538 
L 244.358347 149.469986 
L 247.637686 147.401957 
L 250.917025 145.333928 
L 254.196364 143.2659 
L 257.475702 141.197871 
L 260.755041 139.129842 
L 264.03438 137.066374 
L 267.313719 135.01169 
L 270.593058 132.957007 
L 273.872397 130.902324 
L 277.151736 128.84764 
L 280.431074 126.792957 
L 283.710413 124.738274 
L 286.989752 122.683591 
L 290.269091 120.628907 
L 293.54843 118.579339 
L 296.827769 116.538868 
L 300.107107 114.498398 
L 303.386446 112.457928 
L 306.665785 110.417457 
L 309.945124 108.376987 
L 313.224463 106.336516 
L 316.503802 104.296046 
L 319.78314 102.255576 
L 323.062479 100.215105 
L 326.341818 98.174635 
L 329.621157 96.134164 
L 332.900496 94.093694 
L 336.179835 92.054975 
L 339.459174 90.029344 
L 342.738512 88.003714 
L 346.017851 85.978084 
L 349.29719 83.952454 
L 352.576529 81.926823 
L 355.855868 79.901193 
L 359.135207 77.875563 
L 362.414545 75.849933 
L 365.693884 73.824302 
L 368.973223 71.798672 
L 372.252562 69.773042 
L 375.531901 67.747412 
L 378.81124 65.721781 
L 382.090579 63.696151 
L 385.369917 61.670521 
L 388.649256 59.644891 
L 391.928595 57.61926 
L 395.207934 55.59363 
L 398.487273 53.568 
" clip-path="url(#p5bee575ef2)" style="fill: none; stroke: #000000; stroke-width: 1.5; stroke-linecap: square"/>
   </g>
   <g id="line2d_13">
    <path d="M 73.832727 295.486517 
L 77.112066 291.59943 
L 80.391405 287.712344 
L 83.670744 283.825258 
L 86.950083 279.938172 
L 90.229421 276.051086 
L 93.50876 272.164 
L 96.788099 268.276913 
L 100.067438 264.389827 
L 103.346777 260.502741 
L 106.626116 256.615655 
L 109.905455 252.728569 
L 113.184793 248.841483 
L 116.464132 244.954396 
L 119.743471 241.06731 
L 123.02281 237.180224 
L 126.302149 233.293138 
L 129.581488 229.406052 
L 132.860826 225.518965 
L 136.140165 221.631879 
L 139.419504 219.022049 
L 142.698843 216.996602 
L 145.978182 214.993705 
L 149.257521 213.012772 
L 152.53686 211.052571 
L 155.816198 209.111817 
L 159.095537 207.219823 
L 162.374876 205.408511 
L 165.654215 203.623639 
L 168.933554 201.856645 
L 172.212893 200.106757 
L 175.492231 198.372038 
L 178.77157 196.652679 
L 182.050909 194.96707 
L 185.330248 193.327617 
L 188.609587 191.844365 
L 191.888926 190.36403 
L 195.168264 188.888225 
L 198.447603 187.41379 
L 201.726942 185.946144 
L 205.006281 184.478498 
L 208.28562 183.014395 
L 211.564959 181.556277 
L 214.844298 180.098159 
L 218.123636 178.640041 
L 221.402975 177.190157 
L 224.682314 175.742858 
L 227.961653 174.29556 
L 231.240992 172.848261 
L 234.520331 171.400963 
L 237.799669 169.965328 
L 241.079008 168.530458 
L 244.358347 167.095588 
L 247.637686 165.660717 
L 250.917025 164.225847 
L 254.196364 162.790977 
L 257.475702 161.359112 
L 260.755041 159.938338 
L 264.03438 158.517564 
L 267.313719 157.096789 
L 270.593058 155.676015 
L 273.872397 154.255241 
L 277.151736 152.834466 
L 280.431074 151.413692 
L 283.710413 149.992918 
L 286.989752 148.572143 
L 290.269091 147.155841 
L 293.54843 145.751111 
L 296.827769 144.346381 
L 300.107107 142.941651 
L 303.386446 141.536921 
L 306.665785 140.132191 
L 309.945124 138.727462 
L 313.224463 137.322732 
L 316.503802 135.918002 
L 319.78314 134.513272 
L 323.062479 133.108542 
L 326.341818 131.703812 
L 329.621157 130.299082 
L 332.900496 128.894352 
L 336.179835 127.489622 
L 339.459174 126.084892 
L 342.738512 124.687026 
L 346.017851 123.300159 
L 349.29719 121.913292 
L 352.576529 120.526425 
L 355.855868 119.139558 
L 359.135207 117.752692 
L 362.414545 116.365825 
L 365.693884 114.978958 
L 368.973223 113.592091 
L 372.252562 112.205225 
L 375.531901 110.818358 
L 378.81124 109.431491 
L 382.090579 108.044624 
L 385.369917 106.657758 
L 388.649256 105.270891 
L 391.928595 103.884024 
L 395.207934 102.497157 
L 398.487273 101.11029 
" clip-path="url(#p5bee575ef2)" style="fill: none; stroke: #000000; stroke-width: 1.5; stroke-linecap: square"/>
   </g>
   <g id="line2d_14">
    <path d="M 73.832727 295.485856 
L 77.112066 291.599043 
L 80.391405 287.712231 
L 83.670744 283.825418 
L 86.950083 279.938606 
L 90.229421 276.051794 
L 93.50876 272.164981 
L 96.788099 268.278169 
L 100.067438 264.391356 
L 103.346777 260.504544 
L 106.626116 256.617732 
L 109.905455 252.730919 
L 113.184793 248.844107 
L 116.464132 244.957295 
L 119.743471 241.070482 
L 123.02281 237.18367 
L 126.302149 233.296857 
L 129.581488 229.410045 
L 132.860826 225.523233 
L 136.140165 221.637707 
L 139.419504 219.660273 
L 142.698843 217.71172 
L 145.978182 215.791047 
L 149.257521 213.89816 
L 152.53686 212.050104 
L 155.816198 210.320544 
L 159.095537 208.619847 
L 162.374876 206.944944 
L 165.654215 205.297506 
L 168.933554 203.674997 
L 172.212893 202.079716 
L 175.492231 200.512109 
L 178.77157 199.13043 
L 182.050909 197.808819 
L 185.330248 196.513566 
L 188.609587 195.236585 
L 191.888926 193.966368 
L 195.168264 192.71429 
L 198.447603 191.470753 
L 201.726942 190.230869 
L 205.006281 189.017896 
L 208.28562 187.804923 
L 211.564959 186.59195 
L 214.844298 185.412966 
L 218.123636 184.240558 
L 221.402975 183.06815 
L 224.682314 181.895742 
L 227.961653 180.742104 
L 231.240992 179.607157 
L 234.520331 178.472209 
L 237.799669 177.337262 
L 241.079008 176.202315 
L 244.358347 175.067367 
L 247.637686 173.950651 
L 250.917025 172.851818 
L 254.196364 171.752985 
L 257.475702 170.654152 
L 260.755041 169.555318 
L 264.03438 168.456485 
L 267.313719 167.357652 
L 270.593058 166.258819 
L 273.872397 165.159985 
L 277.151736 164.07096 
L 280.431074 162.985915 
L 283.710413 161.90087 
L 286.989752 160.815825 
L 290.269091 159.73078 
L 293.54843 158.645735 
L 296.827769 157.56069 
L 300.107107 156.475645 
L 303.386446 155.390599 
L 306.665785 154.305554 
L 309.945124 153.220509 
L 313.224463 152.135464 
L 316.503802 151.050419 
L 319.78314 149.965374 
L 323.062479 148.89 
L 326.341818 147.820535 
L 329.621157 146.751071 
L 332.900496 145.681606 
L 336.179835 144.612141 
L 339.459174 143.542676 
L 342.738512 142.473212 
L 346.017851 141.403747 
L 349.29719 140.334282 
L 352.576529 139.264818 
L 355.855868 138.195353 
L 359.135207 137.125888 
L 362.414545 136.056424 
L 365.693884 134.986959 
L 368.973223 133.917494 
L 372.252562 132.84803 
L 375.531901 131.778565 
L 378.81124 130.7091 
L 382.090579 129.639636 
L 385.369917 128.570171 
L 388.649256 127.500706 
L 391.928595 126.431242 
L 395.207934 125.361777 
L 398.487273 124.292312 
" clip-path="url(#p5bee575ef2)" style="fill: none; stroke: #000000; stroke-width: 1.5; stroke-linecap: square"/>
   </g>
   <g id="line2d_15">
    <path d="M 73.832727 295.485497 
L 77.112066 291.598833 
L 80.391405 287.712169 
L 83.670744 283.825505 
L 86.950083 279.938842 
L 90.229421 276.052178 
L 93.50876 272.165514 
L 96.788099 268.27885 
L 100.067438 264.392186 
L 103.346777 260.505522 
L 106.626116 256.618859 
L 109.905455 252.732195 
L 113.184793 248.845531 
L 116.464132 244.958867 
L 119.743471 241.072203 
L 123.02281 237.18554 
L 126.302149 233.298876 
L 129.581488 229.412212 
L 132.860826 225.525548 
L 136.140165 221.952823 
L 139.419504 220.016019 
L 142.698843 218.111564 
L 145.978182 216.237486 
L 149.257521 214.404613 
L 152.53686 212.692316 
L 155.816198 211.028925 
L 159.095537 209.402668 
L 162.374876 207.810972 
L 165.654215 206.248913 
L 168.933554 204.715104 
L 172.212893 203.241119 
L 175.492231 201.882319 
L 178.77157 200.668933 
L 182.050909 199.484823 
L 185.330248 198.309141 
L 188.609587 197.146182 
L 191.888926 196.000202 
L 195.168264 194.876841 
L 198.447603 193.75348 
L 201.726942 192.674886 
L 205.006281 191.597243 
L 208.28562 190.5196 
L 211.564959 189.486296 
L 214.844298 188.460525 
L 218.123636 187.434754 
L 221.402975 186.408983 
L 224.682314 185.422902 
L 227.961653 184.450834 
L 231.240992 183.478765 
L 234.520331 182.506697 
L 237.799669 181.534629 
L 241.079008 180.565776 
L 244.358347 179.635922 
L 247.637686 178.706068 
L 250.917025 177.776214 
L 254.196364 176.84636 
L 257.475702 175.916506 
L 260.755041 174.986652 
L 264.03438 174.056798 
L 267.313719 173.126944 
L 270.593058 172.222217 
L 273.872397 171.324467 
L 277.151736 170.426717 
L 280.431074 169.528967 
L 283.710413 168.631217 
L 286.989752 167.733468 
L 290.269091 166.835718 
L 293.54843 165.937968 
L 296.827769 165.040218 
L 300.107107 164.142468 
L 303.386446 163.244719 
L 306.665785 162.346969 
L 309.945124 161.449219 
L 313.224463 160.564281 
L 316.503802 159.688988 
L 319.78314 158.813694 
L 323.062479 157.9384 
L 326.341818 157.063107 
L 329.621157 156.187813 
L 332.900496 155.31252 
L 336.179835 154.437226 
L 339.459174 153.561932 
L 342.738512 152.686639 
L 346.017851 151.811345 
L 349.29719 150.936052 
L 352.576529 150.060758 
L 355.855868 149.185464 
L 359.135207 148.310171 
L 362.414545 147.434877 
L 365.693884 146.559583 
L 368.973223 145.68429 
L 372.252562 144.808996 
L 375.531901 143.933703 
L 378.81124 143.058409 
L 382.090579 142.183115 
L 385.369917 141.307822 
L 388.649256 140.432528 
L 391.928595 139.570606 
L 395.207934 138.711732 
L 398.487273 137.852857 
" clip-path="url(#p5bee575ef2)" style="fill: none; stroke: #000000; stroke-width: 1.5; stroke-linecap: square"/>
   </g>
   <g id="line2d_16">
    <path d="M 73.832727 295.485273 
L 77.112066 291.598702 
L 80.391405 287.712131 
L 83.670744 283.82556 
L 86.950083 279.938989 
L 90.229421 276.052417 
L 93.50876 272.165846 
L 96.788099 268.279275 
L 100.067438 264.392704 
L 103.346777 260.506133 
L 106.626116 256.619562 
L 109.905455 252.732991 
L 113.184793 248.84642 
L 116.464132 244.959848 
L 119.743471 241.073277 
L 123.02281 237.186706 
L 126.302149 233.300135 
L 129.581488 229.413564 
L 132.860826 225.526993 
L 136.140165 222.152403 
L 139.419504 220.240546 
L 142.698843 218.362275 
L 145.978182 216.51926 
L 149.257521 214.756274 
L 152.53686 213.100285 
L 155.816198 211.484794 
L 159.095537 209.907925 
L 162.374876 208.362426 
L 165.654215 206.847775 
L 168.933554 205.366837 
L 172.212893 204.013874 
L 175.492231 202.807882 
L 178.77157 201.669604 
L 182.050909 200.544745 
L 185.330248 199.441109 
L 188.609587 198.343015 
L 191.888926 197.295689 
L 195.168264 196.256026 
L 198.447603 195.239091 
L 201.726942 194.245726 
L 205.006281 193.252361 
L 208.28562 192.283326 
L 211.564959 191.343196 
L 214.844298 190.403066 
L 218.123636 189.462936 
L 221.402975 188.554531 
L 224.682314 187.683322 
L 227.961653 186.812112 
L 231.240992 185.940902 
L 234.520331 185.069692 
L 237.799669 184.198482 
L 241.079008 183.373909 
L 244.358347 182.550003 
L 247.637686 181.726098 
L 250.917025 180.902192 
L 254.196364 180.078287 
L 257.475702 179.254381 
L 260.755041 178.430476 
L 264.03438 177.60657 
L 267.313719 176.824671 
L 270.593058 176.043724 
L 273.872397 175.262776 
L 277.151736 174.481829 
L 280.431074 173.700881 
L 283.710413 172.919934 
L 286.989752 172.138986 
L 290.269091 171.358039 
L 293.54843 170.577091 
L 296.827769 169.796144 
L 300.107107 169.015196 
L 303.386446 168.234249 
L 306.665785 167.461669 
L 309.945124 166.712883 
L 313.224463 165.964096 
L 316.503802 165.21531 
L 319.78314 164.466523 
L 323.062479 163.717737 
L 326.341818 162.96895 
L 329.621157 162.220164 
L 332.900496 161.471377 
L 336.179835 160.722591 
L 339.459174 159.973804 
L 342.738512 159.225018 
L 346.017851 158.476231 
L 349.29719 157.727445 
L 352.576529 156.978658 
L 355.855868 156.229872 
L 359.135207 155.481085 
L 362.414545 154.732299 
L 365.693884 153.983512 
L 368.973223 153.234726 
L 372.252562 152.485939 
L 375.531901 151.737153 
L 378.81124 150.988366 
L 382.090579 150.248388 
L 385.369917 149.518867 
L 388.649256 148.789346 
L 391.928595 148.059825 
L 395.207934 147.330304 
L 398.487273 146.600783 
" clip-path="url(#p5bee575ef2)" style="fill: none; stroke: #000000; stroke-width: 1.5; stroke-linecap: square"/>
   </g>
   <g id="line2d_17">
    <path d="M 73.832727 295.485124 
L 77.112066 291.598614 
L 80.391405 287.712105 
L 83.670744 283.825596 
L 86.950083 279.939086 
L 90.229421 276.052577 
L 93.50876 272.166068 
L 96.788099 268.279559 
L 100.067438 264.393049 
L 103.346777 260.50654 
L 106.626116 256.620031 
L 109.905455 252.733521 
L 113.184793 248.847012 
L 116.464132 244.960503 
L 119.743471 241.073993 
L 123.02281 237.187484 
L 126.302149 233.300975 
L 129.581488 229.414465 
L 132.860826 225.527956 
L 136.140165 222.286799 
L 139.419504 220.391584 
L 142.698843 218.533456 
L 145.978182 216.711635 
L 149.257521 215.007079 
L 152.53686 213.383489 
L 155.816198 211.798353 
L 159.095537 210.25054 
L 162.374876 208.734837 
L 165.654215 207.255632 
L 168.933554 205.820875 
L 172.212893 204.565175 
L 175.492231 203.441363 
L 178.77157 202.346162 
L 182.050909 201.261538 
L 185.330248 200.214197 
L 188.609587 199.176247 
L 191.888926 198.187677 
L 195.168264 197.199107 
L 198.447603 196.254118 
L 201.726942 195.318467 
L 205.006281 194.382816 
L 208.28562 193.49374 
L 211.564959 192.612966 
L 214.844298 191.732193 
L 218.123636 190.851419 
L 221.402975 190.0414 
L 224.682314 189.236663 
L 227.961653 188.431925 
L 231.240992 187.627188 
L 234.520331 186.822451 
L 237.799669 186.047975 
L 241.079008 185.295997 
L 244.358347 184.544018 
L 247.637686 183.79204 
L 250.917025 183.040061 
L 254.196364 182.288083 
L 257.475702 181.536104 
L 260.755041 180.784126 
L 264.03438 180.070038 
L 267.313719 179.368687 
L 270.593058 178.667336 
L 273.872397 177.965984 
L 277.151736 177.264633 
L 280.431074 176.563282 
L 283.710413 175.861931 
L 286.989752 175.16058 
L 290.269091 174.459229 
L 293.54843 173.757878 
L 296.827769 173.056527 
L 300.107107 172.355176 
L 303.386446 171.667513 
L 306.665785 171.005604 
L 309.945124 170.343695 
L 313.224463 169.681786 
L 316.503802 169.019876 
L 319.78314 168.357967 
L 323.062479 167.696058 
L 326.341818 167.034149 
L 329.621157 166.372239 
L 332.900496 165.71033 
L 336.179835 165.048421 
L 339.459174 164.386512 
L 342.738512 163.724603 
L 346.017851 163.062693 
L 349.29719 162.400784 
L 352.576529 161.738875 
L 355.855868 161.076966 
L 359.135207 160.415056 
L 362.414545 159.753147 
L 365.693884 159.091238 
L 368.973223 158.429329 
L 372.252562 157.76742 
L 375.531901 157.109292 
L 378.81124 156.471707 
L 382.090579 155.834121 
L 385.369917 155.196535 
L 388.649256 154.55895 
L 391.928595 153.921364 
L 395.207934 153.283779 
L 398.487273 152.646193 
" clip-path="url(#p5bee575ef2)" style="fill: none; stroke: #000000; stroke-width: 1.5; stroke-linecap: square"/>
   </g>
   <g id="line2d_18">
    <path d="M 73.832727 295.485018 
L 77.112066 291.598552 
L 80.391405 287.712087 
L 83.670744 283.825621 
L 86.950083 279.939156 
L 90.229421 276.052691 
L 93.50876 272.166225 
L 96.788099 268.27976 
L 100.067438 264.393294 
L 103.346777 260.506829 
L 106.626116 256.620363 
L 109.905455 252.733898 
L 113.184793 248.847433 
L 116.464132 244.960967 
L 119.743471 241.074502 
L 123.02281 237.188036 
L 126.302149 233.301571 
L 129.581488 229.415105 
L 132.860826 225.52864 
L 136.140165 222.382602 
L 139.419504 220.499951 
L 142.698843 218.657086 
L 145.978182 216.850133 
L 149.257521 215.189264 
L 152.53686 213.585276 
L 155.816198 212.021557 
L 159.095537 210.493844 
L 162.374876 209.002924 
L 165.654215 207.552867 
L 168.933554 206.173573 
L 172.212893 204.97489 
L 175.492231 203.89298 
L 178.77157 202.82966 
L 182.050909 201.783285 
L 185.330248 200.77482 
L 188.609587 199.785589 
L 191.888926 198.82984 
L 195.168264 197.877393 
L 198.447603 196.982083 
L 201.726942 196.086773 
L 205.006281 195.198446 
L 208.28562 194.361483 
L 211.564959 193.52452 
L 214.844298 192.687557 
L 218.123636 191.871 
L 221.402975 191.113272 
L 224.682314 190.355545 
L 227.961653 189.597818 
L 231.240992 188.840091 
L 234.520331 188.082364 
L 237.799669 187.380859 
L 241.079008 186.680461 
L 244.358347 185.980064 
L 247.637686 185.279666 
L 250.917025 184.579269 
L 254.196364 183.878871 
L 257.475702 183.178474 
L 260.755041 182.49383 
L 264.03438 181.849381 
L 267.313719 181.204932 
L 270.593058 180.560483 
L 273.872397 179.916033 
L 277.151736 179.271584 
L 280.431074 178.627135 
L 283.710413 177.982685 
L 286.989752 177.338236 
L 290.269091 176.693787 
L 293.54843 176.049338 
L 296.827769 175.404888 
L 300.107107 174.764847 
L 303.386446 174.165917 
L 306.665785 173.566986 
L 309.945124 172.968055 
L 313.224463 172.369124 
L 316.503802 171.770194 
L 319.78314 171.171263 
L 323.062479 170.572332 
L 326.341818 169.973401 
L 329.621157 169.374471 
L 332.900496 168.77554 
L 336.179835 168.176609 
L 339.459174 167.577678 
L 342.738512 166.978748 
L 346.017851 166.379817 
L 349.29719 165.780886 
L 352.576529 165.181956 
L 355.855868 164.583025 
L 359.135207 163.984094 
L 362.414545 163.385163 
L 365.693884 162.786233 
L 368.973223 162.187302 
L 372.252562 161.598019 
L 375.531901 161.028465 
L 378.81124 160.458911 
L 382.090579 159.889356 
L 385.369917 159.319802 
L 388.649256 158.750248 
L 391.928595 158.180694 
L 395.207934 157.61114 
L 398.487273 157.041586 
" clip-path="url(#p5bee575ef2)" style="fill: none; stroke: #000000; stroke-width: 1.5; stroke-linecap: square"/>
   </g>
   <g id="line2d_19">
    <path d="M 73.832727 295.484939 
L 77.112066 291.598506 
L 80.391405 287.712073 
L 83.670744 283.82564 
L 86.950083 279.939207 
L 90.229421 276.052774 
L 93.50876 272.166342 
L 96.788099 268.279909 
L 100.067438 264.393476 
L 103.346777 260.507043 
L 106.626116 256.62061 
L 109.905455 252.734177 
L 113.184793 248.847744 
L 116.464132 244.961311 
L 119.743471 241.074878 
L 123.02281 237.188445 
L 126.302149 233.302012 
L 129.581488 229.415579 
L 132.860826 225.529146 
L 136.140165 222.453717 
L 139.419504 220.58101 
L 142.698843 218.749094 
L 145.978182 216.957701 
L 149.257521 215.324045 
L 152.53686 213.734479 
L 155.816198 212.186321 
L 159.095537 210.673767 
L 162.374876 209.202627 
L 165.654215 207.775596 
L 168.933554 206.440899 
L 172.212893 205.290281 
L 175.492231 204.227166 
L 178.77157 203.18836 
L 182.050909 202.172707 
L 185.330248 201.192582 
L 188.609587 200.23807 
L 191.888926 199.307775 
L 195.168264 198.391669 
L 198.447603 197.524843 
L 201.726942 196.658018 
L 205.006281 195.81109 
L 208.28562 195.007199 
L 211.564959 194.203307 
L 214.844298 193.399416 
L 218.123636 192.635578 
L 221.402975 191.912565 
L 224.682314 191.189552 
L 227.961653 190.466539 
L 231.240992 189.743525 
L 234.520331 189.037298 
L 237.799669 188.375099 
L 241.079008 187.7129 
L 244.358347 187.050701 
L 247.637686 186.388502 
L 250.917025 185.726303 
L 254.196364 185.064104 
L 257.475702 184.401905 
L 260.755041 183.779937 
L 264.03438 183.177991 
L 267.313719 182.576046 
L 270.593058 181.974101 
L 273.872397 181.372155 
L 277.151736 180.77021 
L 280.431074 180.168264 
L 283.710413 179.566319 
L 286.989752 178.964374 
L 290.269091 178.362428 
L 293.54843 177.760483 
L 296.827769 177.158538 
L 300.107107 176.589063 
L 303.386446 176.037863 
L 306.665785 175.486662 
L 309.945124 174.935461 
L 313.224463 174.38426 
L 316.503802 173.833059 
L 319.78314 173.281858 
L 323.062479 172.730657 
L 326.341818 172.179456 
L 329.621157 171.628256 
L 332.900496 171.077055 
L 336.179835 170.525854 
L 339.459174 169.974653 
L 342.738512 169.423452 
L 346.017851 168.872251 
L 349.29719 168.32105 
L 352.576529 167.769849 
L 355.855868 167.218649 
L 359.135207 166.667448 
L 362.414545 166.116247 
L 365.693884 165.565046 
L 368.973223 165.019934 
L 372.252562 164.502267 
L 375.531901 163.984601 
L 378.81124 163.466935 
L 382.090579 162.949268 
L 385.369917 162.431602 
L 388.649256 161.913936 
L 391.928595 161.396269 
L 395.207934 160.878603 
L 398.487273 160.360937 
" clip-path="url(#p5bee575ef2)" style="fill: none; stroke: #000000; stroke-width: 1.5; stroke-linecap: square"/>
   </g>
   <g id="line2d_20">
    <path d="M 73.832727 295.48488 
L 77.112066 291.598472 
L 80.391405 287.712063 
L 83.670744 283.825655 
L 86.950083 279.939247 
L 90.229421 276.052838 
L 93.50876 272.16643 
L 96.788099 268.280022 
L 100.067438 264.393613 
L 103.346777 260.507205 
L 106.626116 256.620797 
L 109.905455 252.734388 
L 113.184793 248.84798 
L 116.464132 244.961572 
L 119.743471 241.075163 
L 123.02281 237.188755 
L 126.302149 233.302347 
L 129.581488 229.415938 
L 132.860826 225.52953 
L 136.140165 222.508088 
L 139.419504 220.643295 
L 142.698843 218.819261 
L 145.978182 217.047735 
L 149.257521 215.426632 
L 152.53686 213.848069 
L 155.816198 212.311682 
L 159.095537 210.811591 
L 162.374876 209.35543 
L 165.654215 207.946893 
L 168.933554 206.647885 
L 172.212893 205.529842 
L 175.492231 204.481327 
L 178.77157 203.462543 
L 182.050909 202.471438 
L 185.330248 201.512026 
L 188.609587 200.583319 
L 191.888926 199.672958 
L 195.168264 198.785426 
L 198.447603 197.940139 
L 201.726942 197.094853 
L 205.006281 196.280492 
L 208.28562 195.501868 
L 211.564959 194.723244 
L 214.844298 193.94462 
L 218.123636 193.221191 
L 221.402975 192.524475 
L 224.682314 191.827758 
L 227.961653 191.131041 
L 231.240992 190.434324 
L 234.520331 189.769341 
L 237.799669 189.136414 
L 241.079008 188.503486 
L 244.358347 187.870559 
L 247.637686 187.237631 
L 250.917025 186.604703 
L 254.196364 185.971776 
L 257.475702 185.338848 
L 260.755041 184.76681 
L 264.03438 184.197489 
L 267.313719 183.628167 
L 270.593058 183.058845 
L 273.872397 182.489524 
L 277.151736 181.920202 
L 280.431074 181.35088 
L 283.710413 180.781559 
L 286.989752 180.212237 
L 290.269091 179.642916 
L 293.54843 179.073594 
L 296.827769 178.506884 
L 300.107107 177.992859 
L 303.386446 177.478834 
L 306.665785 176.964809 
L 309.945124 176.450784 
L 313.224463 175.936759 
L 316.503802 175.422734 
L 319.78314 174.908709 
L 323.062479 174.394684 
L 326.341818 173.880659 
L 329.621157 173.366633 
L 332.900496 172.852608 
L 336.179835 172.338583 
L 339.459174 171.824558 
L 342.738512 171.310533 
L 346.017851 170.796508 
L 349.29719 170.282483 
L 352.576529 169.768458 
L 355.855868 169.254433 
L 359.135207 168.740408 
L 362.414545 168.226382 
L 365.693884 167.712357 
L 368.973223 167.22887 
L 372.252562 166.751889 
L 375.531901 166.274908 
L 378.81124 165.797926 
L 382.090579 165.320945 
L 385.369917 164.843964 
L 388.649256 164.366983 
L 391.928595 163.890001 
L 395.207934 163.41302 
L 398.487273 162.936039 
" clip-path="url(#p5bee575ef2)" style="fill: none; stroke: #000000; stroke-width: 1.5; stroke-linecap: square"/>
   </g>
   <g id="patch_3">
    <path d="M 57.6 307.584 
L 57.6 41.472 
" style="fill: none; stroke: #000000; stroke-width: 0.8; stroke-linejoin: miter; stroke-linecap: square"/>
   </g>
   <g id="patch_4">
    <path d="M 414.72 307.584 
L 414.72 41.472 
" style="fill: none; stroke: #000000; stroke-width: 0.8; stroke-linejoin: miter; stroke-linecap: square"/>
   </g>
   <g id="patch_5">
    <path d="M 57.6 307.584 
L 414.72 307.584 
" style="fill: none; stroke: #000000; stroke-width: 0.8; stroke-linejoin: miter; stroke-linecap: square"/>
   </g>
   <g id="patch_6">
    <path d="M 57.6 41.472 
L 414.72 41.472 
" style="fill: none; stroke: #000000; stroke-width: 0.8; stroke-linejoin: miter; stroke-linecap: square"/>
   </g>
   <g id="text_14">
    <!-- Convergence of $\grave{\mathrm{c}}_{T-n}(m)$ Functions as $n$ Increases -->
    <g transform="translate(86.58 35.472) scale(0.12 -0.12)">
     <defs>
      <path id="DejaVuSans-43" d="M 4122 4306 
L 4122 3641 
Q 3803 3938 3442 4084 
Q 3081 4231 2675 4231 
Q 1875 4231 1450 3742 
Q 1025 3253 1025 2328 
Q 1025 1406 1450 917 
Q 1875 428 2675 428 
Q 3081 428 3442 575 
Q 3803 722 4122 1019 
L 4122 359 
Q 3791 134 3420 21 
Q 3050 -91 2638 -91 
Q 1578 -91 968 557 
Q 359 1206 359 2328 
Q 359 3453 968 4101 
Q 1578 4750 2638 4750 
Q 3056 4750 3426 4639 
Q 3797 4528 4122 4306 
z
" transform="scale(0.015625)"/>
      <path id="DejaVuSans-6f" d="M 1959 3097 
Q 1497 3097 1228 2736 
Q 959 2375 959 1747 
Q 959 1119 1226 758 
Q 1494 397 1959 397 
Q 2419 397 2687 759 
Q 2956 1122 2956 1747 
Q 2956 2369 2687 2733 
Q 2419 3097 1959 3097 
z
M 1959 3584 
Q 2709 3584 3137 3096 
Q 3566 2609 3566 1747 
Q 3566 888 3137 398 
Q 2709 -91 1959 -91 
Q 1206 -91 779 398 
Q 353 888 353 1747 
Q 353 2609 779 3096 
Q 1206 3584 1959 3584 
z
" transform="scale(0.015625)"/>
      <path id="DejaVuSans-6e" d="M 3513 2113 
L 3513 0 
L 2938 0 
L 2938 2094 
Q 2938 2591 2744 2837 
Q 2550 3084 2163 3084 
Q 1697 3084 1428 2787 
Q 1159 2491 1159 1978 
L 1159 0 
L 581 0 
L 581 3500 
L 1159 3500 
L 1159 2956 
Q 1366 3272 1645 3428 
Q 1925 3584 2291 3584 
Q 2894 3584 3203 3211 
Q 3513 2838 3513 2113 
z
" transform="scale(0.015625)"/>
      <path id="DejaVuSans-76" d="M 191 3500 
L 800 3500 
L 1894 563 
L 2988 3500 
L 3597 3500 
L 2284 0 
L 1503 0 
L 191 3500 
z
" transform="scale(0.015625)"/>
      <path id="DejaVuSans-65" d="M 3597 1894 
L 3597 1613 
L 953 1613 
Q 991 1019 1311 708 
Q 1631 397 2203 397 
Q 2534 397 2845 478 
Q 3156 559 3463 722 
L 3463 178 
Q 3153 47 2828 -22 
Q 2503 -91 2169 -91 
Q 1331 -91 842 396 
Q 353 884 353 1716 
Q 353 2575 817 3079 
Q 1281 3584 2069 3584 
Q 2775 3584 3186 3129 
Q 3597 2675 3597 1894 
z
M 3022 2063 
Q 3016 2534 2758 2815 
Q 2500 3097 2075 3097 
Q 1594 3097 1305 2825 
Q 1016 2553 972 2059 
L 3022 2063 
z
" transform="scale(0.015625)"/>
      <path id="DejaVuSans-72" d="M 2631 2963 
Q 2534 3019 2420 3045 
Q 2306 3072 2169 3072 
Q 1681 3072 1420 2755 
Q 1159 2438 1159 1844 
L 1159 0 
L 581 0 
L 581 3500 
L 1159 3500 
L 1159 2956 
Q 1341 3275 1631 3429 
Q 1922 3584 2338 3584 
Q 2397 3584 2469 3576 
Q 2541 3569 2628 3553 
L 2631 2963 
z
" transform="scale(0.015625)"/>
      <path id="DejaVuSans-67" d="M 2906 1791 
Q 2906 2416 2648 2759 
Q 2391 3103 1925 3103 
Q 1463 3103 1205 2759 
Q 947 2416 947 1791 
Q 947 1169 1205 825 
Q 1463 481 1925 481 
Q 2391 481 2648 825 
Q 2906 1169 2906 1791 
z
M 3481 434 
Q 3481 -459 3084 -895 
Q 2688 -1331 1869 -1331 
Q 1566 -1331 1297 -1286 
Q 1028 -1241 775 -1147 
L 775 -588 
Q 1028 -725 1275 -790 
Q 1522 -856 1778 -856 
Q 2344 -856 2625 -561 
Q 2906 -266 2906 331 
L 2906 616 
Q 2728 306 2450 153 
Q 2172 0 1784 0 
Q 1141 0 747 490 
Q 353 981 353 1791 
Q 353 2603 747 3093 
Q 1141 3584 1784 3584 
Q 2172 3584 2450 3431 
Q 2728 3278 2906 2969 
L 2906 3500 
L 3481 3500 
L 3481 434 
z
" transform="scale(0.015625)"/>
      <path id="DejaVuSans-20" transform="scale(0.015625)"/>
      <path id="DejaVuSans-66" d="M 2375 4863 
L 2375 4384 
L 1825 4384 
Q 1516 4384 1395 4259 
Q 1275 4134 1275 3809 
L 1275 3500 
L 2222 3500 
L 2222 3053 
L 1275 3053 
L 1275 0 
L 697 0 
L 697 3053 
L 147 3053 
L 147 3500 
L 697 3500 
L 697 3744 
Q 697 4328 969 4595 
Q 1241 4863 1831 4863 
L 2375 4863 
z
" transform="scale(0.015625)"/>
      <path id="DejaVuSans-46" d="M 628 4666 
L 3309 4666 
L 3309 4134 
L 1259 4134 
L 1259 2759 
L 3109 2759 
L 3109 2228 
L 1259 2228 
L 1259 0 
L 628 0 
L 628 4666 
z
" transform="scale(0.015625)"/>
      <path id="DejaVuSans-75" d="M 544 1381 
L 544 3500 
L 1119 3500 
L 1119 1403 
Q 1119 906 1312 657 
Q 1506 409 1894 409 
Q 2359 409 2629 706 
Q 2900 1003 2900 1516 
L 2900 3500 
L 3475 3500 
L 3475 0 
L 2900 0 
L 2900 538 
Q 2691 219 2414 64 
Q 2138 -91 1772 -91 
Q 1169 -91 856 284 
Q 544 659 544 1381 
z
M 1991 3584 
L 1991 3584 
z
" transform="scale(0.015625)"/>
      <path id="DejaVuSans-74" d="M 1172 4494 
L 1172 3500 
L 2356 3500 
L 2356 3053 
L 1172 3053 
L 1172 1153 
Q 1172 725 1289 603 
Q 1406 481 1766 481 
L 2356 481 
L 2356 0 
L 1766 0 
Q 1100 0 847 248 
Q 594 497 594 1153 
L 594 3053 
L 172 3053 
L 172 3500 
L 594 3500 
L 594 4494 
L 1172 4494 
z
" transform="scale(0.015625)"/>
      <path id="DejaVuSans-69" d="M 603 3500 
L 1178 3500 
L 1178 0 
L 603 0 
L 603 3500 
z
M 603 4863 
L 1178 4863 
L 1178 4134 
L 603 4134 
L 603 4863 
z
" transform="scale(0.015625)"/>
      <path id="DejaVuSans-73" d="M 2834 3397 
L 2834 2853 
Q 2591 2978 2328 3040 
Q 2066 3103 1784 3103 
Q 1356 3103 1142 2972 
Q 928 2841 928 2578 
Q 928 2378 1081 2264 
Q 1234 2150 1697 2047 
L 1894 2003 
Q 2506 1872 2764 1633 
Q 3022 1394 3022 966 
Q 3022 478 2636 193 
Q 2250 -91 1575 -91 
Q 1294 -91 989 -36 
Q 684 19 347 128 
L 347 722 
Q 666 556 975 473 
Q 1284 391 1588 391 
Q 1994 391 2212 530 
Q 2431 669 2431 922 
Q 2431 1156 2273 1281 
Q 2116 1406 1581 1522 
L 1381 1569 
Q 847 1681 609 1914 
Q 372 2147 372 2553 
Q 372 3047 722 3315 
Q 1072 3584 1716 3584 
Q 2034 3584 2315 3537 
Q 2597 3491 2834 3397 
z
" transform="scale(0.015625)"/>
      <path id="DejaVuSans-61" d="M 2194 1759 
Q 1497 1759 1228 1600 
Q 959 1441 959 1056 
Q 959 750 1161 570 
Q 1363 391 1709 391 
Q 2188 391 2477 730 
Q 2766 1069 2766 1631 
L 2766 1759 
L 2194 1759 
z
M 3341 1997 
L 3341 0 
L 2766 0 
L 2766 531 
Q 2569 213 2275 61 
Q 1981 -91 1556 -91 
Q 1019 -91 701 211 
Q 384 513 384 1019 
Q 384 1609 779 1909 
Q 1175 2209 1959 2209 
L 2766 2209 
L 2766 2266 
Q 2766 2663 2505 2880 
Q 2244 3097 1772 3097 
Q 1472 3097 1187 3025 
Q 903 2953 641 2809 
L 641 3341 
Q 956 3463 1253 3523 
Q 1550 3584 1831 3584 
Q 2591 3584 2966 3190 
Q 3341 2797 3341 1997 
z
" transform="scale(0.015625)"/>
      <path id="DejaVuSans-49" d="M 628 4666 
L 1259 4666 
L 1259 0 
L 628 0 
L 628 4666 
z
" transform="scale(0.015625)"/>
     </defs>
     <use xlink:href="#DejaVuSans-43" transform="translate(0 0.515625)"/>
     <use xlink:href="#DejaVuSans-6f" transform="translate(69.824219 0.515625)"/>
     <use xlink:href="#DejaVuSans-6e" transform="translate(131.005859 0.515625)"/>
     <use xlink:href="#DejaVuSans-76" transform="translate(194.384766 0.515625)"/>
     <use xlink:href="#DejaVuSans-65" transform="translate(253.564453 0.515625)"/>
     <use xlink:href="#DejaVuSans-72" transform="translate(315.087891 0.515625)"/>
     <use xlink:href="#DejaVuSans-67" transform="translate(356.201172 0.515625)"/>
     <use xlink:href="#DejaVuSans-65" transform="translate(419.677734 0.515625)"/>
     <use xlink:href="#DejaVuSans-6e" transform="translate(481.201172 0.515625)"/>
     <use xlink:href="#DejaVuSans-63" transform="translate(544.580078 0.515625)"/>
     <use xlink:href="#DejaVuSans-65" transform="translate(599.560547 0.515625)"/>
     <use xlink:href="#DejaVuSans-20" transform="translate(661.083984 0.515625)"/>
     <use xlink:href="#DejaVuSans-6f" transform="translate(692.871094 0.515625)"/>
     <use xlink:href="#DejaVuSans-66" transform="translate(754.052734 0.515625)"/>
     <use xlink:href="#DejaVuSans-20" transform="translate(789.257812 0.515625)"/>
     <use xlink:href="#DejaVuSans-300" transform="translate(885.586914 13.015625)"/>
     <use xlink:href="#DejaVuSans-63" transform="translate(821.044922 0.515625)"/>
     <use xlink:href="#DejaVuSans-Oblique-54" transform="translate(876.982422 -15.890625) scale(0.7)"/>
     <use xlink:href="#DejaVuSans-2212" transform="translate(933.378906 -15.890625) scale(0.7)"/>
     <use xlink:href="#DejaVuSans-Oblique-6e" transform="translate(1005.668945 -15.890625) scale(0.7)"/>
     <use xlink:href="#DejaVuSans-28" transform="translate(1052.768555 0.515625)"/>
     <use xlink:href="#DejaVuSans-Oblique-6d" transform="translate(1091.782227 0.515625)"/>
     <use xlink:href="#DejaVuSans-29" transform="translate(1189.194336 0.515625)"/>
     <use xlink:href="#DejaVuSans-20" transform="translate(1228.208008 0.515625)"/>
     <use xlink:href="#DejaVuSans-46" transform="translate(1259.995117 0.515625)"/>
     <use xlink:href="#DejaVuSans-75" transform="translate(1317.514648 0.515625)"/>
     <use xlink:href="#DejaVuSans-6e" transform="translate(1380.893555 0.515625)"/>
     <use xlink:href="#DejaVuSans-63" transform="translate(1444.272461 0.515625)"/>
     <use xlink:href="#DejaVuSans-74" transform="translate(1499.25293 0.515625)"/>
     <use xlink:href="#DejaVuSans-69" transform="translate(1538.461914 0.515625)"/>
     <use xlink:href="#DejaVuSans-6f" transform="translate(1566.245117 0.515625)"/>
     <use xlink:href="#DejaVuSans-6e" transform="translate(1627.426758 0.515625)"/>
     <use xlink:href="#DejaVuSans-73" transform="translate(1690.805664 0.515625)"/>
     <use xlink:href="#DejaVuSans-20" transform="translate(1742.905273 0.515625)"/>
     <use xlink:href="#DejaVuSans-61" transform="translate(1774.692383 0.515625)"/>
     <use xlink:href="#DejaVuSans-73" transform="translate(1835.97168 0.515625)"/>
     <use xlink:href="#DejaVuSans-20" transform="translate(1888.071289 0.515625)"/>
     <use xlink:href="#DejaVuSans-Oblique-6e" transform="translate(1919.858398 0.515625)"/>
     <use xlink:href="#DejaVuSans-20" transform="translate(1983.237305 0.515625)"/>
     <use xlink:href="#DejaVuSans-49" transform="translate(2015.024414 0.515625)"/>
     <use xlink:href="#DejaVuSans-6e" transform="translate(2044.516602 0.515625)"/>
     <use xlink:href="#DejaVuSans-63" transform="translate(2107.895508 0.515625)"/>
     <use xlink:href="#DejaVuSans-72" transform="translate(2162.875977 0.515625)"/>
     <use xlink:href="#DejaVuSans-65" transform="translate(2203.989258 0.515625)"/>
     <use xlink:href="#DejaVuSans-61" transform="translate(2265.512695 0.515625)"/>
     <use xlink:href="#DejaVuSans-73" transform="translate(2326.791992 0.515625)"/>
     <use xlink:href="#DejaVuSans-65" transform="translate(2378.891602 0.515625)"/>
     <use xlink:href="#DejaVuSans-73" transform="translate(2440.415039 0.515625)"/>
    </g>
   </g>
  </g>
 </g>
 <defs>
  <clipPath id="p5bee575ef2">
   <rect x="57.6" y="41.472" width="357.12" height="266.112"/>
  </clipPath>
 </defs>
</svg>
