<?xml version="1.0" encoding="utf-8" standalone="no"?>
<!DOCTYPE svg PUBLIC "-//W3C//DTD SVG 1.1//EN"
  "http://www.w3.org/Graphics/SVG/1.1/DTD/svg11.dtd">
<svg xmlns:xlink="http://www.w3.org/1999/xlink" width="460.8pt" height="345.6pt" viewBox="0 0 460.8 345.6" xmlns="http://www.w3.org/2000/svg" version="1.1">
 <defs>
  <style type="text/css">*{stroke-linejoin: round; stroke-linecap: butt}</style>
 </defs>
 <g id="figure_1">
  <g id="patch_1">
   <path d="M 0 345.6 
L 460.8 345.6 
L 460.8 0 
L 0 0 
z
" style="fill: #ffffff"/>
  </g>
  <g id="axes_1">
   <g id="patch_2">
    <path d="M 57.6 307.584 
L 414.72 307.584 
L 414.72 41.472 
L 57.6 41.472 
z
" style="fill: #ffffff"/>
   </g>
   <g id="matplotlib.axis_1">
    <g id="xtick_1">
     <g id="line2d_1">
      <defs>
       <path id="me26d6ca34a" d="M 0 0 
L 0 3.5 
" style="stroke: #000000; stroke-width: 0.8"/>
      </defs>
      <g>
       <use xlink:href="#me26d6ca34a" x="57.6" y="307.584" style="stroke: #000000; stroke-width: 0.8"/>
      </g>
     </g>
     <g id="text_1">
      <!-- 0.0 -->
      <g transform="translate(49.648438 322.182437) scale(0.1 -0.1)">
       <defs>
        <path id="DejaVuSans-30" d="M 2034 4250 
Q 1547 4250 1301 3770 
Q 1056 3291 1056 2328 
Q 1056 1369 1301 889 
Q 1547 409 2034 409 
Q 2525 409 2770 889 
Q 3016 1369 3016 2328 
Q 3016 3291 2770 3770 
Q 2525 4250 2034 4250 
z
M 2034 4750 
Q 2819 4750 3233 4129 
Q 3647 3509 3647 2328 
Q 3647 1150 3233 529 
Q 2819 -91 2034 -91 
Q 1250 -91 836 529 
Q 422 1150 422 2328 
Q 422 3509 836 4129 
Q 1250 4750 2034 4750 
z
" transform="scale(0.015625)"/>
        <path id="DejaVuSans-2e" d="M 684 794 
L 1344 794 
L 1344 0 
L 684 0 
L 684 794 
z
" transform="scale(0.015625)"/>
       </defs>
       <use xlink:href="#DejaVuSans-30"/>
       <use xlink:href="#DejaVuSans-2e" transform="translate(63.623047 0)"/>
       <use xlink:href="#DejaVuSans-30" transform="translate(95.410156 0)"/>
      </g>
     </g>
    </g>
    <g id="xtick_2">
     <g id="line2d_2">
      <g>
       <use xlink:href="#me26d6ca34a" x="102.24" y="307.584" style="stroke: #000000; stroke-width: 0.8"/>
      </g>
     </g>
     <g id="text_2">
      <!-- 0.5 -->
      <g transform="translate(94.288438 322.182437) scale(0.1 -0.1)">
       <defs>
        <path id="DejaVuSans-35" d="M 691 4666 
L 3169 4666 
L 3169 4134 
L 1269 4134 
L 1269 2991 
Q 1406 3038 1543 3061 
Q 1681 3084 1819 3084 
Q 2600 3084 3056 2656 
Q 3513 2228 3513 1497 
Q 3513 744 3044 326 
Q 2575 -91 1722 -91 
Q 1428 -91 1123 -41 
Q 819 9 494 109 
L 494 744 
Q 775 591 1075 516 
Q 1375 441 1709 441 
Q 2250 441 2565 725 
Q 2881 1009 2881 1497 
Q 2881 1984 2565 2268 
Q 2250 2553 1709 2553 
Q 1456 2553 1204 2497 
Q 953 2441 691 2322 
L 691 4666 
z
" transform="scale(0.015625)"/>
       </defs>
       <use xlink:href="#DejaVuSans-30"/>
       <use xlink:href="#DejaVuSans-2e" transform="translate(63.623047 0)"/>
       <use xlink:href="#DejaVuSans-35" transform="translate(95.410156 0)"/>
      </g>
     </g>
    </g>
    <g id="xtick_3">
     <g id="line2d_3">
      <g>
       <use xlink:href="#me26d6ca34a" x="146.88" y="307.584" style="stroke: #000000; stroke-width: 0.8"/>
      </g>
     </g>
     <g id="text_3">
      <!-- 1.0 -->
      <g transform="translate(138.928438 322.182437) scale(0.1 -0.1)">
       <defs>
        <path id="DejaVuSans-31" d="M 794 531 
L 1825 531 
L 1825 4091 
L 703 3866 
L 703 4441 
L 1819 4666 
L 2450 4666 
L 2450 531 
L 3481 531 
L 3481 0 
L 794 0 
L 794 531 
z
" transform="scale(0.015625)"/>
       </defs>
       <use xlink:href="#DejaVuSans-31"/>
       <use xlink:href="#DejaVuSans-2e" transform="translate(63.623047 0)"/>
       <use xlink:href="#DejaVuSans-30" transform="translate(95.410156 0)"/>
      </g>
     </g>
    </g>
    <g id="xtick_4">
     <g id="line2d_4">
      <g>
       <use xlink:href="#me26d6ca34a" x="191.52" y="307.584" style="stroke: #000000; stroke-width: 0.8"/>
      </g>
     </g>
     <g id="text_4">
      <!-- 1.5 -->
      <g transform="translate(183.568438 322.182437) scale(0.1 -0.1)">
       <use xlink:href="#DejaVuSans-31"/>
       <use xlink:href="#DejaVuSans-2e" transform="translate(63.623047 0)"/>
       <use xlink:href="#DejaVuSans-35" transform="translate(95.410156 0)"/>
      </g>
     </g>
    </g>
    <g id="xtick_5">
     <g id="line2d_5">
      <g>
       <use xlink:href="#me26d6ca34a" x="236.16" y="307.584" style="stroke: #000000; stroke-width: 0.8"/>
      </g>
     </g>
     <g id="text_5">
      <!-- 2.0 -->
      <g transform="translate(228.208438 322.182437) scale(0.1 -0.1)">
       <defs>
        <path id="DejaVuSans-32" d="M 1228 531 
L 3431 531 
L 3431 0 
L 469 0 
L 469 531 
Q 828 903 1448 1529 
Q 2069 2156 2228 2338 
Q 2531 2678 2651 2914 
Q 2772 3150 2772 3378 
Q 2772 3750 2511 3984 
Q 2250 4219 1831 4219 
Q 1534 4219 1204 4116 
Q 875 4013 500 3803 
L 500 4441 
Q 881 4594 1212 4672 
Q 1544 4750 1819 4750 
Q 2544 4750 2975 4387 
Q 3406 4025 3406 3419 
Q 3406 3131 3298 2873 
Q 3191 2616 2906 2266 
Q 2828 2175 2409 1742 
Q 1991 1309 1228 531 
z
" transform="scale(0.015625)"/>
       </defs>
       <use xlink:href="#DejaVuSans-32"/>
       <use xlink:href="#DejaVuSans-2e" transform="translate(63.623047 0)"/>
       <use xlink:href="#DejaVuSans-30" transform="translate(95.410156 0)"/>
      </g>
     </g>
    </g>
    <g id="xtick_6">
     <g id="line2d_6">
      <g>
       <use xlink:href="#me26d6ca34a" x="280.8" y="307.584" style="stroke: #000000; stroke-width: 0.8"/>
      </g>
     </g>
     <g id="text_6">
      <!-- 2.5 -->
      <g transform="translate(272.848437 322.182437) scale(0.1 -0.1)">
       <use xlink:href="#DejaVuSans-32"/>
       <use xlink:href="#DejaVuSans-2e" transform="translate(63.623047 0)"/>
       <use xlink:href="#DejaVuSans-35" transform="translate(95.410156 0)"/>
      </g>
     </g>
    </g>
    <g id="xtick_7">
     <g id="line2d_7">
      <g>
       <use xlink:href="#me26d6ca34a" x="325.44" y="307.584" style="stroke: #000000; stroke-width: 0.8"/>
      </g>
     </g>
     <g id="text_7">
      <!-- 3.0 -->
      <g transform="translate(317.488438 322.182437) scale(0.1 -0.1)">
       <defs>
        <path id="DejaVuSans-33" d="M 2597 2516 
Q 3050 2419 3304 2112 
Q 3559 1806 3559 1356 
Q 3559 666 3084 287 
Q 2609 -91 1734 -91 
Q 1441 -91 1130 -33 
Q 819 25 488 141 
L 488 750 
Q 750 597 1062 519 
Q 1375 441 1716 441 
Q 2309 441 2620 675 
Q 2931 909 2931 1356 
Q 2931 1769 2642 2001 
Q 2353 2234 1838 2234 
L 1294 2234 
L 1294 2753 
L 1863 2753 
Q 2328 2753 2575 2939 
Q 2822 3125 2822 3475 
Q 2822 3834 2567 4026 
Q 2313 4219 1838 4219 
Q 1578 4219 1281 4162 
Q 984 4106 628 3988 
L 628 4550 
Q 988 4650 1302 4700 
Q 1616 4750 1894 4750 
Q 2613 4750 3031 4423 
Q 3450 4097 3450 3541 
Q 3450 3153 3228 2886 
Q 3006 2619 2597 2516 
z
" transform="scale(0.015625)"/>
       </defs>
       <use xlink:href="#DejaVuSans-33"/>
       <use xlink:href="#DejaVuSans-2e" transform="translate(63.623047 0)"/>
       <use xlink:href="#DejaVuSans-30" transform="translate(95.410156 0)"/>
      </g>
     </g>
    </g>
    <g id="xtick_8">
     <g id="line2d_8">
      <g>
       <use xlink:href="#me26d6ca34a" x="370.08" y="307.584" style="stroke: #000000; stroke-width: 0.8"/>
      </g>
     </g>
     <g id="text_8">
      <!-- 3.5 -->
      <g transform="translate(362.128438 322.182437) scale(0.1 -0.1)">
       <use xlink:href="#DejaVuSans-33"/>
       <use xlink:href="#DejaVuSans-2e" transform="translate(63.623047 0)"/>
       <use xlink:href="#DejaVuSans-35" transform="translate(95.410156 0)"/>
      </g>
     </g>
    </g>
    <g id="xtick_9">
     <g id="line2d_9">
      <g>
       <use xlink:href="#me26d6ca34a" x="414.72" y="307.584" style="stroke: #000000; stroke-width: 0.8"/>
      </g>
     </g>
     <g id="text_9">
      <!-- 4.0 -->
      <g transform="translate(406.768438 322.182437) scale(0.1 -0.1)">
       <defs>
        <path id="DejaVuSans-34" d="M 2419 4116 
L 825 1625 
L 2419 1625 
L 2419 4116 
z
M 2253 4666 
L 3047 4666 
L 3047 1625 
L 3713 1625 
L 3713 1100 
L 3047 1100 
L 3047 0 
L 2419 0 
L 2419 1100 
L 313 1100 
L 313 1709 
L 2253 4666 
z
" transform="scale(0.015625)"/>
       </defs>
       <use xlink:href="#DejaVuSans-34"/>
       <use xlink:href="#DejaVuSans-2e" transform="translate(63.623047 0)"/>
       <use xlink:href="#DejaVuSans-30" transform="translate(95.410156 0)"/>
      </g>
     </g>
    </g>
    <g id="text_10">
     <!-- $c_{T-1}$ -->
     <g transform="translate(224.61 335.860562) scale(0.1 -0.1)">
      <defs>
       <path id="DejaVuSans-Oblique-63" d="M 3431 3366 
L 3316 2797 
Q 3109 2947 2876 3022 
Q 2644 3097 2394 3097 
Q 2119 3097 1870 3000 
Q 1622 2903 1453 2725 
Q 1184 2453 1037 2087 
Q 891 1722 891 1331 
Q 891 859 1127 628 
Q 1363 397 1844 397 
Q 2081 397 2348 469 
Q 2616 541 2906 684 
L 2797 116 
Q 2547 13 2283 -39 
Q 2019 -91 1741 -91 
Q 1044 -91 669 257 
Q 294 606 294 1253 
Q 294 1797 489 2255 
Q 684 2713 1069 3078 
Q 1331 3328 1684 3456 
Q 2038 3584 2456 3584 
Q 2700 3584 2940 3529 
Q 3181 3475 3431 3366 
z
" transform="scale(0.015625)"/>
       <path id="DejaVuSans-Oblique-54" d="M 378 4666 
L 4325 4666 
L 4225 4134 
L 2559 4134 
L 1759 0 
L 1125 0 
L 1925 4134 
L 275 4134 
L 378 4666 
z
" transform="scale(0.015625)"/>
       <path id="DejaVuSans-2212" d="M 678 2272 
L 4684 2272 
L 4684 1741 
L 678 1741 
L 678 2272 
z
" transform="scale(0.015625)"/>
      </defs>
      <use xlink:href="#DejaVuSans-Oblique-63"/>
      <use xlink:href="#DejaVuSans-Oblique-54" transform="translate(54.980469 -16.40625) scale(0.7)"/>
      <use xlink:href="#DejaVuSans-2212" transform="translate(111.376953 -16.40625) scale(0.7)"/>
      <use xlink:href="#DejaVuSans-31" transform="translate(183.666992 -16.40625) scale(0.7)"/>
     </g>
    </g>
   </g>
   <g id="matplotlib.axis_2">
    <g id="ytick_1">
     <g id="line2d_10">
      <defs>
       <path id="mb782295e09" d="M 0 0 
L -3.5 0 
" style="stroke: #000000; stroke-width: 0.8"/>
      </defs>
      <g>
       <use xlink:href="#mb782295e09" x="57.6" y="307.584" style="stroke: #000000; stroke-width: 0.8"/>
      </g>
     </g>
     <g id="text_11">
      <!-- 0.0 -->
      <g transform="translate(34.696875 311.383219) scale(0.1 -0.1)">
       <use xlink:href="#DejaVuSans-30"/>
       <use xlink:href="#DejaVuSans-2e" transform="translate(63.623047 0)"/>
       <use xlink:href="#DejaVuSans-30" transform="translate(95.410156 0)"/>
      </g>
     </g>
    </g>
    <g id="ytick_2">
     <g id="line2d_11">
      <g>
       <use xlink:href="#mb782295e09" x="57.6" y="274.32" style="stroke: #000000; stroke-width: 0.8"/>
      </g>
     </g>
     <g id="text_12">
      <!-- 0.1 -->
      <g transform="translate(34.696875 278.119219) scale(0.1 -0.1)">
       <use xlink:href="#DejaVuSans-30"/>
       <use xlink:href="#DejaVuSans-2e" transform="translate(63.623047 0)"/>
       <use xlink:href="#DejaVuSans-31" transform="translate(95.410156 0)"/>
      </g>
     </g>
    </g>
    <g id="ytick_3">
     <g id="line2d_12">
      <g>
       <use xlink:href="#mb782295e09" x="57.6" y="241.056" style="stroke: #000000; stroke-width: 0.8"/>
      </g>
     </g>
     <g id="text_13">
      <!-- 0.2 -->
      <g transform="translate(34.696875 244.855219) scale(0.1 -0.1)">
       <use xlink:href="#DejaVuSans-30"/>
       <use xlink:href="#DejaVuSans-2e" transform="translate(63.623047 0)"/>
       <use xlink:href="#DejaVuSans-32" transform="translate(95.410156 0)"/>
      </g>
     </g>
    </g>
    <g id="ytick_4">
     <g id="line2d_13">
      <g>
       <use xlink:href="#mb782295e09" x="57.6" y="207.792" style="stroke: #000000; stroke-width: 0.8"/>
      </g>
     </g>
     <g id="text_14">
      <!-- 0.3 -->
      <g transform="translate(34.696875 211.591219) scale(0.1 -0.1)">
       <use xlink:href="#DejaVuSans-30"/>
       <use xlink:href="#DejaVuSans-2e" transform="translate(63.623047 0)"/>
       <use xlink:href="#DejaVuSans-33" transform="translate(95.410156 0)"/>
      </g>
     </g>
    </g>
    <g id="ytick_5">
     <g id="line2d_14">
      <g>
       <use xlink:href="#mb782295e09" x="57.6" y="174.528" style="stroke: #000000; stroke-width: 0.8"/>
      </g>
     </g>
     <g id="text_15">
      <!-- 0.4 -->
      <g transform="translate(34.696875 178.327219) scale(0.1 -0.1)">
       <use xlink:href="#DejaVuSans-30"/>
       <use xlink:href="#DejaVuSans-2e" transform="translate(63.623047 0)"/>
       <use xlink:href="#DejaVuSans-34" transform="translate(95.410156 0)"/>
      </g>
     </g>
    </g>
    <g id="ytick_6">
     <g id="line2d_15">
      <g>
       <use xlink:href="#mb782295e09" x="57.6" y="141.264" style="stroke: #000000; stroke-width: 0.8"/>
      </g>
     </g>
     <g id="text_16">
      <!-- 0.5 -->
      <g transform="translate(34.696875 145.063219) scale(0.1 -0.1)">
       <use xlink:href="#DejaVuSans-30"/>
       <use xlink:href="#DejaVuSans-2e" transform="translate(63.623047 0)"/>
       <use xlink:href="#DejaVuSans-35" transform="translate(95.410156 0)"/>
      </g>
     </g>
    </g>
    <g id="ytick_7">
     <g id="line2d_16">
      <g>
       <use xlink:href="#mb782295e09" x="57.6" y="108" style="stroke: #000000; stroke-width: 0.8"/>
      </g>
     </g>
     <g id="text_17">
      <!-- 0.6 -->
      <g transform="translate(34.696875 111.799219) scale(0.1 -0.1)">
       <defs>
        <path id="DejaVuSans-36" d="M 2113 2584 
Q 1688 2584 1439 2293 
Q 1191 2003 1191 1497 
Q 1191 994 1439 701 
Q 1688 409 2113 409 
Q 2538 409 2786 701 
Q 3034 994 3034 1497 
Q 3034 2003 2786 2293 
Q 2538 2584 2113 2584 
z
M 3366 4563 
L 3366 3988 
Q 3128 4100 2886 4159 
Q 2644 4219 2406 4219 
Q 1781 4219 1451 3797 
Q 1122 3375 1075 2522 
Q 1259 2794 1537 2939 
Q 1816 3084 2150 3084 
Q 2853 3084 3261 2657 
Q 3669 2231 3669 1497 
Q 3669 778 3244 343 
Q 2819 -91 2113 -91 
Q 1303 -91 875 529 
Q 447 1150 447 2328 
Q 447 3434 972 4092 
Q 1497 4750 2381 4750 
Q 2619 4750 2861 4703 
Q 3103 4656 3366 4563 
z
" transform="scale(0.015625)"/>
       </defs>
       <use xlink:href="#DejaVuSans-30"/>
       <use xlink:href="#DejaVuSans-2e" transform="translate(63.623047 0)"/>
       <use xlink:href="#DejaVuSans-36" transform="translate(95.410156 0)"/>
      </g>
     </g>
    </g>
    <g id="ytick_8">
     <g id="line2d_17">
      <g>
       <use xlink:href="#mb782295e09" x="57.6" y="74.736" style="stroke: #000000; stroke-width: 0.8"/>
      </g>
     </g>
     <g id="text_18">
      <!-- 0.7 -->
      <g transform="translate(34.696875 78.535219) scale(0.1 -0.1)">
       <defs>
        <path id="DejaVuSans-37" d="M 525 4666 
L 3525 4666 
L 3525 4397 
L 1831 0 
L 1172 0 
L 2766 4134 
L 525 4134 
L 525 4666 
z
" transform="scale(0.015625)"/>
       </defs>
       <use xlink:href="#DejaVuSans-30"/>
       <use xlink:href="#DejaVuSans-2e" transform="translate(63.623047 0)"/>
       <use xlink:href="#DejaVuSans-37" transform="translate(95.410156 0)"/>
      </g>
     </g>
    </g>
    <g id="ytick_9">
     <g id="line2d_18">
      <g>
       <use xlink:href="#mb782295e09" x="57.6" y="41.472" style="stroke: #000000; stroke-width: 0.8"/>
      </g>
     </g>
     <g id="text_19">
      <!-- 0.8 -->
      <g transform="translate(34.696875 45.271219) scale(0.1 -0.1)">
       <defs>
        <path id="DejaVuSans-38" d="M 2034 2216 
Q 1584 2216 1326 1975 
Q 1069 1734 1069 1313 
Q 1069 891 1326 650 
Q 1584 409 2034 409 
Q 2484 409 2743 651 
Q 3003 894 3003 1313 
Q 3003 1734 2745 1975 
Q 2488 2216 2034 2216 
z
M 1403 2484 
Q 997 2584 770 2862 
Q 544 3141 544 3541 
Q 544 4100 942 4425 
Q 1341 4750 2034 4750 
Q 2731 4750 3128 4425 
Q 3525 4100 3525 3541 
Q 3525 3141 3298 2862 
Q 3072 2584 2669 2484 
Q 3125 2378 3379 2068 
Q 3634 1759 3634 1313 
Q 3634 634 3220 271 
Q 2806 -91 2034 -91 
Q 1263 -91 848 271 
Q 434 634 434 1313 
Q 434 1759 690 2068 
Q 947 2378 1403 2484 
z
M 1172 3481 
Q 1172 3119 1398 2916 
Q 1625 2713 2034 2713 
Q 2441 2713 2670 2916 
Q 2900 3119 2900 3481 
Q 2900 3844 2670 4047 
Q 2441 4250 2034 4250 
Q 1625 4250 1398 4047 
Q 1172 3844 1172 3481 
z
" transform="scale(0.015625)"/>
       </defs>
       <use xlink:href="#DejaVuSans-30"/>
       <use xlink:href="#DejaVuSans-2e" transform="translate(63.623047 0)"/>
       <use xlink:href="#DejaVuSans-38" transform="translate(95.410156 0)"/>
      </g>
     </g>
    </g>
    <g id="text_20">
     <!-- $v'_{\succ,T-1}(m_{T-1} - c_{T-1}),\; u'(c_{T-1})$ -->
     <g transform="translate(28.196875 252.878) rotate(-90) scale(0.1 -0.1)">
      <defs>
       <path id="DejaVuSans-Oblique-76" d="M 459 3500 
L 1069 3500 
L 1581 525 
L 3256 3500 
L 3866 3500 
L 1875 0 
L 1100 0 
L 459 3500 
z
" transform="scale(0.015625)"/>
       <path id="Cmsy10-30" d="M 225 347 
Q 184 359 184 409 
L 966 3316 
Q 1003 3434 1093 3506 
Q 1184 3578 1300 3578 
Q 1450 3578 1564 3479 
Q 1678 3381 1678 3231 
Q 1678 3166 1644 3084 
L 488 319 
Q 466 275 428 275 
Q 394 275 320 306 
Q 247 338 225 347 
z
" transform="scale(0.015625)"/>
       <path id="DejaVuSans-227b" d="M 678 3503 
L 678 4250 
Q 1925 2650 4684 2263 
L 4684 1744 
Q 1931 1356 678 -244 
L 678 503 
Q 1934 1709 3563 2003 
Q 1922 2306 678 3503 
z
" transform="scale(0.015625)"/>
       <path id="DejaVuSans-2c" d="M 750 794 
L 1409 794 
L 1409 256 
L 897 -744 
L 494 -744 
L 750 256 
L 750 794 
z
" transform="scale(0.015625)"/>
       <path id="DejaVuSans-28" d="M 1984 4856 
Q 1566 4138 1362 3434 
Q 1159 2731 1159 2009 
Q 1159 1288 1364 580 
Q 1569 -128 1984 -844 
L 1484 -844 
Q 1016 -109 783 600 
Q 550 1309 550 2009 
Q 550 2706 781 3412 
Q 1013 4119 1484 4856 
L 1984 4856 
z
" transform="scale(0.015625)"/>
       <path id="DejaVuSans-Oblique-6d" d="M 5747 2113 
L 5338 0 
L 4763 0 
L 5166 2094 
Q 5191 2228 5203 2325 
Q 5216 2422 5216 2491 
Q 5216 2772 5059 2928 
Q 4903 3084 4622 3084 
Q 4203 3084 3875 2770 
Q 3547 2456 3450 1953 
L 3066 0 
L 2491 0 
L 2900 2094 
Q 2925 2209 2937 2307 
Q 2950 2406 2950 2484 
Q 2950 2769 2794 2926 
Q 2638 3084 2363 3084 
Q 1938 3084 1609 2770 
Q 1281 2456 1184 1953 
L 800 0 
L 225 0 
L 909 3500 
L 1484 3500 
L 1375 2956 
Q 1609 3263 1923 3423 
Q 2238 3584 2597 3584 
Q 2978 3584 3223 3384 
Q 3469 3184 3519 2828 
Q 3781 3197 4126 3390 
Q 4472 3584 4856 3584 
Q 5306 3584 5551 3325 
Q 5797 3066 5797 2591 
Q 5797 2488 5784 2364 
Q 5772 2241 5747 2113 
z
" transform="scale(0.015625)"/>
       <path id="DejaVuSans-29" d="M 513 4856 
L 1013 4856 
Q 1481 4119 1714 3412 
Q 1947 2706 1947 2009 
Q 1947 1309 1714 600 
Q 1481 -109 1013 -844 
L 513 -844 
Q 928 -128 1133 580 
Q 1338 1288 1338 2009 
Q 1338 2731 1133 3434 
Q 928 4138 513 4856 
z
" transform="scale(0.015625)"/>
       <path id="DejaVuSans-Oblique-75" d="M 428 1388 
L 838 3500 
L 1416 3500 
L 1006 1409 
Q 975 1256 961 1147 
Q 947 1038 947 966 
Q 947 700 1109 554 
Q 1272 409 1569 409 
Q 2031 409 2368 721 
Q 2706 1034 2809 1563 
L 3194 3500 
L 3769 3500 
L 3091 0 
L 2516 0 
L 2631 550 
Q 2388 244 2052 76 
Q 1716 -91 1338 -91 
Q 878 -91 622 161 
Q 366 413 366 863 
Q 366 956 381 1097 
Q 397 1238 428 1388 
z
" transform="scale(0.015625)"/>
      </defs>
      <use xlink:href="#DejaVuSans-Oblique-76" transform="translate(0 0.584375)"/>
      <use xlink:href="#Cmsy10-30" transform="translate(63.645833 38.865625) scale(0.7)"/>
      <use xlink:href="#DejaVuSans-227b" transform="translate(100.218099 -15.821875) scale(0.7)"/>
      <use xlink:href="#DejaVuSans-2c" transform="translate(172.508138 -15.821875) scale(0.7)"/>
      <use xlink:href="#DejaVuSans-Oblique-54" transform="translate(208.39681 -15.821875) scale(0.7)"/>
      <use xlink:href="#DejaVuSans-2212" transform="translate(264.793294 -15.821875) scale(0.7)"/>
      <use xlink:href="#DejaVuSans-31" transform="translate(337.083333 -15.821875) scale(0.7)"/>
      <use xlink:href="#DejaVuSans-28" transform="translate(384.353841 0.584375)"/>
      <use xlink:href="#DejaVuSans-Oblique-6d" transform="translate(423.367513 0.584375)"/>
      <use xlink:href="#DejaVuSans-Oblique-54" transform="translate(520.779622 -15.821875) scale(0.7)"/>
      <use xlink:href="#DejaVuSans-2212" transform="translate(577.176107 -15.821875) scale(0.7)"/>
      <use xlink:href="#DejaVuSans-31" transform="translate(649.466146 -15.821875) scale(0.7)"/>
      <use xlink:href="#DejaVuSans-2212" transform="translate(716.219076 0.584375)"/>
      <use xlink:href="#DejaVuSans-Oblique-63" transform="translate(819.49056 0.584375)"/>
      <use xlink:href="#DejaVuSans-Oblique-54" transform="translate(874.471029 -15.821875) scale(0.7)"/>
      <use xlink:href="#DejaVuSans-2212" transform="translate(930.867513 -15.821875) scale(0.7)"/>
      <use xlink:href="#DejaVuSans-31" transform="translate(1003.157552 -15.821875) scale(0.7)"/>
      <use xlink:href="#DejaVuSans-29" transform="translate(1050.42806 0.584375)"/>
      <use xlink:href="#DejaVuSans-2c" transform="translate(1089.441732 0.584375)"/>
      <use xlink:href="#DejaVuSans-Oblique-75" transform="translate(1167.770399 0.584375)"/>
      <use xlink:href="#Cmsy10-30" transform="translate(1235.615451 38.865625) scale(0.7)"/>
      <use xlink:href="#DejaVuSans-28" transform="translate(1257.59299 0.584375)"/>
      <use xlink:href="#DejaVuSans-Oblique-63" transform="translate(1296.606662 0.584375)"/>
      <use xlink:href="#DejaVuSans-Oblique-54" transform="translate(1351.587131 -15.821875) scale(0.7)"/>
      <use xlink:href="#DejaVuSans-2212" transform="translate(1407.983615 -15.821875) scale(0.7)"/>
      <use xlink:href="#DejaVuSans-31" transform="translate(1480.273654 -15.821875) scale(0.7)"/>
      <use xlink:href="#DejaVuSans-29" transform="translate(1527.544162 0.584375)"/>
     </g>
    </g>
   </g>
   <g id="line2d_19">
    <path d="M 150.295016 -1 
L 153.052665 16.574802 
L 155.843784 32.875134 
L 158.634902 47.843311 
L 161.42602 61.620637 
L 164.217138 74.330165 
L 167.008257 86.079456 
L 169.799375 96.962859 
L 172.590493 107.063415 
L 175.381611 116.454443 
L 178.172729 125.200876 
L 181.661627 135.3147 
L 185.150525 144.609997 
L 188.639423 153.172767 
L 192.128321 161.078006 
L 195.617218 168.391353 
L 199.106116 175.170455 
L 202.595014 181.466109 
L 206.083912 187.323215 
L 209.57281 192.781578 
L 213.061707 197.876588 
L 217.248385 203.555155 
L 221.435062 208.803974 
L 225.621739 213.665341 
L 229.808417 218.176472 
L 233.995094 222.37022 
L 238.181772 226.275675 
L 243.066228 230.501968 
L 247.950685 234.40711 
L 252.835142 238.022835 
L 257.719599 241.377049 
L 263.301836 244.921676 
L 268.884072 248.189078 
L 274.466309 251.207429 
L 280.746325 254.335993 
L 287.026341 257.211178 
L 294.004136 260.14094 
L 300.981932 262.822342 
L 308.657507 265.517497 
L 316.333082 267.976365 
L 324.706437 270.420712 
L 333.777571 272.821898 
L 342.848705 274.997669 
L 352.617619 277.12 
L 363.084313 279.17179 
L 374.248786 281.139998 
L 386.808818 283.119299 
L 400.066629 284.976824 
L 414.72 286.794 
L 414.72 286.794 
" clip-path="url(#pba885d3b58)" style="fill: none; stroke: #000000; stroke-width: 2.5; stroke-linecap: square"/>
   </g>
   <g id="line2d_20">
    <path d="M 66.528 283.711834 
L 78.296727 281.780801 
L 89.373176 279.735913 
L 99.757348 277.584259 
L 109.449241 275.337077 
L 118.448856 273.010395 
L 126.756193 270.625602 
L 134.371251 268.209841 
L 141.294032 265.796165 
L 148.216813 263.146937 
L 154.447316 260.534593 
L 160.677818 257.677689 
L 166.216043 254.906971 
L 171.754267 251.891323 
L 177.292492 248.600287 
L 182.138439 245.467005 
L 186.984385 242.068367 
L 191.830332 238.372743 
L 195.984 234.94111 
L 200.137668 231.238037 
L 204.291337 227.233313 
L 208.445005 222.892306 
L 212.598674 218.175158 
L 216.060064 213.923837 
L 219.521455 209.348874 
L 222.982845 204.415525 
L 226.444235 199.084136 
L 229.905626 193.309276 
L 233.367016 187.038672 
L 236.828406 180.211905 
L 239.597519 174.303282 
L 242.366631 167.952808 
L 245.135743 161.113667 
L 247.904856 153.732495 
L 250.673968 145.748222 
L 253.44308 137.090671 
L 256.212193 127.678836 
L 258.981305 117.418762 
L 261.750417 106.200918 
L 264.519529 93.896911 
L 267.288642 80.355345 
L 270.057754 65.396558 
L 272.826866 48.805864 
L 274.903701 35.138368 
L 276.980535 20.27986 
L 279.057369 4.080679 
L 279.671515 -1 
L 279.671515 -1 
" clip-path="url(#pba885d3b58)" style="fill: none; stroke: #1f77b4; stroke-width: 1.5; stroke-linecap: square"/>
   </g>
   <g id="line2d_21">
    <path d="M 66.528 276.157841 
L 146.139979 276.157841 
L 146.832257 266.249586 
L 147.524535 233.563734 
L 235.44385 233.563734 
L 236.226446 -1 
L 236.226446 -1 
" clip-path="url(#pba885d3b58)" style="fill: none; stroke-dasharray: 3.7,1.6; stroke-dashoffset: 0; stroke: #1f77b4"/>
   </g>
   <g id="line2d_22">
    <path d="M 66.528 293.171405 
L 86.065828 291.662564 
L 103.510317 290.101942 
L 119.559246 288.45019 
L 134.212617 286.724458 
L 147.470429 284.949306 
L 160.030461 283.045241 
L 171.194934 281.138846 
L 181.661627 279.137524 
L 191.430541 277.052226 
L 200.501675 274.898238 
L 208.87503 272.695654 
L 217.248385 270.256557 
L 224.92396 267.782464 
L 231.901756 265.307249 
L 238.879551 262.586815 
L 245.159567 259.900592 
L 251.439583 256.95882 
L 257.02182 254.101816 
L 262.604056 250.987897 
L 267.488513 248.027024 
L 272.37297 244.819478 
L 277.257427 241.336364 
L 282.141884 237.544341 
L 286.328561 234.019039 
L 290.515238 230.210482 
L 294.701916 226.086623 
L 298.888593 221.610652 
L 302.377491 217.581256 
L 305.866389 213.24986 
L 309.355287 208.584576 
L 312.844184 203.54909 
L 316.333082 198.10189 
L 319.82198 192.195329 
L 323.310878 185.774481 
L 326.101996 180.225104 
L 328.893114 174.268794 
L 331.684232 167.863326 
L 334.475351 160.960694 
L 337.266469 153.506123 
L 340.057587 145.436854 
L 342.848705 136.680679 
L 345.639824 127.154139 
L 348.430942 116.760297 
L 351.22206 105.385974 
L 354.013178 92.898286 
L 356.804297 79.140271 
L 359.595415 63.925305 
L 361.688754 51.425166 
L 363.782092 37.869946 
L 365.875431 23.131521 
L 367.96877 7.060977 
L 368.949986 -1 
L 368.949986 -1 
" clip-path="url(#pba885d3b58)" style="fill: none; stroke: #ff7f0e; stroke-width: 1.5; stroke-linecap: square"/>
   </g>
   <g id="line2d_23">
    <path d="M 66.528 289.955542 
L 146.772649 289.955542 
L 147.470429 276.157841 
L 235.390653 276.157841 
L 236.088433 271.932574 
L 236.786212 233.563734 
L 324.706437 233.563734 
L 325.404216 77.043642 
L 325.553043 -1 
L 325.553043 -1 
" clip-path="url(#pba885d3b58)" style="fill: none; stroke-dasharray: 3.7,1.6; stroke-dashoffset: 0; stroke: #ff7f0e"/>
   </g>
   <g id="patch_3">
    <path d="M 57.6 307.584 
L 57.6 41.472 
" style="fill: none; stroke: #000000; stroke-width: 0.8; stroke-linejoin: miter; stroke-linecap: square"/>
   </g>
   <g id="patch_4">
    <path d="M 414.72 307.584 
L 414.72 41.472 
" style="fill: none; stroke: #000000; stroke-width: 0.8; stroke-linejoin: miter; stroke-linecap: square"/>
   </g>
   <g id="patch_5">
    <path d="M 57.6 307.584 
L 414.72 307.584 
" style="fill: none; stroke: #000000; stroke-width: 0.8; stroke-linejoin: miter; stroke-linecap: square"/>
   </g>
   <g id="patch_6">
    <path d="M 57.6 41.472 
L 414.72 41.472 
" style="fill: none; stroke: #000000; stroke-width: 0.8; stroke-linejoin: miter; stroke-linecap: square"/>
   </g>
   <g id="text_21">
    <!-- $u'(c)$ vs exact $v'_{\succ}(m-c)$ and step-function $\grave{v}'_{\succ}(m-c)$ -->
    <g transform="translate(73.92 35.472) scale(0.12 -0.12)">
     <defs>
      <path id="DejaVuSans-20" transform="scale(0.015625)"/>
      <path id="DejaVuSans-76" d="M 191 3500 
L 800 3500 
L 1894 563 
L 2988 3500 
L 3597 3500 
L 2284 0 
L 1503 0 
L 191 3500 
z
" transform="scale(0.015625)"/>
      <path id="DejaVuSans-73" d="M 2834 3397 
L 2834 2853 
Q 2591 2978 2328 3040 
Q 2066 3103 1784 3103 
Q 1356 3103 1142 2972 
Q 928 2841 928 2578 
Q 928 2378 1081 2264 
Q 1234 2150 1697 2047 
L 1894 2003 
Q 2506 1872 2764 1633 
Q 3022 1394 3022 966 
Q 3022 478 2636 193 
Q 2250 -91 1575 -91 
Q 1294 -91 989 -36 
Q 684 19 347 128 
L 347 722 
Q 666 556 975 473 
Q 1284 391 1588 391 
Q 1994 391 2212 530 
Q 2431 669 2431 922 
Q 2431 1156 2273 1281 
Q 2116 1406 1581 1522 
L 1381 1569 
Q 847 1681 609 1914 
Q 372 2147 372 2553 
Q 372 3047 722 3315 
Q 1072 3584 1716 3584 
Q 2034 3584 2315 3537 
Q 2597 3491 2834 3397 
z
" transform="scale(0.015625)"/>
      <path id="DejaVuSans-65" d="M 3597 1894 
L 3597 1613 
L 953 1613 
Q 991 1019 1311 708 
Q 1631 397 2203 397 
Q 2534 397 2845 478 
Q 3156 559 3463 722 
L 3463 178 
Q 3153 47 2828 -22 
Q 2503 -91 2169 -91 
Q 1331 -91 842 396 
Q 353 884 353 1716 
Q 353 2575 817 3079 
Q 1281 3584 2069 3584 
Q 2775 3584 3186 3129 
Q 3597 2675 3597 1894 
z
M 3022 2063 
Q 3016 2534 2758 2815 
Q 2500 3097 2075 3097 
Q 1594 3097 1305 2825 
Q 1016 2553 972 2059 
L 3022 2063 
z
" transform="scale(0.015625)"/>
      <path id="DejaVuSans-78" d="M 3513 3500 
L 2247 1797 
L 3578 0 
L 2900 0 
L 1881 1375 
L 863 0 
L 184 0 
L 1544 1831 
L 300 3500 
L 978 3500 
L 1906 2253 
L 2834 3500 
L 3513 3500 
z
" transform="scale(0.015625)"/>
      <path id="DejaVuSans-61" d="M 2194 1759 
Q 1497 1759 1228 1600 
Q 959 1441 959 1056 
Q 959 750 1161 570 
Q 1363 391 1709 391 
Q 2188 391 2477 730 
Q 2766 1069 2766 1631 
L 2766 1759 
L 2194 1759 
z
M 3341 1997 
L 3341 0 
L 2766 0 
L 2766 531 
Q 2569 213 2275 61 
Q 1981 -91 1556 -91 
Q 1019 -91 701 211 
Q 384 513 384 1019 
Q 384 1609 779 1909 
Q 1175 2209 1959 2209 
L 2766 2209 
L 2766 2266 
Q 2766 2663 2505 2880 
Q 2244 3097 1772 3097 
Q 1472 3097 1187 3025 
Q 903 2953 641 2809 
L 641 3341 
Q 956 3463 1253 3523 
Q 1550 3584 1831 3584 
Q 2591 3584 2966 3190 
Q 3341 2797 3341 1997 
z
" transform="scale(0.015625)"/>
      <path id="DejaVuSans-63" d="M 3122 3366 
L 3122 2828 
Q 2878 2963 2633 3030 
Q 2388 3097 2138 3097 
Q 1578 3097 1268 2742 
Q 959 2388 959 1747 
Q 959 1106 1268 751 
Q 1578 397 2138 397 
Q 2388 397 2633 464 
Q 2878 531 3122 666 
L 3122 134 
Q 2881 22 2623 -34 
Q 2366 -91 2075 -91 
Q 1284 -91 818 406 
Q 353 903 353 1747 
Q 353 2603 823 3093 
Q 1294 3584 2113 3584 
Q 2378 3584 2631 3529 
Q 2884 3475 3122 3366 
z
" transform="scale(0.015625)"/>
      <path id="DejaVuSans-74" d="M 1172 4494 
L 1172 3500 
L 2356 3500 
L 2356 3053 
L 1172 3053 
L 1172 1153 
Q 1172 725 1289 603 
Q 1406 481 1766 481 
L 2356 481 
L 2356 0 
L 1766 0 
Q 1100 0 847 248 
Q 594 497 594 1153 
L 594 3053 
L 172 3053 
L 172 3500 
L 594 3500 
L 594 4494 
L 1172 4494 
z
" transform="scale(0.015625)"/>
      <path id="DejaVuSans-6e" d="M 3513 2113 
L 3513 0 
L 2938 0 
L 2938 2094 
Q 2938 2591 2744 2837 
Q 2550 3084 2163 3084 
Q 1697 3084 1428 2787 
Q 1159 2491 1159 1978 
L 1159 0 
L 581 0 
L 581 3500 
L 1159 3500 
L 1159 2956 
Q 1366 3272 1645 3428 
Q 1925 3584 2291 3584 
Q 2894 3584 3203 3211 
Q 3513 2838 3513 2113 
z
" transform="scale(0.015625)"/>
      <path id="DejaVuSans-64" d="M 2906 2969 
L 2906 4863 
L 3481 4863 
L 3481 0 
L 2906 0 
L 2906 525 
Q 2725 213 2448 61 
Q 2172 -91 1784 -91 
Q 1150 -91 751 415 
Q 353 922 353 1747 
Q 353 2572 751 3078 
Q 1150 3584 1784 3584 
Q 2172 3584 2448 3432 
Q 2725 3281 2906 2969 
z
M 947 1747 
Q 947 1113 1208 752 
Q 1469 391 1925 391 
Q 2381 391 2643 752 
Q 2906 1113 2906 1747 
Q 2906 2381 2643 2742 
Q 2381 3103 1925 3103 
Q 1469 3103 1208 2742 
Q 947 2381 947 1747 
z
" transform="scale(0.015625)"/>
      <path id="DejaVuSans-70" d="M 1159 525 
L 1159 -1331 
L 581 -1331 
L 581 3500 
L 1159 3500 
L 1159 2969 
Q 1341 3281 1617 3432 
Q 1894 3584 2278 3584 
Q 2916 3584 3314 3078 
Q 3713 2572 3713 1747 
Q 3713 922 3314 415 
Q 2916 -91 2278 -91 
Q 1894 -91 1617 61 
Q 1341 213 1159 525 
z
M 3116 1747 
Q 3116 2381 2855 2742 
Q 2594 3103 2138 3103 
Q 1681 3103 1420 2742 
Q 1159 2381 1159 1747 
Q 1159 1113 1420 752 
Q 1681 391 2138 391 
Q 2594 391 2855 752 
Q 3116 1113 3116 1747 
z
" transform="scale(0.015625)"/>
      <path id="DejaVuSans-2d" d="M 313 2009 
L 1997 2009 
L 1997 1497 
L 313 1497 
L 313 2009 
z
" transform="scale(0.015625)"/>
      <path id="DejaVuSans-66" d="M 2375 4863 
L 2375 4384 
L 1825 4384 
Q 1516 4384 1395 4259 
Q 1275 4134 1275 3809 
L 1275 3500 
L 2222 3500 
L 2222 3053 
L 1275 3053 
L 1275 0 
L 697 0 
L 697 3053 
L 147 3053 
L 147 3500 
L 697 3500 
L 697 3744 
Q 697 4328 969 4595 
Q 1241 4863 1831 4863 
L 2375 4863 
z
" transform="scale(0.015625)"/>
      <path id="DejaVuSans-75" d="M 544 1381 
L 544 3500 
L 1119 3500 
L 1119 1403 
Q 1119 906 1312 657 
Q 1506 409 1894 409 
Q 2359 409 2629 706 
Q 2900 1003 2900 1516 
L 2900 3500 
L 3475 3500 
L 3475 0 
L 2900 0 
L 2900 538 
Q 2691 219 2414 64 
Q 2138 -91 1772 -91 
Q 1169 -91 856 284 
Q 544 659 544 1381 
z
M 1991 3584 
L 1991 3584 
z
" transform="scale(0.015625)"/>
      <path id="DejaVuSans-69" d="M 603 3500 
L 1178 3500 
L 1178 0 
L 603 0 
L 603 3500 
z
M 603 4863 
L 1178 4863 
L 1178 4134 
L 603 4134 
L 603 4863 
z
" transform="scale(0.015625)"/>
      <path id="DejaVuSans-6f" d="M 1959 3097 
Q 1497 3097 1228 2736 
Q 959 2375 959 1747 
Q 959 1119 1226 758 
Q 1494 397 1959 397 
Q 2419 397 2687 759 
Q 2956 1122 2956 1747 
Q 2956 2369 2687 2733 
Q 2419 3097 1959 3097 
z
M 1959 3584 
Q 2709 3584 3137 3096 
Q 3566 2609 3566 1747 
Q 3566 888 3137 398 
Q 2709 -91 1959 -91 
Q 1206 -91 779 398 
Q 353 888 353 1747 
Q 353 2609 779 3096 
Q 1206 3584 1959 3584 
z
" transform="scale(0.015625)"/>
      <path id="DejaVuSans-300" d="M -2059 5119 
L -1178 3950 
L -1656 3950 
L -2675 5119 
L -2059 5119 
z
M -1600 3584 
L -1600 3584 
z
" transform="scale(0.015625)"/>
     </defs>
     <use xlink:href="#DejaVuSans-Oblique-75" transform="translate(0 0.828125)"/>
     <use xlink:href="#Cmsy10-30" transform="translate(67.845052 39.109375) scale(0.7)"/>
     <use xlink:href="#DejaVuSans-28" transform="translate(89.822591 0.828125)"/>
     <use xlink:href="#DejaVuSans-Oblique-63" transform="translate(128.836263 0.828125)"/>
     <use xlink:href="#DejaVuSans-29" transform="translate(183.816732 0.828125)"/>
     <use xlink:href="#DejaVuSans-20" transform="translate(222.830404 0.828125)"/>
     <use xlink:href="#DejaVuSans-76" transform="translate(254.617513 0.828125)"/>
     <use xlink:href="#DejaVuSans-73" transform="translate(313.797201 0.828125)"/>
     <use xlink:href="#DejaVuSans-20" transform="translate(365.89681 0.828125)"/>
     <use xlink:href="#DejaVuSans-65" transform="translate(397.683919 0.828125)"/>
     <use xlink:href="#DejaVuSans-78" transform="translate(459.207357 0.828125)"/>
     <use xlink:href="#DejaVuSans-61" transform="translate(518.387044 0.828125)"/>
     <use xlink:href="#DejaVuSans-63" transform="translate(579.666341 0.828125)"/>
     <use xlink:href="#DejaVuSans-74" transform="translate(634.64681 0.828125)"/>
     <use xlink:href="#DejaVuSans-20" transform="translate(673.855794 0.828125)"/>
     <use xlink:href="#DejaVuSans-Oblique-76" transform="translate(705.642904 0.828125)"/>
     <use xlink:href="#Cmsy10-30" transform="translate(769.288737 39.109375) scale(0.7)"/>
     <use xlink:href="#DejaVuSans-227b" transform="translate(805.861003 -15.578125) scale(0.7)"/>
     <use xlink:href="#DejaVuSans-28" transform="translate(880.885417 0.828125)"/>
     <use xlink:href="#DejaVuSans-Oblique-6d" transform="translate(919.899089 0.828125)"/>
     <use xlink:href="#DejaVuSans-2212" transform="translate(1036.79362 0.828125)"/>
     <use xlink:href="#DejaVuSans-Oblique-63" transform="translate(1140.065104 0.828125)"/>
     <use xlink:href="#DejaVuSans-29" transform="translate(1195.045573 0.828125)"/>
     <use xlink:href="#DejaVuSans-20" transform="translate(1234.059245 0.828125)"/>
     <use xlink:href="#DejaVuSans-61" transform="translate(1265.846354 0.828125)"/>
     <use xlink:href="#DejaVuSans-6e" transform="translate(1327.125651 0.828125)"/>
     <use xlink:href="#DejaVuSans-64" transform="translate(1390.504557 0.828125)"/>
     <use xlink:href="#DejaVuSans-20" transform="translate(1453.98112 0.828125)"/>
     <use xlink:href="#DejaVuSans-73" transform="translate(1485.768229 0.828125)"/>
     <use xlink:href="#DejaVuSans-74" transform="translate(1537.867839 0.828125)"/>
     <use xlink:href="#DejaVuSans-65" transform="translate(1577.076823 0.828125)"/>
     <use xlink:href="#DejaVuSans-70" transform="translate(1638.60026 0.828125)"/>
     <use xlink:href="#DejaVuSans-2d" transform="translate(1702.076823 0.828125)"/>
     <use xlink:href="#DejaVuSans-66" transform="translate(1738.160807 0.828125)"/>
     <use xlink:href="#DejaVuSans-75" transform="translate(1773.365885 0.828125)"/>
     <use xlink:href="#DejaVuSans-6e" transform="translate(1836.744792 0.828125)"/>
     <use xlink:href="#DejaVuSans-63" transform="translate(1900.123698 0.828125)"/>
     <use xlink:href="#DejaVuSans-74" transform="translate(1955.104167 0.828125)"/>
     <use xlink:href="#DejaVuSans-69" transform="translate(1994.313151 0.828125)"/>
     <use xlink:href="#DejaVuSans-6f" transform="translate(2022.096354 0.828125)"/>
     <use xlink:href="#DejaVuSans-6e" transform="translate(2083.277995 0.828125)"/>
     <use xlink:href="#DejaVuSans-20" transform="translate(2146.656901 0.828125)"/>
     <use xlink:href="#DejaVuSans-300" transform="translate(2245.035807 12.015625)"/>
     <use xlink:href="#DejaVuSans-Oblique-76" transform="translate(2178.44401 0.828125)"/>
     <use xlink:href="#Cmsy10-30" transform="translate(2238.580729 39.109375) scale(0.7)"/>
     <use xlink:href="#DejaVuSans-227b" transform="translate(2275.152995 -15.578125) scale(0.7)"/>
     <use xlink:href="#DejaVuSans-28" transform="translate(2350.177409 0.828125)"/>
     <use xlink:href="#DejaVuSans-Oblique-6d" transform="translate(2389.191081 0.828125)"/>
     <use xlink:href="#DejaVuSans-2212" transform="translate(2506.085612 0.828125)"/>
     <use xlink:href="#DejaVuSans-Oblique-63" transform="translate(2609.357096 0.828125)"/>
     <use xlink:href="#DejaVuSans-29" transform="translate(2664.337565 0.828125)"/>
    </g>
   </g>
   <g id="legend_1">
    <g id="patch_7">
     <path d="M 317.92 109.3745 
L 409.12 109.3745 
Q 410.72 109.3745 410.72 107.7745 
L 410.72 47.072 
Q 410.72 45.472 409.12 45.472 
L 317.92 45.472 
Q 316.32 45.472 316.32 47.072 
L 316.32 107.7745 
Q 316.32 109.3745 317.92 109.3745 
z
" style="fill: #ffffff; opacity: 0.8; stroke: #cccccc; stroke-linejoin: miter"/>
    </g>
    <g id="line2d_24">
     <path d="M 319.52 51.95075 
L 327.52 51.95075 
L 335.52 51.95075 
" style="fill: none; stroke: #000000; stroke-width: 2.5; stroke-linecap: square"/>
    </g>
    <g id="text_22">
     <!-- $u'(c_{T-1})$ -->
     <g transform="translate(341.92 54.75075) scale(0.08 -0.08)">
      <use xlink:href="#DejaVuSans-Oblique-75" transform="translate(0 0.584375)"/>
      <use xlink:href="#Cmsy10-30" transform="translate(67.845052 38.865625) scale(0.7)"/>
      <use xlink:href="#DejaVuSans-28" transform="translate(89.822591 0.584375)"/>
      <use xlink:href="#DejaVuSans-Oblique-63" transform="translate(128.836263 0.584375)"/>
      <use xlink:href="#DejaVuSans-Oblique-54" transform="translate(183.816732 -15.821875) scale(0.7)"/>
      <use xlink:href="#DejaVuSans-2212" transform="translate(240.213216 -15.821875) scale(0.7)"/>
      <use xlink:href="#DejaVuSans-31" transform="translate(312.503255 -15.821875) scale(0.7)"/>
      <use xlink:href="#DejaVuSans-29" transform="translate(359.773763 0.584375)"/>
     </g>
    </g>
    <g id="line2d_25">
     <path d="M 319.52 63.79075 
L 327.52 63.79075 
L 335.52 63.79075 
" style="fill: none; stroke: #1f77b4; stroke-width: 1.5; stroke-linecap: square"/>
    </g>
    <g id="text_23">
     <!-- $v'_{\succ}(3 - c)$ exact -->
     <g transform="translate(341.92 66.59075) scale(0.08 -0.08)">
      <use xlink:href="#DejaVuSans-Oblique-76" transform="translate(0 0.584375)"/>
      <use xlink:href="#Cmsy10-30" transform="translate(63.645833 38.865625) scale(0.7)"/>
      <use xlink:href="#DejaVuSans-227b" transform="translate(100.218099 -15.821875) scale(0.7)"/>
      <use xlink:href="#DejaVuSans-28" transform="translate(175.242513 0.584375)"/>
      <use xlink:href="#DejaVuSans-33" transform="translate(214.256185 0.584375)"/>
      <use xlink:href="#DejaVuSans-2212" transform="translate(297.361654 0.584375)"/>
      <use xlink:href="#DejaVuSans-Oblique-63" transform="translate(400.633138 0.584375)"/>
      <use xlink:href="#DejaVuSans-29" transform="translate(455.613607 0.584375)"/>
      <use xlink:href="#DejaVuSans-20" transform="translate(494.627279 0.584375)"/>
      <use xlink:href="#DejaVuSans-65" transform="translate(526.414388 0.584375)"/>
      <use xlink:href="#DejaVuSans-78" transform="translate(587.937826 0.584375)"/>
      <use xlink:href="#DejaVuSans-61" transform="translate(647.117513 0.584375)"/>
      <use xlink:href="#DejaVuSans-63" transform="translate(708.39681 0.584375)"/>
      <use xlink:href="#DejaVuSans-74" transform="translate(763.377279 0.584375)"/>
     </g>
    </g>
    <g id="line2d_26">
     <path d="M 319.52 76.8145 
L 327.52 76.8145 
L 335.52 76.8145 
" style="fill: none; stroke-dasharray: 3.7,1.6; stroke-dashoffset: 0; stroke: #1f77b4"/>
    </g>
    <g id="text_24">
     <!-- $\grave{v}'_{\succ}(3 - c)$ interp -->
     <g transform="translate(341.92 79.6145) scale(0.08 -0.08)">
      <defs>
       <path id="DejaVuSans-72" d="M 2631 2963 
Q 2534 3019 2420 3045 
Q 2306 3072 2169 3072 
Q 1681 3072 1420 2755 
Q 1159 2438 1159 1844 
L 1159 0 
L 581 0 
L 581 3500 
L 1159 3500 
L 1159 2956 
Q 1341 3275 1631 3429 
Q 1922 3584 2338 3584 
Q 2397 3584 2469 3576 
Q 2541 3569 2628 3553 
L 2631 2963 
z
" transform="scale(0.015625)"/>
      </defs>
      <use xlink:href="#DejaVuSans-300" transform="translate(66.591797 12.015625)"/>
      <use xlink:href="#DejaVuSans-Oblique-76" transform="translate(0 0.828125)"/>
      <use xlink:href="#Cmsy10-30" transform="translate(60.136719 39.109375) scale(0.7)"/>
      <use xlink:href="#DejaVuSans-227b" transform="translate(96.708984 -15.578125) scale(0.7)"/>
      <use xlink:href="#DejaVuSans-28" transform="translate(171.733398 0.828125)"/>
      <use xlink:href="#DejaVuSans-33" transform="translate(210.74707 0.828125)"/>
      <use xlink:href="#DejaVuSans-2212" transform="translate(293.852539 0.828125)"/>
      <use xlink:href="#DejaVuSans-Oblique-63" transform="translate(397.124023 0.828125)"/>
      <use xlink:href="#DejaVuSans-29" transform="translate(452.104492 0.828125)"/>
      <use xlink:href="#DejaVuSans-20" transform="translate(491.118164 0.828125)"/>
      <use xlink:href="#DejaVuSans-69" transform="translate(522.905273 0.828125)"/>
      <use xlink:href="#DejaVuSans-6e" transform="translate(550.688477 0.828125)"/>
      <use xlink:href="#DejaVuSans-74" transform="translate(614.067383 0.828125)"/>
      <use xlink:href="#DejaVuSans-65" transform="translate(653.276367 0.828125)"/>
      <use xlink:href="#DejaVuSans-72" transform="translate(714.799805 0.828125)"/>
      <use xlink:href="#DejaVuSans-70" transform="translate(755.913086 0.828125)"/>
     </g>
    </g>
    <g id="line2d_27">
     <path d="M 319.52 88.67075 
L 327.52 88.67075 
L 335.52 88.67075 
" style="fill: none; stroke: #ff7f0e; stroke-width: 1.5; stroke-linecap: square"/>
    </g>
    <g id="text_25">
     <!-- $v'_{\succ}(4 - c)$ exact -->
     <g transform="translate(341.92 91.47075) scale(0.08 -0.08)">
      <use xlink:href="#DejaVuSans-Oblique-76" transform="translate(0 0.584375)"/>
      <use xlink:href="#Cmsy10-30" transform="translate(63.645833 38.865625) scale(0.7)"/>
      <use xlink:href="#DejaVuSans-227b" transform="translate(100.218099 -15.821875) scale(0.7)"/>
      <use xlink:href="#DejaVuSans-28" transform="translate(175.242513 0.584375)"/>
      <use xlink:href="#DejaVuSans-34" transform="translate(214.256185 0.584375)"/>
      <use xlink:href="#DejaVuSans-2212" transform="translate(297.361654 0.584375)"/>
      <use xlink:href="#DejaVuSans-Oblique-63" transform="translate(400.633138 0.584375)"/>
      <use xlink:href="#DejaVuSans-29" transform="translate(455.613607 0.584375)"/>
      <use xlink:href="#DejaVuSans-20" transform="translate(494.627279 0.584375)"/>
      <use xlink:href="#DejaVuSans-65" transform="translate(526.414388 0.584375)"/>
      <use xlink:href="#DejaVuSans-78" transform="translate(587.937826 0.584375)"/>
      <use xlink:href="#DejaVuSans-61" transform="translate(647.117513 0.584375)"/>
      <use xlink:href="#DejaVuSans-63" transform="translate(708.39681 0.584375)"/>
      <use xlink:href="#DejaVuSans-74" transform="translate(763.377279 0.584375)"/>
     </g>
    </g>
    <g id="line2d_28">
     <path d="M 319.52 101.6945 
L 327.52 101.6945 
L 335.52 101.6945 
" style="fill: none; stroke-dasharray: 3.7,1.6; stroke-dashoffset: 0; stroke: #ff7f0e"/>
    </g>
    <g id="text_26">
     <!-- $\grave{v}'_{\succ}(4 - c)$ interp -->
     <g transform="translate(341.92 104.4945) scale(0.08 -0.08)">
      <use xlink:href="#DejaVuSans-300" transform="translate(66.591797 12.015625)"/>
      <use xlink:href="#DejaVuSans-Oblique-76" transform="translate(0 0.828125)"/>
      <use xlink:href="#Cmsy10-30" transform="translate(60.136719 39.109375) scale(0.7)"/>
      <use xlink:href="#DejaVuSans-227b" transform="translate(96.708984 -15.578125) scale(0.7)"/>
      <use xlink:href="#DejaVuSans-28" transform="translate(171.733398 0.828125)"/>
      <use xlink:href="#DejaVuSans-34" transform="translate(210.74707 0.828125)"/>
      <use xlink:href="#DejaVuSans-2212" transform="translate(293.852539 0.828125)"/>
      <use xlink:href="#DejaVuSans-Oblique-63" transform="translate(397.124023 0.828125)"/>
      <use xlink:href="#DejaVuSans-29" transform="translate(452.104492 0.828125)"/>
      <use xlink:href="#DejaVuSans-20" transform="translate(491.118164 0.828125)"/>
      <use xlink:href="#DejaVuSans-69" transform="translate(522.905273 0.828125)"/>
      <use xlink:href="#DejaVuSans-6e" transform="translate(550.688477 0.828125)"/>
      <use xlink:href="#DejaVuSans-74" transform="translate(614.067383 0.828125)"/>
      <use xlink:href="#DejaVuSans-65" transform="translate(653.276367 0.828125)"/>
      <use xlink:href="#DejaVuSans-72" transform="translate(714.799805 0.828125)"/>
      <use xlink:href="#DejaVuSans-70" transform="translate(755.913086 0.828125)"/>
     </g>
    </g>
   </g>
  </g>
 </g>
 <defs>
  <clipPath id="pba885d3b58">
   <rect x="57.6" y="41.472" width="357.12" height="266.112"/>
  </clipPath>
 </defs>
</svg>
