<?xml version="1.0" encoding="utf-8" standalone="no"?>
<!DOCTYPE svg PUBLIC "-//W3C//DTD SVG 1.1//EN"
  "http://www.w3.org/Graphics/SVG/1.1/DTD/svg11.dtd">
<svg xmlns:xlink="http://www.w3.org/1999/xlink" width="460.8pt" height="345.6pt" viewBox="0 0 460.8 345.6" xmlns="http://www.w3.org/2000/svg" version="1.1">
 <metadata>
  <rdf:RDF xmlns:dc="http://purl.org/dc/elements/1.1/" xmlns:cc="http://creativecommons.org/ns#" xmlns:rdf="http://www.w3.org/1999/02/22-rdf-syntax-ns#">
   <cc:Work>
    <dc:type rdf:resource="http://purl.org/dc/dcmitype/StillImage"/>
    <dc:date>2026-03-01T00:25:11.720051</dc:date>
    <dc:format>image/svg+xml</dc:format>
    <dc:creator>
     <cc:Agent>
      <dc:title>Matplotlib v3.9.0, https://matplotlib.org/</dc:title>
     </cc:Agent>
    </dc:creator>
   </cc:Work>
  </rdf:RDF>
 </metadata>
 <defs>
  <style type="text/css">*{stroke-linejoin: round; stroke-linecap: butt}</style>
 </defs>
 <g id="figure_1">
  <g id="patch_1">
   <path d="M 0 345.6 
L 460.8 345.6 
L 460.8 0 
L 0 0 
z
" style="fill: #ffffff"/>
  </g>
  <g id="axes_1">
   <g id="patch_2">
    <path d="M 57.6 307.584 
L 414.72 307.584 
L 414.72 41.472 
L 57.6 41.472 
z
" style="fill: #ffffff"/>
   </g>
   <g id="matplotlib.axis_1">
    <g id="xtick_1">
     <g id="line2d_1">
      <defs>
       <path id="m2f72373cbf" d="M 0 0 
L 0 3.5 
" style="stroke: #000000; stroke-width: 0.8"/>
      </defs>
      <g>
       <use xlink:href="#m2f72373cbf" x="57.6" y="307.584" style="stroke: #000000; stroke-width: 0.8"/>
      </g>
     </g>
     <g id="text_1">
      <!-- 0.0 -->
      <g transform="translate(49.648438 322.182437) scale(0.1 -0.1)">
       <defs>
        <path id="DejaVuSans-30" d="M 2034 4250 
Q 1547 4250 1301 3770 
Q 1056 3291 1056 2328 
Q 1056 1369 1301 889 
Q 1547 409 2034 409 
Q 2525 409 2770 889 
Q 3016 1369 3016 2328 
Q 3016 3291 2770 3770 
Q 2525 4250 2034 4250 
z
M 2034 4750 
Q 2819 4750 3233 4129 
Q 3647 3509 3647 2328 
Q 3647 1150 3233 529 
Q 2819 -91 2034 -91 
Q 1250 -91 836 529 
Q 422 1150 422 2328 
Q 422 3509 836 4129 
Q 1250 4750 2034 4750 
z
" transform="scale(0.015625)"/>
        <path id="DejaVuSans-2e" d="M 684 794 
L 1344 794 
L 1344 0 
L 684 0 
L 684 794 
z
" transform="scale(0.015625)"/>
       </defs>
       <use xlink:href="#DejaVuSans-30"/>
       <use xlink:href="#DejaVuSans-2e" x="63.623047"/>
       <use xlink:href="#DejaVuSans-30" x="95.410156"/>
      </g>
     </g>
    </g>
    <g id="xtick_2">
     <g id="line2d_2">
      <g>
       <use xlink:href="#m2f72373cbf" x="102.24" y="307.584" style="stroke: #000000; stroke-width: 0.8"/>
      </g>
     </g>
     <g id="text_2">
      <!-- 0.5 -->
      <g transform="translate(94.288438 322.182437) scale(0.1 -0.1)">
       <defs>
        <path id="DejaVuSans-35" d="M 691 4666 
L 3169 4666 
L 3169 4134 
L 1269 4134 
L 1269 2991 
Q 1406 3038 1543 3061 
Q 1681 3084 1819 3084 
Q 2600 3084 3056 2656 
Q 3513 2228 3513 1497 
Q 3513 744 3044 326 
Q 2575 -91 1722 -91 
Q 1428 -91 1123 -41 
Q 819 9 494 109 
L 494 744 
Q 775 591 1075 516 
Q 1375 441 1709 441 
Q 2250 441 2565 725 
Q 2881 1009 2881 1497 
Q 2881 1984 2565 2268 
Q 2250 2553 1709 2553 
Q 1456 2553 1204 2497 
Q 953 2441 691 2322 
L 691 4666 
z
" transform="scale(0.015625)"/>
       </defs>
       <use xlink:href="#DejaVuSans-30"/>
       <use xlink:href="#DejaVuSans-2e" x="63.623047"/>
       <use xlink:href="#DejaVuSans-35" x="95.410156"/>
      </g>
     </g>
    </g>
    <g id="xtick_3">
     <g id="line2d_3">
      <g>
       <use xlink:href="#m2f72373cbf" x="146.88" y="307.584" style="stroke: #000000; stroke-width: 0.8"/>
      </g>
     </g>
     <g id="text_3">
      <!-- 1.0 -->
      <g transform="translate(138.928438 322.182437) scale(0.1 -0.1)">
       <defs>
        <path id="DejaVuSans-31" d="M 794 531 
L 1825 531 
L 1825 4091 
L 703 3866 
L 703 4441 
L 1819 4666 
L 2450 4666 
L 2450 531 
L 3481 531 
L 3481 0 
L 794 0 
L 794 531 
z
" transform="scale(0.015625)"/>
       </defs>
       <use xlink:href="#DejaVuSans-31"/>
       <use xlink:href="#DejaVuSans-2e" x="63.623047"/>
       <use xlink:href="#DejaVuSans-30" x="95.410156"/>
      </g>
     </g>
    </g>
    <g id="xtick_4">
     <g id="line2d_4">
      <g>
       <use xlink:href="#m2f72373cbf" x="191.52" y="307.584" style="stroke: #000000; stroke-width: 0.8"/>
      </g>
     </g>
     <g id="text_4">
      <!-- 1.5 -->
      <g transform="translate(183.568438 322.182437) scale(0.1 -0.1)">
       <use xlink:href="#DejaVuSans-31"/>
       <use xlink:href="#DejaVuSans-2e" x="63.623047"/>
       <use xlink:href="#DejaVuSans-35" x="95.410156"/>
      </g>
     </g>
    </g>
    <g id="xtick_5">
     <g id="line2d_5">
      <g>
       <use xlink:href="#m2f72373cbf" x="236.16" y="307.584" style="stroke: #000000; stroke-width: 0.8"/>
      </g>
     </g>
     <g id="text_5">
      <!-- 2.0 -->
      <g transform="translate(228.208438 322.182437) scale(0.1 -0.1)">
       <defs>
        <path id="DejaVuSans-32" d="M 1228 531 
L 3431 531 
L 3431 0 
L 469 0 
L 469 531 
Q 828 903 1448 1529 
Q 2069 2156 2228 2338 
Q 2531 2678 2651 2914 
Q 2772 3150 2772 3378 
Q 2772 3750 2511 3984 
Q 2250 4219 1831 4219 
Q 1534 4219 1204 4116 
Q 875 4013 500 3803 
L 500 4441 
Q 881 4594 1212 4672 
Q 1544 4750 1819 4750 
Q 2544 4750 2975 4387 
Q 3406 4025 3406 3419 
Q 3406 3131 3298 2873 
Q 3191 2616 2906 2266 
Q 2828 2175 2409 1742 
Q 1991 1309 1228 531 
z
" transform="scale(0.015625)"/>
       </defs>
       <use xlink:href="#DejaVuSans-32"/>
       <use xlink:href="#DejaVuSans-2e" x="63.623047"/>
       <use xlink:href="#DejaVuSans-30" x="95.410156"/>
      </g>
     </g>
    </g>
    <g id="xtick_6">
     <g id="line2d_6">
      <g>
       <use xlink:href="#m2f72373cbf" x="280.8" y="307.584" style="stroke: #000000; stroke-width: 0.8"/>
      </g>
     </g>
     <g id="text_6">
      <!-- 2.5 -->
      <g transform="translate(272.848437 322.182437) scale(0.1 -0.1)">
       <use xlink:href="#DejaVuSans-32"/>
       <use xlink:href="#DejaVuSans-2e" x="63.623047"/>
       <use xlink:href="#DejaVuSans-35" x="95.410156"/>
      </g>
     </g>
    </g>
    <g id="xtick_7">
     <g id="line2d_7">
      <g>
       <use xlink:href="#m2f72373cbf" x="325.44" y="307.584" style="stroke: #000000; stroke-width: 0.8"/>
      </g>
     </g>
     <g id="text_7">
      <!-- 3.0 -->
      <g transform="translate(317.488438 322.182437) scale(0.1 -0.1)">
       <defs>
        <path id="DejaVuSans-33" d="M 2597 2516 
Q 3050 2419 3304 2112 
Q 3559 1806 3559 1356 
Q 3559 666 3084 287 
Q 2609 -91 1734 -91 
Q 1441 -91 1130 -33 
Q 819 25 488 141 
L 488 750 
Q 750 597 1062 519 
Q 1375 441 1716 441 
Q 2309 441 2620 675 
Q 2931 909 2931 1356 
Q 2931 1769 2642 2001 
Q 2353 2234 1838 2234 
L 1294 2234 
L 1294 2753 
L 1863 2753 
Q 2328 2753 2575 2939 
Q 2822 3125 2822 3475 
Q 2822 3834 2567 4026 
Q 2313 4219 1838 4219 
Q 1578 4219 1281 4162 
Q 984 4106 628 3988 
L 628 4550 
Q 988 4650 1302 4700 
Q 1616 4750 1894 4750 
Q 2613 4750 3031 4423 
Q 3450 4097 3450 3541 
Q 3450 3153 3228 2886 
Q 3006 2619 2597 2516 
z
" transform="scale(0.015625)"/>
       </defs>
       <use xlink:href="#DejaVuSans-33"/>
       <use xlink:href="#DejaVuSans-2e" x="63.623047"/>
       <use xlink:href="#DejaVuSans-30" x="95.410156"/>
      </g>
     </g>
    </g>
    <g id="xtick_8">
     <g id="line2d_8">
      <g>
       <use xlink:href="#m2f72373cbf" x="370.08" y="307.584" style="stroke: #000000; stroke-width: 0.8"/>
      </g>
     </g>
     <g id="text_8">
      <!-- 3.5 -->
      <g transform="translate(362.128438 322.182437) scale(0.1 -0.1)">
       <use xlink:href="#DejaVuSans-33"/>
       <use xlink:href="#DejaVuSans-2e" x="63.623047"/>
       <use xlink:href="#DejaVuSans-35" x="95.410156"/>
      </g>
     </g>
    </g>
    <g id="xtick_9">
     <g id="line2d_9">
      <g>
       <use xlink:href="#m2f72373cbf" x="414.72" y="307.584" style="stroke: #000000; stroke-width: 0.8"/>
      </g>
     </g>
     <g id="text_9">
      <!-- 4.0 -->
      <g transform="translate(406.768438 322.182437) scale(0.1 -0.1)">
       <defs>
        <path id="DejaVuSans-34" d="M 2419 4116 
L 825 1625 
L 2419 1625 
L 2419 4116 
z
M 2253 4666 
L 3047 4666 
L 3047 1625 
L 3713 1625 
L 3713 1100 
L 3047 1100 
L 3047 0 
L 2419 0 
L 2419 1100 
L 313 1100 
L 313 1709 
L 2253 4666 
z
" transform="scale(0.015625)"/>
       </defs>
       <use xlink:href="#DejaVuSans-34"/>
       <use xlink:href="#DejaVuSans-2e" x="63.623047"/>
       <use xlink:href="#DejaVuSans-30" x="95.410156"/>
      </g>
     </g>
    </g>
    <g id="text_10">
     <!-- $\mathrm{c}_{T-1}$ -->
     <g transform="translate(224.56 335.860562) scale(0.1 -0.1)">
      <defs>
       <path id="DejaVuSans-63" d="M 3122 3366 
L 3122 2828 
Q 2878 2963 2633 3030 
Q 2388 3097 2138 3097 
Q 1578 3097 1268 2742 
Q 959 2388 959 1747 
Q 959 1106 1268 751 
Q 1578 397 2138 397 
Q 2388 397 2633 464 
Q 2878 531 3122 666 
L 3122 134 
Q 2881 22 2623 -34 
Q 2366 -91 2075 -91 
Q 1284 -91 818 406 
Q 353 903 353 1747 
Q 353 2603 823 3093 
Q 1294 3584 2113 3584 
Q 2378 3584 2631 3529 
Q 2884 3475 3122 3366 
z
" transform="scale(0.015625)"/>
       <path id="DejaVuSans-Oblique-54" d="M 378 4666 
L 4325 4666 
L 4225 4134 
L 2559 4134 
L 1759 0 
L 1125 0 
L 1925 4134 
L 275 4134 
L 378 4666 
z
" transform="scale(0.015625)"/>
       <path id="DejaVuSans-2212" d="M 678 2272 
L 4684 2272 
L 4684 1741 
L 678 1741 
L 678 2272 
z
" transform="scale(0.015625)"/>
      </defs>
      <use xlink:href="#DejaVuSans-63"/>
      <use xlink:href="#DejaVuSans-Oblique-54" transform="translate(55.9375 -16.40625) scale(0.7)"/>
      <use xlink:href="#DejaVuSans-2212" transform="translate(112.333984 -16.40625) scale(0.7)"/>
      <use xlink:href="#DejaVuSans-31" transform="translate(184.624023 -16.40625) scale(0.7)"/>
     </g>
    </g>
   </g>
   <g id="matplotlib.axis_2">
    <g id="ytick_1">
     <g id="line2d_10">
      <defs>
       <path id="md37ae450d2" d="M 0 0 
L -3.5 0 
" style="stroke: #000000; stroke-width: 0.8"/>
      </defs>
      <g>
       <use xlink:href="#md37ae450d2" x="57.6" y="307.584" style="stroke: #000000; stroke-width: 0.8"/>
      </g>
     </g>
     <g id="text_11">
      <!-- 0.0 -->
      <g transform="translate(34.696875 311.383219) scale(0.1 -0.1)">
       <use xlink:href="#DejaVuSans-30"/>
       <use xlink:href="#DejaVuSans-2e" x="63.623047"/>
       <use xlink:href="#DejaVuSans-30" x="95.410156"/>
      </g>
     </g>
    </g>
    <g id="ytick_2">
     <g id="line2d_11">
      <g>
       <use xlink:href="#md37ae450d2" x="57.6" y="274.32" style="stroke: #000000; stroke-width: 0.8"/>
      </g>
     </g>
     <g id="text_12">
      <!-- 0.1 -->
      <g transform="translate(34.696875 278.119219) scale(0.1 -0.1)">
       <use xlink:href="#DejaVuSans-30"/>
       <use xlink:href="#DejaVuSans-2e" x="63.623047"/>
       <use xlink:href="#DejaVuSans-31" x="95.410156"/>
      </g>
     </g>
    </g>
    <g id="ytick_3">
     <g id="line2d_12">
      <g>
       <use xlink:href="#md37ae450d2" x="57.6" y="241.056" style="stroke: #000000; stroke-width: 0.8"/>
      </g>
     </g>
     <g id="text_13">
      <!-- 0.2 -->
      <g transform="translate(34.696875 244.855219) scale(0.1 -0.1)">
       <use xlink:href="#DejaVuSans-30"/>
       <use xlink:href="#DejaVuSans-2e" x="63.623047"/>
       <use xlink:href="#DejaVuSans-32" x="95.410156"/>
      </g>
     </g>
    </g>
    <g id="ytick_4">
     <g id="line2d_13">
      <g>
       <use xlink:href="#md37ae450d2" x="57.6" y="207.792" style="stroke: #000000; stroke-width: 0.8"/>
      </g>
     </g>
     <g id="text_14">
      <!-- 0.3 -->
      <g transform="translate(34.696875 211.591219) scale(0.1 -0.1)">
       <use xlink:href="#DejaVuSans-30"/>
       <use xlink:href="#DejaVuSans-2e" x="63.623047"/>
       <use xlink:href="#DejaVuSans-33" x="95.410156"/>
      </g>
     </g>
    </g>
    <g id="ytick_5">
     <g id="line2d_14">
      <g>
       <use xlink:href="#md37ae450d2" x="57.6" y="174.528" style="stroke: #000000; stroke-width: 0.8"/>
      </g>
     </g>
     <g id="text_15">
      <!-- 0.4 -->
      <g transform="translate(34.696875 178.327219) scale(0.1 -0.1)">
       <use xlink:href="#DejaVuSans-30"/>
       <use xlink:href="#DejaVuSans-2e" x="63.623047"/>
       <use xlink:href="#DejaVuSans-34" x="95.410156"/>
      </g>
     </g>
    </g>
    <g id="ytick_6">
     <g id="line2d_15">
      <g>
       <use xlink:href="#md37ae450d2" x="57.6" y="141.264" style="stroke: #000000; stroke-width: 0.8"/>
      </g>
     </g>
     <g id="text_16">
      <!-- 0.5 -->
      <g transform="translate(34.696875 145.063219) scale(0.1 -0.1)">
       <use xlink:href="#DejaVuSans-30"/>
       <use xlink:href="#DejaVuSans-2e" x="63.623047"/>
       <use xlink:href="#DejaVuSans-35" x="95.410156"/>
      </g>
     </g>
    </g>
    <g id="ytick_7">
     <g id="line2d_16">
      <g>
       <use xlink:href="#md37ae450d2" x="57.6" y="108" style="stroke: #000000; stroke-width: 0.8"/>
      </g>
     </g>
     <g id="text_17">
      <!-- 0.6 -->
      <g transform="translate(34.696875 111.799219) scale(0.1 -0.1)">
       <defs>
        <path id="DejaVuSans-36" d="M 2113 2584 
Q 1688 2584 1439 2293 
Q 1191 2003 1191 1497 
Q 1191 994 1439 701 
Q 1688 409 2113 409 
Q 2538 409 2786 701 
Q 3034 994 3034 1497 
Q 3034 2003 2786 2293 
Q 2538 2584 2113 2584 
z
M 3366 4563 
L 3366 3988 
Q 3128 4100 2886 4159 
Q 2644 4219 2406 4219 
Q 1781 4219 1451 3797 
Q 1122 3375 1075 2522 
Q 1259 2794 1537 2939 
Q 1816 3084 2150 3084 
Q 2853 3084 3261 2657 
Q 3669 2231 3669 1497 
Q 3669 778 3244 343 
Q 2819 -91 2113 -91 
Q 1303 -91 875 529 
Q 447 1150 447 2328 
Q 447 3434 972 4092 
Q 1497 4750 2381 4750 
Q 2619 4750 2861 4703 
Q 3103 4656 3366 4563 
z
" transform="scale(0.015625)"/>
       </defs>
       <use xlink:href="#DejaVuSans-30"/>
       <use xlink:href="#DejaVuSans-2e" x="63.623047"/>
       <use xlink:href="#DejaVuSans-36" x="95.410156"/>
      </g>
     </g>
    </g>
    <g id="ytick_8">
     <g id="line2d_17">
      <g>
       <use xlink:href="#md37ae450d2" x="57.6" y="74.736" style="stroke: #000000; stroke-width: 0.8"/>
      </g>
     </g>
     <g id="text_18">
      <!-- 0.7 -->
      <g transform="translate(34.696875 78.535219) scale(0.1 -0.1)">
       <defs>
        <path id="DejaVuSans-37" d="M 525 4666 
L 3525 4666 
L 3525 4397 
L 1831 0 
L 1172 0 
L 2766 4134 
L 525 4134 
L 525 4666 
z
" transform="scale(0.015625)"/>
       </defs>
       <use xlink:href="#DejaVuSans-30"/>
       <use xlink:href="#DejaVuSans-2e" x="63.623047"/>
       <use xlink:href="#DejaVuSans-37" x="95.410156"/>
      </g>
     </g>
    </g>
    <g id="ytick_9">
     <g id="line2d_18">
      <g>
       <use xlink:href="#md37ae450d2" x="57.6" y="41.472" style="stroke: #000000; stroke-width: 0.8"/>
      </g>
     </g>
     <g id="text_19">
      <!-- 0.8 -->
      <g transform="translate(34.696875 45.271219) scale(0.1 -0.1)">
       <defs>
        <path id="DejaVuSans-38" d="M 2034 2216 
Q 1584 2216 1326 1975 
Q 1069 1734 1069 1313 
Q 1069 891 1326 650 
Q 1584 409 2034 409 
Q 2484 409 2743 651 
Q 3003 894 3003 1313 
Q 3003 1734 2745 1975 
Q 2488 2216 2034 2216 
z
M 1403 2484 
Q 997 2584 770 2862 
Q 544 3141 544 3541 
Q 544 4100 942 4425 
Q 1341 4750 2034 4750 
Q 2731 4750 3128 4425 
Q 3525 4100 3525 3541 
Q 3525 3141 3298 2862 
Q 3072 2584 2669 2484 
Q 3125 2378 3379 2068 
Q 3634 1759 3634 1313 
Q 3634 634 3220 271 
Q 2806 -91 2034 -91 
Q 1263 -91 848 271 
Q 434 634 434 1313 
Q 434 1759 690 2068 
Q 947 2378 1403 2484 
z
M 1172 3481 
Q 1172 3119 1398 2916 
Q 1625 2713 2034 2713 
Q 2441 2713 2670 2916 
Q 2900 3119 2900 3481 
Q 2900 3844 2670 4047 
Q 2441 4250 2034 4250 
Q 1625 4250 1398 4047 
Q 1172 3844 1172 3481 
z
" transform="scale(0.015625)"/>
       </defs>
       <use xlink:href="#DejaVuSans-30"/>
       <use xlink:href="#DejaVuSans-2e" x="63.623047"/>
       <use xlink:href="#DejaVuSans-38" x="95.410156"/>
      </g>
     </g>
    </g>
    <g id="text_20">
     <!-- $\mathrm{v}^{\partial}_{\succ,T-1}(m_{T-1} - \mathrm{c}_{T-1}),\; \mathrm{u}^{\partial}(\mathrm{c}_{T-1})$ -->
     <g transform="translate(27.096875 252.328) rotate(-90) scale(0.1 -0.1)">
      <defs>
       <path id="DejaVuSans-76" d="M 191 3500 
L 800 3500 
L 1894 563 
L 2988 3500 
L 3597 3500 
L 2284 0 
L 1503 0 
L 191 3500 
z
" transform="scale(0.015625)"/>
       <path id="DejaVuSans-2202" d="M 1366 -91 
Q 925 -91 638 175 
Q 297 491 297 1063 
Q 297 1656 597 2119 
Q 906 2594 1463 2594 
Q 1828 2594 2116 2366 
Q 2284 2231 2400 2006 
Q 2441 2259 2441 2547 
Q 2441 2969 2341 3213 
Q 2119 3753 1531 3753 
Q 1309 3753 966 3616 
L 966 4141 
Q 1328 4238 1653 4238 
Q 2491 4238 2847 3469 
Q 3013 3106 3013 2566 
Q 3013 2213 2934 1803 
Q 2738 778 2228 291 
Q 1828 -91 1366 -91 
z
M 831 969 
Q 831 656 969 488 
Q 1116 309 1341 309 
Q 1541 309 1700 450 
Q 1925 644 2091 959 
Q 2228 1219 2297 1497 
Q 2019 2169 1538 2169 
Q 1125 2169 944 1625 
Q 831 1288 831 969 
z
" transform="scale(0.015625)"/>
       <path id="DejaVuSans-227b" d="M 678 3503 
L 678 4250 
Q 1925 2650 4684 2263 
L 4684 1744 
Q 1931 1356 678 -244 
L 678 503 
Q 1934 1709 3563 2003 
Q 1922 2306 678 3503 
z
" transform="scale(0.015625)"/>
       <path id="DejaVuSans-2c" d="M 750 794 
L 1409 794 
L 1409 256 
L 897 -744 
L 494 -744 
L 750 256 
L 750 794 
z
" transform="scale(0.015625)"/>
       <path id="DejaVuSans-28" d="M 1984 4856 
Q 1566 4138 1362 3434 
Q 1159 2731 1159 2009 
Q 1159 1288 1364 580 
Q 1569 -128 1984 -844 
L 1484 -844 
Q 1016 -109 783 600 
Q 550 1309 550 2009 
Q 550 2706 781 3412 
Q 1013 4119 1484 4856 
L 1984 4856 
z
" transform="scale(0.015625)"/>
       <path id="DejaVuSans-Oblique-6d" d="M 5747 2113 
L 5338 0 
L 4763 0 
L 5166 2094 
Q 5191 2228 5203 2325 
Q 5216 2422 5216 2491 
Q 5216 2772 5059 2928 
Q 4903 3084 4622 3084 
Q 4203 3084 3875 2770 
Q 3547 2456 3450 1953 
L 3066 0 
L 2491 0 
L 2900 2094 
Q 2925 2209 2937 2307 
Q 2950 2406 2950 2484 
Q 2950 2769 2794 2926 
Q 2638 3084 2363 3084 
Q 1938 3084 1609 2770 
Q 1281 2456 1184 1953 
L 800 0 
L 225 0 
L 909 3500 
L 1484 3500 
L 1375 2956 
Q 1609 3263 1923 3423 
Q 2238 3584 2597 3584 
Q 2978 3584 3223 3384 
Q 3469 3184 3519 2828 
Q 3781 3197 4126 3390 
Q 4472 3584 4856 3584 
Q 5306 3584 5551 3325 
Q 5797 3066 5797 2591 
Q 5797 2488 5784 2364 
Q 5772 2241 5747 2113 
z
" transform="scale(0.015625)"/>
       <path id="DejaVuSans-29" d="M 513 4856 
L 1013 4856 
Q 1481 4119 1714 3412 
Q 1947 2706 1947 2009 
Q 1947 1309 1714 600 
Q 1481 -109 1013 -844 
L 513 -844 
Q 928 -128 1133 580 
Q 1338 1288 1338 2009 
Q 1338 2731 1133 3434 
Q 928 4138 513 4856 
z
" transform="scale(0.015625)"/>
       <path id="DejaVuSans-75" d="M 544 1381 
L 544 3500 
L 1119 3500 
L 1119 1403 
Q 1119 906 1312 657 
Q 1506 409 1894 409 
Q 2359 409 2629 706 
Q 2900 1003 2900 1516 
L 2900 3500 
L 3475 3500 
L 3475 0 
L 2900 0 
L 2900 538 
Q 2691 219 2414 64 
Q 2138 -91 1772 -91 
Q 1169 -91 856 284 
Q 544 659 544 1381 
z
M 1991 3584 
L 1991 3584 
z
" transform="scale(0.015625)"/>
      </defs>
      <use xlink:href="#DejaVuSans-76" transform="translate(0 0.365625)"/>
      <use xlink:href="#DejaVuSans-2202" transform="translate(60.136719 38.646875) scale(0.7)"/>
      <use xlink:href="#DejaVuSans-227b" transform="translate(73.774414 -26.978125) scale(0.7)"/>
      <use xlink:href="#DejaVuSans-2c" transform="translate(146.064453 -26.978125) scale(0.7)"/>
      <use xlink:href="#DejaVuSans-Oblique-54" transform="translate(181.953125 -26.978125) scale(0.7)"/>
      <use xlink:href="#DejaVuSans-2212" transform="translate(238.349609 -26.978125) scale(0.7)"/>
      <use xlink:href="#DejaVuSans-31" transform="translate(310.639648 -26.978125) scale(0.7)"/>
      <use xlink:href="#DejaVuSans-28" transform="translate(357.910156 0.365625)"/>
      <use xlink:href="#DejaVuSans-Oblique-6d" transform="translate(396.923828 0.365625)"/>
      <use xlink:href="#DejaVuSans-Oblique-54" transform="translate(494.335938 -16.040625) scale(0.7)"/>
      <use xlink:href="#DejaVuSans-2212" transform="translate(550.732422 -16.040625) scale(0.7)"/>
      <use xlink:href="#DejaVuSans-31" transform="translate(623.022461 -16.040625) scale(0.7)"/>
      <use xlink:href="#DejaVuSans-2212" transform="translate(689.775391 0.365625)"/>
      <use xlink:href="#DejaVuSans-63" transform="translate(793.046875 0.365625)"/>
      <use xlink:href="#DejaVuSans-Oblique-54" transform="translate(848.984375 -16.040625) scale(0.7)"/>
      <use xlink:href="#DejaVuSans-2212" transform="translate(905.380859 -16.040625) scale(0.7)"/>
      <use xlink:href="#DejaVuSans-31" transform="translate(977.670898 -16.040625) scale(0.7)"/>
      <use xlink:href="#DejaVuSans-29" transform="translate(1024.941406 0.365625)"/>
      <use xlink:href="#DejaVuSans-2c" transform="translate(1063.955078 0.365625)"/>
      <use xlink:href="#DejaVuSans-75" transform="translate(1142.283745 0.365625)"/>
      <use xlink:href="#DejaVuSans-2202" transform="translate(1206.619683 38.646875) scale(0.7)"/>
      <use xlink:href="#DejaVuSans-28" transform="translate(1245.550347 0.365625)"/>
      <use xlink:href="#DejaVuSans-63" transform="translate(1284.564019 0.365625)"/>
      <use xlink:href="#DejaVuSans-Oblique-54" transform="translate(1340.501519 -16.040625) scale(0.7)"/>
      <use xlink:href="#DejaVuSans-2212" transform="translate(1396.898003 -16.040625) scale(0.7)"/>
      <use xlink:href="#DejaVuSans-31" transform="translate(1469.188042 -16.040625) scale(0.7)"/>
      <use xlink:href="#DejaVuSans-29" transform="translate(1516.45855 0.365625)"/>
     </g>
    </g>
   </g>
   <g id="line2d_19">
    <path d="M 150.295016 -1 
L 153.052665 16.574802 
L 155.843784 32.875134 
L 158.634902 47.843311 
L 161.42602 61.620637 
L 164.217138 74.330165 
L 167.008257 86.079456 
L 169.799375 96.962859 
L 172.590493 107.063415 
L 175.381611 116.454443 
L 178.172729 125.200876 
L 181.661627 135.3147 
L 185.150525 144.609997 
L 188.639423 153.172767 
L 192.128321 161.078006 
L 195.617218 168.391353 
L 199.106116 175.170455 
L 202.595014 181.466109 
L 206.083912 187.323215 
L 209.57281 192.781578 
L 213.061707 197.876588 
L 217.248385 203.555155 
L 221.435062 208.803974 
L 225.621739 213.665341 
L 229.808417 218.176472 
L 233.995094 222.37022 
L 238.181772 226.275675 
L 243.066228 230.501968 
L 247.950685 234.40711 
L 252.835142 238.022835 
L 257.719599 241.377049 
L 263.301836 244.921676 
L 268.884072 248.189078 
L 274.466309 251.207429 
L 280.746325 254.335993 
L 287.026341 257.211178 
L 294.004136 260.14094 
L 300.981932 262.822342 
L 308.657507 265.517497 
L 316.333082 267.976365 
L 324.706437 270.420712 
L 333.777571 272.821898 
L 342.848705 274.997669 
L 352.617619 277.12 
L 363.084313 279.17179 
L 374.248786 281.139998 
L 386.808818 283.119299 
L 400.066629 284.976824 
L 414.72 286.794 
L 414.72 286.794 
" clip-path="url(#p047dd4aaf0)" style="fill: none; stroke: #000000; stroke-width: 2.5; stroke-linecap: square"/>
   </g>
   <g id="line2d_20">
    <path d="M 66.528 283.711834 
L 78.296727 281.780801 
L 89.373176 279.735913 
L 99.757348 277.584259 
L 109.449241 275.337077 
L 118.448856 273.010395 
L 126.756193 270.625602 
L 134.371251 268.209841 
L 141.294032 265.796165 
L 148.216813 263.146937 
L 154.447316 260.534593 
L 160.677818 257.677689 
L 166.216043 254.906971 
L 171.754267 251.891323 
L 177.292492 248.600287 
L 182.138439 245.467005 
L 186.984385 242.068367 
L 191.830332 238.372743 
L 195.984 234.94111 
L 200.137668 231.238037 
L 204.291337 227.233313 
L 208.445005 222.892306 
L 212.598674 218.175158 
L 216.060064 213.923837 
L 219.521455 209.348874 
L 222.982845 204.415525 
L 226.444235 199.084136 
L 229.905626 193.309276 
L 233.367016 187.038672 
L 236.828406 180.211905 
L 239.597519 174.303282 
L 242.366631 167.952808 
L 245.135743 161.113667 
L 247.904856 153.732495 
L 250.673968 145.748222 
L 253.44308 137.090671 
L 256.212193 127.678836 
L 258.981305 117.418762 
L 261.750417 106.200918 
L 264.519529 93.896911 
L 267.288642 80.355345 
L 270.057754 65.396558 
L 272.826866 48.805864 
L 274.903701 35.138368 
L 276.980535 20.27986 
L 279.057369 4.080679 
L 279.671515 -1 
L 279.671515 -1 
" clip-path="url(#p047dd4aaf0)" style="fill: none; stroke: #1f77b4; stroke-width: 1.5; stroke-linecap: square"/>
   </g>
   <g id="line2d_21">
    <path d="M 66.528 276.157841 
L 146.139979 276.157841 
L 146.832257 266.249586 
L 147.524535 233.563734 
L 235.44385 233.563734 
L 236.226446 -1 
L 236.226446 -1 
" clip-path="url(#p047dd4aaf0)" style="fill: none; stroke-dasharray: 3.7,1.6; stroke-dashoffset: 0; stroke: #1f77b4"/>
   </g>
   <g id="line2d_22">
    <path d="M 66.528 293.171405 
L 86.065828 291.662564 
L 103.510317 290.101942 
L 119.559246 288.45019 
L 134.212617 286.724458 
L 147.470429 284.949306 
L 160.030461 283.045241 
L 171.194934 281.138846 
L 181.661627 279.137524 
L 191.430541 277.052226 
L 200.501675 274.898238 
L 208.87503 272.695654 
L 217.248385 270.256557 
L 224.92396 267.782464 
L 231.901756 265.307249 
L 238.879551 262.586815 
L 245.159567 259.900592 
L 251.439583 256.95882 
L 257.02182 254.101816 
L 262.604056 250.987897 
L 267.488513 248.027024 
L 272.37297 244.819478 
L 277.257427 241.336364 
L 282.141884 237.544341 
L 286.328561 234.019039 
L 290.515238 230.210482 
L 294.701916 226.086623 
L 298.888593 221.610652 
L 302.377491 217.581256 
L 305.866389 213.24986 
L 309.355287 208.584576 
L 312.844184 203.54909 
L 316.333082 198.10189 
L 319.82198 192.195329 
L 323.310878 185.774481 
L 326.101996 180.225104 
L 328.893114 174.268794 
L 331.684232 167.863326 
L 334.475351 160.960694 
L 337.266469 153.506123 
L 340.057587 145.436854 
L 342.848705 136.680679 
L 345.639824 127.154139 
L 348.430942 116.760297 
L 351.22206 105.385974 
L 354.013178 92.898286 
L 356.804297 79.140271 
L 359.595415 63.925305 
L 361.688754 51.425166 
L 363.782092 37.869946 
L 365.875431 23.131521 
L 367.96877 7.060977 
L 368.949986 -1 
L 368.949986 -1 
" clip-path="url(#p047dd4aaf0)" style="fill: none; stroke: #ff7f0e; stroke-width: 1.5; stroke-linecap: square"/>
   </g>
   <g id="line2d_23">
    <path d="M 66.528 289.955542 
L 146.772649 289.955542 
L 147.470429 276.157841 
L 235.390653 276.157841 
L 236.088433 271.932574 
L 236.786212 233.563734 
L 324.706437 233.563734 
L 325.404216 77.043642 
L 325.553043 -1 
L 325.553043 -1 
" clip-path="url(#p047dd4aaf0)" style="fill: none; stroke-dasharray: 3.7,1.6; stroke-dashoffset: 0; stroke: #ff7f0e"/>
   </g>
   <g id="patch_3">
    <path d="M 57.6 307.584 
L 57.6 41.472 
" style="fill: none; stroke: #000000; stroke-width: 0.8; stroke-linejoin: miter; stroke-linecap: square"/>
   </g>
   <g id="patch_4">
    <path d="M 414.72 307.584 
L 414.72 41.472 
" style="fill: none; stroke: #000000; stroke-width: 0.8; stroke-linejoin: miter; stroke-linecap: square"/>
   </g>
   <g id="patch_5">
    <path d="M 57.6 307.584 
L 414.72 307.584 
" style="fill: none; stroke: #000000; stroke-width: 0.8; stroke-linejoin: miter; stroke-linecap: square"/>
   </g>
   <g id="patch_6">
    <path d="M 57.6 41.472 
L 414.72 41.472 
" style="fill: none; stroke: #000000; stroke-width: 0.8; stroke-linejoin: miter; stroke-linecap: square"/>
   </g>
   <g id="text_21">
    <!-- $\mathrm{u}^{\partial}(\mathrm{c})$ vs exact $\mathrm{v}^{\partial}_{\succ}(m-\mathrm{c})$ and step-function $\grave{\mathrm{v}}^{\partial}_{\succ}(m-\mathrm{c})$ -->
    <g transform="translate(76.08 35.472) scale(0.12 -0.12)">
     <defs>
      <path id="DejaVuSans-20" transform="scale(0.015625)"/>
      <path id="DejaVuSans-73" d="M 2834 3397 
L 2834 2853 
Q 2591 2978 2328 3040 
Q 2066 3103 1784 3103 
Q 1356 3103 1142 2972 
Q 928 2841 928 2578 
Q 928 2378 1081 2264 
Q 1234 2150 1697 2047 
L 1894 2003 
Q 2506 1872 2764 1633 
Q 3022 1394 3022 966 
Q 3022 478 2636 193 
Q 2250 -91 1575 -91 
Q 1294 -91 989 -36 
Q 684 19 347 128 
L 347 722 
Q 666 556 975 473 
Q 1284 391 1588 391 
Q 1994 391 2212 530 
Q 2431 669 2431 922 
Q 2431 1156 2273 1281 
Q 2116 1406 1581 1522 
L 1381 1569 
Q 847 1681 609 1914 
Q 372 2147 372 2553 
Q 372 3047 722 3315 
Q 1072 3584 1716 3584 
Q 2034 3584 2315 3537 
Q 2597 3491 2834 3397 
z
" transform="scale(0.015625)"/>
      <path id="DejaVuSans-65" d="M 3597 1894 
L 3597 1613 
L 953 1613 
Q 991 1019 1311 708 
Q 1631 397 2203 397 
Q 2534 397 2845 478 
Q 3156 559 3463 722 
L 3463 178 
Q 3153 47 2828 -22 
Q 2503 -91 2169 -91 
Q 1331 -91 842 396 
Q 353 884 353 1716 
Q 353 2575 817 3079 
Q 1281 3584 2069 3584 
Q 2775 3584 3186 3129 
Q 3597 2675 3597 1894 
z
M 3022 2063 
Q 3016 2534 2758 2815 
Q 2500 3097 2075 3097 
Q 1594 3097 1305 2825 
Q 1016 2553 972 2059 
L 3022 2063 
z
" transform="scale(0.015625)"/>
      <path id="DejaVuSans-78" d="M 3513 3500 
L 2247 1797 
L 3578 0 
L 2900 0 
L 1881 1375 
L 863 0 
L 184 0 
L 1544 1831 
L 300 3500 
L 978 3500 
L 1906 2253 
L 2834 3500 
L 3513 3500 
z
" transform="scale(0.015625)"/>
      <path id="DejaVuSans-61" d="M 2194 1759 
Q 1497 1759 1228 1600 
Q 959 1441 959 1056 
Q 959 750 1161 570 
Q 1363 391 1709 391 
Q 2188 391 2477 730 
Q 2766 1069 2766 1631 
L 2766 1759 
L 2194 1759 
z
M 3341 1997 
L 3341 0 
L 2766 0 
L 2766 531 
Q 2569 213 2275 61 
Q 1981 -91 1556 -91 
Q 1019 -91 701 211 
Q 384 513 384 1019 
Q 384 1609 779 1909 
Q 1175 2209 1959 2209 
L 2766 2209 
L 2766 2266 
Q 2766 2663 2505 2880 
Q 2244 3097 1772 3097 
Q 1472 3097 1187 3025 
Q 903 2953 641 2809 
L 641 3341 
Q 956 3463 1253 3523 
Q 1550 3584 1831 3584 
Q 2591 3584 2966 3190 
Q 3341 2797 3341 1997 
z
" transform="scale(0.015625)"/>
      <path id="DejaVuSans-74" d="M 1172 4494 
L 1172 3500 
L 2356 3500 
L 2356 3053 
L 1172 3053 
L 1172 1153 
Q 1172 725 1289 603 
Q 1406 481 1766 481 
L 2356 481 
L 2356 0 
L 1766 0 
Q 1100 0 847 248 
Q 594 497 594 1153 
L 594 3053 
L 172 3053 
L 172 3500 
L 594 3500 
L 594 4494 
L 1172 4494 
z
" transform="scale(0.015625)"/>
      <path id="DejaVuSans-6e" d="M 3513 2113 
L 3513 0 
L 2938 0 
L 2938 2094 
Q 2938 2591 2744 2837 
Q 2550 3084 2163 3084 
Q 1697 3084 1428 2787 
Q 1159 2491 1159 1978 
L 1159 0 
L 581 0 
L 581 3500 
L 1159 3500 
L 1159 2956 
Q 1366 3272 1645 3428 
Q 1925 3584 2291 3584 
Q 2894 3584 3203 3211 
Q 3513 2838 3513 2113 
z
" transform="scale(0.015625)"/>
      <path id="DejaVuSans-64" d="M 2906 2969 
L 2906 4863 
L 3481 4863 
L 3481 0 
L 2906 0 
L 2906 525 
Q 2725 213 2448 61 
Q 2172 -91 1784 -91 
Q 1150 -91 751 415 
Q 353 922 353 1747 
Q 353 2572 751 3078 
Q 1150 3584 1784 3584 
Q 2172 3584 2448 3432 
Q 2725 3281 2906 2969 
z
M 947 1747 
Q 947 1113 1208 752 
Q 1469 391 1925 391 
Q 2381 391 2643 752 
Q 2906 1113 2906 1747 
Q 2906 2381 2643 2742 
Q 2381 3103 1925 3103 
Q 1469 3103 1208 2742 
Q 947 2381 947 1747 
z
" transform="scale(0.015625)"/>
      <path id="DejaVuSans-70" d="M 1159 525 
L 1159 -1331 
L 581 -1331 
L 581 3500 
L 1159 3500 
L 1159 2969 
Q 1341 3281 1617 3432 
Q 1894 3584 2278 3584 
Q 2916 3584 3314 3078 
Q 3713 2572 3713 1747 
Q 3713 922 3314 415 
Q 2916 -91 2278 -91 
Q 1894 -91 1617 61 
Q 1341 213 1159 525 
z
M 3116 1747 
Q 3116 2381 2855 2742 
Q 2594 3103 2138 3103 
Q 1681 3103 1420 2742 
Q 1159 2381 1159 1747 
Q 1159 1113 1420 752 
Q 1681 391 2138 391 
Q 2594 391 2855 752 
Q 3116 1113 3116 1747 
z
" transform="scale(0.015625)"/>
      <path id="DejaVuSans-2d" d="M 313 2009 
L 1997 2009 
L 1997 1497 
L 313 1497 
L 313 2009 
z
" transform="scale(0.015625)"/>
      <path id="DejaVuSans-66" d="M 2375 4863 
L 2375 4384 
L 1825 4384 
Q 1516 4384 1395 4259 
Q 1275 4134 1275 3809 
L 1275 3500 
L 2222 3500 
L 2222 3053 
L 1275 3053 
L 1275 0 
L 697 0 
L 697 3053 
L 147 3053 
L 147 3500 
L 697 3500 
L 697 3744 
Q 697 4328 969 4595 
Q 1241 4863 1831 4863 
L 2375 4863 
z
" transform="scale(0.015625)"/>
      <path id="DejaVuSans-69" d="M 603 3500 
L 1178 3500 
L 1178 0 
L 603 0 
L 603 3500 
z
M 603 4863 
L 1178 4863 
L 1178 4134 
L 603 4134 
L 603 4863 
z
" transform="scale(0.015625)"/>
      <path id="DejaVuSans-6f" d="M 1959 3097 
Q 1497 3097 1228 2736 
Q 959 2375 959 1747 
Q 959 1119 1226 758 
Q 1494 397 1959 397 
Q 2419 397 2687 759 
Q 2956 1122 2956 1747 
Q 2956 2369 2687 2733 
Q 2419 3097 1959 3097 
z
M 1959 3584 
Q 2709 3584 3137 3096 
Q 3566 2609 3566 1747 
Q 3566 888 3137 398 
Q 2709 -91 1959 -91 
Q 1206 -91 779 398 
Q 353 888 353 1747 
Q 353 2609 779 3096 
Q 1206 3584 1959 3584 
z
" transform="scale(0.015625)"/>
      <path id="DejaVuSans-300" d="M -2059 5119 
L -1178 3950 
L -1656 3950 
L -2675 5119 
L -2059 5119 
z
M -1600 3584 
L -1600 3584 
z
" transform="scale(0.015625)"/>
     </defs>
     <use xlink:href="#DejaVuSans-75" transform="translate(0 0.828125)"/>
     <use xlink:href="#DejaVuSans-2202" transform="translate(64.335938 39.109375) scale(0.7)"/>
     <use xlink:href="#DejaVuSans-28" transform="translate(103.266602 0.828125)"/>
     <use xlink:href="#DejaVuSans-63" transform="translate(142.280273 0.828125)"/>
     <use xlink:href="#DejaVuSans-29" transform="translate(197.260742 0.828125)"/>
     <use xlink:href="#DejaVuSans-20" transform="translate(236.274414 0.828125)"/>
     <use xlink:href="#DejaVuSans-76" transform="translate(268.061523 0.828125)"/>
     <use xlink:href="#DejaVuSans-73" transform="translate(327.241211 0.828125)"/>
     <use xlink:href="#DejaVuSans-20" transform="translate(379.34082 0.828125)"/>
     <use xlink:href="#DejaVuSans-65" transform="translate(411.12793 0.828125)"/>
     <use xlink:href="#DejaVuSans-78" transform="translate(472.651367 0.828125)"/>
     <use xlink:href="#DejaVuSans-61" transform="translate(531.831055 0.828125)"/>
     <use xlink:href="#DejaVuSans-63" transform="translate(593.110352 0.828125)"/>
     <use xlink:href="#DejaVuSans-74" transform="translate(648.09082 0.828125)"/>
     <use xlink:href="#DejaVuSans-20" transform="translate(687.299805 0.828125)"/>
     <use xlink:href="#DejaVuSans-76" transform="translate(719.086914 0.828125)"/>
     <use xlink:href="#DejaVuSans-2202" transform="translate(779.223633 39.109375) scale(0.7)"/>
     <use xlink:href="#DejaVuSans-227b" transform="translate(792.861328 -26.515625) scale(0.7)"/>
     <use xlink:href="#DejaVuSans-28" transform="translate(867.885742 0.828125)"/>
     <use xlink:href="#DejaVuSans-Oblique-6d" transform="translate(906.899414 0.828125)"/>
     <use xlink:href="#DejaVuSans-2212" transform="translate(1023.793945 0.828125)"/>
     <use xlink:href="#DejaVuSans-63" transform="translate(1127.06543 0.828125)"/>
     <use xlink:href="#DejaVuSans-29" transform="translate(1182.045898 0.828125)"/>
     <use xlink:href="#DejaVuSans-20" transform="translate(1221.05957 0.828125)"/>
     <use xlink:href="#DejaVuSans-61" transform="translate(1252.84668 0.828125)"/>
     <use xlink:href="#DejaVuSans-6e" transform="translate(1314.125977 0.828125)"/>
     <use xlink:href="#DejaVuSans-64" transform="translate(1377.504883 0.828125)"/>
     <use xlink:href="#DejaVuSans-20" transform="translate(1440.981445 0.828125)"/>
     <use xlink:href="#DejaVuSans-73" transform="translate(1472.768555 0.828125)"/>
     <use xlink:href="#DejaVuSans-74" transform="translate(1524.868164 0.828125)"/>
     <use xlink:href="#DejaVuSans-65" transform="translate(1564.077148 0.828125)"/>
     <use xlink:href="#DejaVuSans-70" transform="translate(1625.600586 0.828125)"/>
     <use xlink:href="#DejaVuSans-2d" transform="translate(1689.077148 0.828125)"/>
     <use xlink:href="#DejaVuSans-66" transform="translate(1725.161133 0.828125)"/>
     <use xlink:href="#DejaVuSans-75" transform="translate(1760.366211 0.828125)"/>
     <use xlink:href="#DejaVuSans-6e" transform="translate(1823.745117 0.828125)"/>
     <use xlink:href="#DejaVuSans-63" transform="translate(1887.124023 0.828125)"/>
     <use xlink:href="#DejaVuSans-74" transform="translate(1942.104492 0.828125)"/>
     <use xlink:href="#DejaVuSans-69" transform="translate(1981.313477 0.828125)"/>
     <use xlink:href="#DejaVuSans-6f" transform="translate(2009.09668 0.828125)"/>
     <use xlink:href="#DejaVuSans-6e" transform="translate(2070.27832 0.828125)"/>
     <use xlink:href="#DejaVuSans-20" transform="translate(2133.657227 0.828125)"/>
     <use xlink:href="#DejaVuSans-300" transform="translate(2232.036133 12.015625)"/>
     <use xlink:href="#DejaVuSans-76" transform="translate(2165.444336 0.828125)"/>
     <use xlink:href="#DejaVuSans-2202" transform="translate(2225.581055 39.109375) scale(0.7)"/>
     <use xlink:href="#DejaVuSans-227b" transform="translate(2239.21875 -26.515625) scale(0.7)"/>
     <use xlink:href="#DejaVuSans-28" transform="translate(2314.243164 0.828125)"/>
     <use xlink:href="#DejaVuSans-Oblique-6d" transform="translate(2353.256836 0.828125)"/>
     <use xlink:href="#DejaVuSans-2212" transform="translate(2470.151367 0.828125)"/>
     <use xlink:href="#DejaVuSans-63" transform="translate(2573.422852 0.828125)"/>
     <use xlink:href="#DejaVuSans-29" transform="translate(2628.40332 0.828125)"/>
    </g>
   </g>
   <g id="legend_1">
    <g id="patch_7">
     <path d="M 319.76 114.272 
L 409.12 114.272 
Q 410.72 114.272 410.72 112.672 
L 410.72 47.072 
Q 410.72 45.472 409.12 45.472 
L 319.76 45.472 
Q 318.16 45.472 318.16 47.072 
L 318.16 112.672 
Q 318.16 114.272 319.76 114.272 
z
" style="fill: #ffffff; opacity: 0.8; stroke: #cccccc; stroke-linejoin: miter"/>
    </g>
    <g id="line2d_24">
     <path d="M 321.36 52.36825 
L 329.36 52.36825 
L 337.36 52.36825 
" style="fill: none; stroke: #000000; stroke-width: 2.5; stroke-linecap: square"/>
    </g>
    <g id="text_22">
     <!-- $\mathrm{u}^{\partial}(\mathrm{c}_{T-1})$ -->
     <g transform="translate(343.76 55.16825) scale(0.08 -0.08)">
      <use xlink:href="#DejaVuSans-75" transform="translate(0 0.365625)"/>
      <use xlink:href="#DejaVuSans-2202" transform="translate(64.335938 38.646875) scale(0.7)"/>
      <use xlink:href="#DejaVuSans-28" transform="translate(103.266602 0.365625)"/>
      <use xlink:href="#DejaVuSans-63" transform="translate(142.280273 0.365625)"/>
      <use xlink:href="#DejaVuSans-Oblique-54" transform="translate(198.217773 -16.040625) scale(0.7)"/>
      <use xlink:href="#DejaVuSans-2212" transform="translate(254.614258 -16.040625) scale(0.7)"/>
      <use xlink:href="#DejaVuSans-31" transform="translate(326.904297 -16.040625) scale(0.7)"/>
      <use xlink:href="#DejaVuSans-29" transform="translate(374.174805 0.365625)"/>
     </g>
    </g>
    <g id="line2d_25">
     <path d="M 321.36 64.832 
L 329.36 64.832 
L 337.36 64.832 
" style="fill: none; stroke: #1f77b4; stroke-width: 1.5; stroke-linecap: square"/>
    </g>
    <g id="text_23">
     <!-- $\mathrm{v}^{\partial}_{\succ}(3 - \mathrm{c})$ exact -->
     <g transform="translate(343.76 67.632) scale(0.08 -0.08)">
      <use xlink:href="#DejaVuSans-76" transform="translate(0 0.365625)"/>
      <use xlink:href="#DejaVuSans-2202" transform="translate(60.136719 38.646875) scale(0.7)"/>
      <use xlink:href="#DejaVuSans-227b" transform="translate(73.774414 -26.978125) scale(0.7)"/>
      <use xlink:href="#DejaVuSans-28" transform="translate(148.798828 0.365625)"/>
      <use xlink:href="#DejaVuSans-33" transform="translate(187.8125 0.365625)"/>
      <use xlink:href="#DejaVuSans-2212" transform="translate(270.917969 0.365625)"/>
      <use xlink:href="#DejaVuSans-63" transform="translate(374.189453 0.365625)"/>
      <use xlink:href="#DejaVuSans-29" transform="translate(429.169922 0.365625)"/>
      <use xlink:href="#DejaVuSans-20" transform="translate(468.183594 0.365625)"/>
      <use xlink:href="#DejaVuSans-65" transform="translate(499.970703 0.365625)"/>
      <use xlink:href="#DejaVuSans-78" transform="translate(561.494141 0.365625)"/>
      <use xlink:href="#DejaVuSans-61" transform="translate(620.673828 0.365625)"/>
      <use xlink:href="#DejaVuSans-63" transform="translate(681.953125 0.365625)"/>
      <use xlink:href="#DejaVuSans-74" transform="translate(736.933594 0.365625)"/>
     </g>
    </g>
    <g id="line2d_26">
     <path d="M 321.36 78.672 
L 329.36 78.672 
L 337.36 78.672 
" style="fill: none; stroke-dasharray: 3.7,1.6; stroke-dashoffset: 0; stroke: #1f77b4"/>
    </g>
    <g id="text_24">
     <!-- $\grave{\mathrm{v}}^{\partial}_{\succ}(3 - \mathrm{c})$ interp -->
     <g transform="translate(343.76 81.472) scale(0.08 -0.08)">
      <defs>
       <path id="DejaVuSans-72" d="M 2631 2963 
Q 2534 3019 2420 3045 
Q 2306 3072 2169 3072 
Q 1681 3072 1420 2755 
Q 1159 2438 1159 1844 
L 1159 0 
L 581 0 
L 581 3500 
L 1159 3500 
L 1159 2956 
Q 1341 3275 1631 3429 
Q 1922 3584 2338 3584 
Q 2397 3584 2469 3576 
Q 2541 3569 2628 3553 
L 2631 2963 
z
" transform="scale(0.015625)"/>
      </defs>
      <use xlink:href="#DejaVuSans-300" transform="translate(66.591797 12.015625)"/>
      <use xlink:href="#DejaVuSans-76" transform="translate(0 0.828125)"/>
      <use xlink:href="#DejaVuSans-2202" transform="translate(60.136719 39.109375) scale(0.7)"/>
      <use xlink:href="#DejaVuSans-227b" transform="translate(73.774414 -26.515625) scale(0.7)"/>
      <use xlink:href="#DejaVuSans-28" transform="translate(148.798828 0.828125)"/>
      <use xlink:href="#DejaVuSans-33" transform="translate(187.8125 0.828125)"/>
      <use xlink:href="#DejaVuSans-2212" transform="translate(270.917969 0.828125)"/>
      <use xlink:href="#DejaVuSans-63" transform="translate(374.189453 0.828125)"/>
      <use xlink:href="#DejaVuSans-29" transform="translate(429.169922 0.828125)"/>
      <use xlink:href="#DejaVuSans-20" transform="translate(468.183594 0.828125)"/>
      <use xlink:href="#DejaVuSans-69" transform="translate(499.970703 0.828125)"/>
      <use xlink:href="#DejaVuSans-6e" transform="translate(527.753906 0.828125)"/>
      <use xlink:href="#DejaVuSans-74" transform="translate(591.132812 0.828125)"/>
      <use xlink:href="#DejaVuSans-65" transform="translate(630.341797 0.828125)"/>
      <use xlink:href="#DejaVuSans-72" transform="translate(691.865234 0.828125)"/>
      <use xlink:href="#DejaVuSans-70" transform="translate(732.978516 0.828125)"/>
     </g>
    </g>
    <g id="line2d_27">
     <path d="M 321.36 91.952 
L 329.36 91.952 
L 337.36 91.952 
" style="fill: none; stroke: #ff7f0e; stroke-width: 1.5; stroke-linecap: square"/>
    </g>
    <g id="text_25">
     <!-- $\mathrm{v}^{\partial}_{\succ}(4 - \mathrm{c})$ exact -->
     <g transform="translate(343.76 94.752) scale(0.08 -0.08)">
      <use xlink:href="#DejaVuSans-76" transform="translate(0 0.365625)"/>
      <use xlink:href="#DejaVuSans-2202" transform="translate(60.136719 38.646875) scale(0.7)"/>
      <use xlink:href="#DejaVuSans-227b" transform="translate(73.774414 -26.978125) scale(0.7)"/>
      <use xlink:href="#DejaVuSans-28" transform="translate(148.798828 0.365625)"/>
      <use xlink:href="#DejaVuSans-34" transform="translate(187.8125 0.365625)"/>
      <use xlink:href="#DejaVuSans-2212" transform="translate(270.917969 0.365625)"/>
      <use xlink:href="#DejaVuSans-63" transform="translate(374.189453 0.365625)"/>
      <use xlink:href="#DejaVuSans-29" transform="translate(429.169922 0.365625)"/>
      <use xlink:href="#DejaVuSans-20" transform="translate(468.183594 0.365625)"/>
      <use xlink:href="#DejaVuSans-65" transform="translate(499.970703 0.365625)"/>
      <use xlink:href="#DejaVuSans-78" transform="translate(561.494141 0.365625)"/>
      <use xlink:href="#DejaVuSans-61" transform="translate(620.673828 0.365625)"/>
      <use xlink:href="#DejaVuSans-63" transform="translate(681.953125 0.365625)"/>
      <use xlink:href="#DejaVuSans-74" transform="translate(736.933594 0.365625)"/>
     </g>
    </g>
    <g id="line2d_28">
     <path d="M 321.36 105.792 
L 329.36 105.792 
L 337.36 105.792 
" style="fill: none; stroke-dasharray: 3.7,1.6; stroke-dashoffset: 0; stroke: #ff7f0e"/>
    </g>
    <g id="text_26">
     <!-- $\grave{\mathrm{v}}^{\partial}_{\succ}(4 - \mathrm{c})$ interp -->
     <g transform="translate(343.76 108.592) scale(0.08 -0.08)">
      <use xlink:href="#DejaVuSans-300" transform="translate(66.591797 12.015625)"/>
      <use xlink:href="#DejaVuSans-76" transform="translate(0 0.828125)"/>
      <use xlink:href="#DejaVuSans-2202" transform="translate(60.136719 39.109375) scale(0.7)"/>
      <use xlink:href="#DejaVuSans-227b" transform="translate(73.774414 -26.515625) scale(0.7)"/>
      <use xlink:href="#DejaVuSans-28" transform="translate(148.798828 0.828125)"/>
      <use xlink:href="#DejaVuSans-34" transform="translate(187.8125 0.828125)"/>
      <use xlink:href="#DejaVuSans-2212" transform="translate(270.917969 0.828125)"/>
      <use xlink:href="#DejaVuSans-63" transform="translate(374.189453 0.828125)"/>
      <use xlink:href="#DejaVuSans-29" transform="translate(429.169922 0.828125)"/>
      <use xlink:href="#DejaVuSans-20" transform="translate(468.183594 0.828125)"/>
      <use xlink:href="#DejaVuSans-69" transform="translate(499.970703 0.828125)"/>
      <use xlink:href="#DejaVuSans-6e" transform="translate(527.753906 0.828125)"/>
      <use xlink:href="#DejaVuSans-74" transform="translate(591.132812 0.828125)"/>
      <use xlink:href="#DejaVuSans-65" transform="translate(630.341797 0.828125)"/>
      <use xlink:href="#DejaVuSans-72" transform="translate(691.865234 0.828125)"/>
      <use xlink:href="#DejaVuSans-70" transform="translate(732.978516 0.828125)"/>
     </g>
    </g>
   </g>
  </g>
 </g>
 <defs>
  <clipPath id="p047dd4aaf0">
   <rect x="57.6" y="41.472" width="357.12" height="266.112"/>
  </clipPath>
 </defs>
</svg>
