<?xml version="1.0" encoding="utf-8" standalone="no"?>
<!DOCTYPE svg PUBLIC "-//W3C//DTD SVG 1.1//EN"
  "http://www.w3.org/Graphics/SVG/1.1/DTD/svg11.dtd">
<svg xmlns:xlink="http://www.w3.org/1999/xlink" width="1008pt" height="720pt" viewBox="0 0 1008 720" xmlns="http://www.w3.org/2000/svg" version="1.1">
 <defs>
  <style type="text/css">*{stroke-linejoin: round; stroke-linecap: butt}</style>
 </defs>
 <g id="figure_1">
  <g id="patch_1">
   <path d="M 0 720 
L 1008 720 
L 1008 0 
L 0 0 
z
" style="fill: #ffffff"/>
  </g>
  <g id="axes_1">
   <g id="patch_2">
    <path d="M 39.71 322.72 
L 491.859 322.72 
L 491.859 29.832 
L 39.71 29.832 
z
" style="fill: #ffffff"/>
   </g>
   <g id="matplotlib.axis_1">
    <g id="xtick_1">
     <g id="line2d_1">
      <defs>
       <path id="m0ea66eb5a7" d="M 0 0 
L 0 3.5 
" style="stroke: #000000; stroke-width: 0.8"/>
      </defs>
      <g>
       <use xlink:href="#m0ea66eb5a7" x="87.665197" y="322.72" style="stroke: #000000; stroke-width: 0.8"/>
      </g>
     </g>
     <g id="text_1">
      <!-- 1 -->
      <g transform="translate(84.483947 337.318438) scale(0.1 -0.1)">
       <defs>
        <path id="DejaVuSans-31" d="M 794 531 
L 1825 531 
L 1825 4091 
L 703 3866 
L 703 4441 
L 1819 4666 
L 2450 4666 
L 2450 531 
L 3481 531 
L 3481 0 
L 794 0 
L 794 531 
z
" transform="scale(0.015625)"/>
       </defs>
       <use xlink:href="#DejaVuSans-31"/>
      </g>
     </g>
    </g>
    <g id="xtick_2">
     <g id="line2d_2">
      <g>
       <use xlink:href="#m0ea66eb5a7" x="142.471136" y="322.72" style="stroke: #000000; stroke-width: 0.8"/>
      </g>
     </g>
     <g id="text_2">
      <!-- 2 -->
      <g transform="translate(139.289886 337.318438) scale(0.1 -0.1)">
       <defs>
        <path id="DejaVuSans-32" d="M 1228 531 
L 3431 531 
L 3431 0 
L 469 0 
L 469 531 
Q 828 903 1448 1529 
Q 2069 2156 2228 2338 
Q 2531 2678 2651 2914 
Q 2772 3150 2772 3378 
Q 2772 3750 2511 3984 
Q 2250 4219 1831 4219 
Q 1534 4219 1204 4116 
Q 875 4013 500 3803 
L 500 4441 
Q 881 4594 1212 4672 
Q 1544 4750 1819 4750 
Q 2544 4750 2975 4387 
Q 3406 4025 3406 3419 
Q 3406 3131 3298 2873 
Q 3191 2616 2906 2266 
Q 2828 2175 2409 1742 
Q 1991 1309 1228 531 
z
" transform="scale(0.015625)"/>
       </defs>
       <use xlink:href="#DejaVuSans-32"/>
      </g>
     </g>
    </g>
    <g id="xtick_3">
     <g id="line2d_3">
      <g>
       <use xlink:href="#m0ea66eb5a7" x="197.277076" y="322.72" style="stroke: #000000; stroke-width: 0.8"/>
      </g>
     </g>
     <g id="text_3">
      <!-- 3 -->
      <g transform="translate(194.095826 337.318438) scale(0.1 -0.1)">
       <defs>
        <path id="DejaVuSans-33" d="M 2597 2516 
Q 3050 2419 3304 2112 
Q 3559 1806 3559 1356 
Q 3559 666 3084 287 
Q 2609 -91 1734 -91 
Q 1441 -91 1130 -33 
Q 819 25 488 141 
L 488 750 
Q 750 597 1062 519 
Q 1375 441 1716 441 
Q 2309 441 2620 675 
Q 2931 909 2931 1356 
Q 2931 1769 2642 2001 
Q 2353 2234 1838 2234 
L 1294 2234 
L 1294 2753 
L 1863 2753 
Q 2328 2753 2575 2939 
Q 2822 3125 2822 3475 
Q 2822 3834 2567 4026 
Q 2313 4219 1838 4219 
Q 1578 4219 1281 4162 
Q 984 4106 628 3988 
L 628 4550 
Q 988 4650 1302 4700 
Q 1616 4750 1894 4750 
Q 2613 4750 3031 4423 
Q 3450 4097 3450 3541 
Q 3450 3153 3228 2886 
Q 3006 2619 2597 2516 
z
" transform="scale(0.015625)"/>
       </defs>
       <use xlink:href="#DejaVuSans-33"/>
      </g>
     </g>
    </g>
    <g id="xtick_4">
     <g id="line2d_4">
      <g>
       <use xlink:href="#m0ea66eb5a7" x="252.083015" y="322.72" style="stroke: #000000; stroke-width: 0.8"/>
      </g>
     </g>
     <g id="text_4">
      <!-- 4 -->
      <g transform="translate(248.901765 337.318438) scale(0.1 -0.1)">
       <defs>
        <path id="DejaVuSans-34" d="M 2419 4116 
L 825 1625 
L 2419 1625 
L 2419 4116 
z
M 2253 4666 
L 3047 4666 
L 3047 1625 
L 3713 1625 
L 3713 1100 
L 3047 1100 
L 3047 0 
L 2419 0 
L 2419 1100 
L 313 1100 
L 313 1709 
L 2253 4666 
z
" transform="scale(0.015625)"/>
       </defs>
       <use xlink:href="#DejaVuSans-34"/>
      </g>
     </g>
    </g>
    <g id="xtick_5">
     <g id="line2d_5">
      <g>
       <use xlink:href="#m0ea66eb5a7" x="306.888955" y="322.72" style="stroke: #000000; stroke-width: 0.8"/>
      </g>
     </g>
     <g id="text_5">
      <!-- 5 -->
      <g transform="translate(303.707705 337.318438) scale(0.1 -0.1)">
       <defs>
        <path id="DejaVuSans-35" d="M 691 4666 
L 3169 4666 
L 3169 4134 
L 1269 4134 
L 1269 2991 
Q 1406 3038 1543 3061 
Q 1681 3084 1819 3084 
Q 2600 3084 3056 2656 
Q 3513 2228 3513 1497 
Q 3513 744 3044 326 
Q 2575 -91 1722 -91 
Q 1428 -91 1123 -41 
Q 819 9 494 109 
L 494 744 
Q 775 591 1075 516 
Q 1375 441 1709 441 
Q 2250 441 2565 725 
Q 2881 1009 2881 1497 
Q 2881 1984 2565 2268 
Q 2250 2553 1709 2553 
Q 1456 2553 1204 2497 
Q 953 2441 691 2322 
L 691 4666 
z
" transform="scale(0.015625)"/>
       </defs>
       <use xlink:href="#DejaVuSans-35"/>
      </g>
     </g>
    </g>
    <g id="xtick_6">
     <g id="line2d_6">
      <g>
       <use xlink:href="#m0ea66eb5a7" x="361.694894" y="322.72" style="stroke: #000000; stroke-width: 0.8"/>
      </g>
     </g>
     <g id="text_6">
      <!-- 6 -->
      <g transform="translate(358.513644 337.318438) scale(0.1 -0.1)">
       <defs>
        <path id="DejaVuSans-36" d="M 2113 2584 
Q 1688 2584 1439 2293 
Q 1191 2003 1191 1497 
Q 1191 994 1439 701 
Q 1688 409 2113 409 
Q 2538 409 2786 701 
Q 3034 994 3034 1497 
Q 3034 2003 2786 2293 
Q 2538 2584 2113 2584 
z
M 3366 4563 
L 3366 3988 
Q 3128 4100 2886 4159 
Q 2644 4219 2406 4219 
Q 1781 4219 1451 3797 
Q 1122 3375 1075 2522 
Q 1259 2794 1537 2939 
Q 1816 3084 2150 3084 
Q 2853 3084 3261 2657 
Q 3669 2231 3669 1497 
Q 3669 778 3244 343 
Q 2819 -91 2113 -91 
Q 1303 -91 875 529 
Q 447 1150 447 2328 
Q 447 3434 972 4092 
Q 1497 4750 2381 4750 
Q 2619 4750 2861 4703 
Q 3103 4656 3366 4563 
z
" transform="scale(0.015625)"/>
       </defs>
       <use xlink:href="#DejaVuSans-36"/>
      </g>
     </g>
    </g>
    <g id="xtick_7">
     <g id="line2d_7">
      <g>
       <use xlink:href="#m0ea66eb5a7" x="416.500833" y="322.72" style="stroke: #000000; stroke-width: 0.8"/>
      </g>
     </g>
     <g id="text_7">
      <!-- 7 -->
      <g transform="translate(413.319583 337.318438) scale(0.1 -0.1)">
       <defs>
        <path id="DejaVuSans-37" d="M 525 4666 
L 3525 4666 
L 3525 4397 
L 1831 0 
L 1172 0 
L 2766 4134 
L 525 4134 
L 525 4666 
z
" transform="scale(0.015625)"/>
       </defs>
       <use xlink:href="#DejaVuSans-37"/>
      </g>
     </g>
    </g>
    <g id="xtick_8">
     <g id="line2d_8">
      <g>
       <use xlink:href="#m0ea66eb5a7" x="471.306773" y="322.72" style="stroke: #000000; stroke-width: 0.8"/>
      </g>
     </g>
     <g id="text_8">
      <!-- 8 -->
      <g transform="translate(468.125523 337.318438) scale(0.1 -0.1)">
       <defs>
        <path id="DejaVuSans-38" d="M 2034 2216 
Q 1584 2216 1326 1975 
Q 1069 1734 1069 1313 
Q 1069 891 1326 650 
Q 1584 409 2034 409 
Q 2484 409 2743 651 
Q 3003 894 3003 1313 
Q 3003 1734 2745 1975 
Q 2488 2216 2034 2216 
z
M 1403 2484 
Q 997 2584 770 2862 
Q 544 3141 544 3541 
Q 544 4100 942 4425 
Q 1341 4750 2034 4750 
Q 2731 4750 3128 4425 
Q 3525 4100 3525 3541 
Q 3525 3141 3298 2862 
Q 3072 2584 2669 2484 
Q 3125 2378 3379 2068 
Q 3634 1759 3634 1313 
Q 3634 634 3220 271 
Q 2806 -91 2034 -91 
Q 1263 -91 848 271 
Q 434 634 434 1313 
Q 434 1759 690 2068 
Q 947 2378 1403 2484 
z
M 1172 3481 
Q 1172 3119 1398 2916 
Q 1625 2713 2034 2713 
Q 2441 2713 2670 2916 
Q 2900 3119 2900 3481 
Q 2900 3844 2670 4047 
Q 2441 4250 2034 4250 
Q 1625 4250 1398 4047 
Q 1172 3844 1172 3481 
z
" transform="scale(0.015625)"/>
       </defs>
       <use xlink:href="#DejaVuSans-38"/>
      </g>
     </g>
    </g>
    <g id="text_9">
     <!-- $m$ -->
     <g transform="translate(260.8845 350.996563) scale(0.1 -0.1)">
      <defs>
       <path id="DejaVuSans-Oblique-6d" d="M 5747 2113 
L 5338 0 
L 4763 0 
L 5166 2094 
Q 5191 2228 5203 2325 
Q 5216 2422 5216 2491 
Q 5216 2772 5059 2928 
Q 4903 3084 4622 3084 
Q 4203 3084 3875 2770 
Q 3547 2456 3450 1953 
L 3066 0 
L 2491 0 
L 2900 2094 
Q 2925 2209 2937 2307 
Q 2950 2406 2950 2484 
Q 2950 2769 2794 2926 
Q 2638 3084 2363 3084 
Q 1938 3084 1609 2770 
Q 1281 2456 1184 1953 
L 800 0 
L 225 0 
L 909 3500 
L 1484 3500 
L 1375 2956 
Q 1609 3263 1923 3423 
Q 2238 3584 2597 3584 
Q 2978 3584 3223 3384 
Q 3469 3184 3519 2828 
Q 3781 3197 4126 3390 
Q 4472 3584 4856 3584 
Q 5306 3584 5551 3325 
Q 5797 3066 5797 2591 
Q 5797 2488 5784 2364 
Q 5772 2241 5747 2113 
z
" transform="scale(0.015625)"/>
      </defs>
      <use xlink:href="#DejaVuSans-Oblique-6d"/>
     </g>
    </g>
   </g>
   <g id="matplotlib.axis_2">
    <g id="ytick_1">
     <g id="line2d_9">
      <defs>
       <path id="m96f16b4e76" d="M 0 0 
L -3.5 0 
" style="stroke: #000000; stroke-width: 0.8"/>
      </defs>
      <g>
       <use xlink:href="#m96f16b4e76" x="39.71" y="291.653685" style="stroke: #000000; stroke-width: 0.8"/>
      </g>
     </g>
     <g id="text_10">
      <!-- 1 -->
      <g transform="translate(26.3475 295.452903) scale(0.1 -0.1)">
       <use xlink:href="#DejaVuSans-31"/>
      </g>
     </g>
    </g>
    <g id="ytick_2">
     <g id="line2d_10">
      <g>
       <use xlink:href="#m96f16b4e76" x="39.71" y="256.152457" style="stroke: #000000; stroke-width: 0.8"/>
      </g>
     </g>
     <g id="text_11">
      <!-- 2 -->
      <g transform="translate(26.3475 259.951676) scale(0.1 -0.1)">
       <use xlink:href="#DejaVuSans-32"/>
      </g>
     </g>
    </g>
    <g id="ytick_3">
     <g id="line2d_11">
      <g>
       <use xlink:href="#m96f16b4e76" x="39.71" y="220.651229" style="stroke: #000000; stroke-width: 0.8"/>
      </g>
     </g>
     <g id="text_12">
      <!-- 3 -->
      <g transform="translate(26.3475 224.450448) scale(0.1 -0.1)">
       <use xlink:href="#DejaVuSans-33"/>
      </g>
     </g>
    </g>
    <g id="ytick_4">
     <g id="line2d_12">
      <g>
       <use xlink:href="#m96f16b4e76" x="39.71" y="185.150002" style="stroke: #000000; stroke-width: 0.8"/>
      </g>
     </g>
     <g id="text_13">
      <!-- 4 -->
      <g transform="translate(26.3475 188.94922) scale(0.1 -0.1)">
       <use xlink:href="#DejaVuSans-34"/>
      </g>
     </g>
    </g>
    <g id="ytick_5">
     <g id="line2d_13">
      <g>
       <use xlink:href="#m96f16b4e76" x="39.71" y="149.648774" style="stroke: #000000; stroke-width: 0.8"/>
      </g>
     </g>
     <g id="text_14">
      <!-- 5 -->
      <g transform="translate(26.3475 153.447993) scale(0.1 -0.1)">
       <use xlink:href="#DejaVuSans-35"/>
      </g>
     </g>
    </g>
    <g id="ytick_6">
     <g id="line2d_14">
      <g>
       <use xlink:href="#m96f16b4e76" x="39.71" y="114.147546" style="stroke: #000000; stroke-width: 0.8"/>
      </g>
     </g>
     <g id="text_15">
      <!-- 6 -->
      <g transform="translate(26.3475 117.946765) scale(0.1 -0.1)">
       <use xlink:href="#DejaVuSans-36"/>
      </g>
     </g>
    </g>
    <g id="ytick_7">
     <g id="line2d_15">
      <g>
       <use xlink:href="#m96f16b4e76" x="39.71" y="78.646319" style="stroke: #000000; stroke-width: 0.8"/>
      </g>
     </g>
     <g id="text_16">
      <!-- 7 -->
      <g transform="translate(26.3475 82.445537) scale(0.1 -0.1)">
       <use xlink:href="#DejaVuSans-37"/>
      </g>
     </g>
    </g>
    <g id="ytick_8">
     <g id="line2d_16">
      <g>
       <use xlink:href="#m96f16b4e76" x="39.71" y="43.145091" style="stroke: #000000; stroke-width: 0.8"/>
      </g>
     </g>
     <g id="text_17">
      <!-- 8 -->
      <g transform="translate(26.3475 46.94431) scale(0.1 -0.1)">
       <use xlink:href="#DejaVuSans-38"/>
      </g>
     </g>
    </g>
    <g id="text_18">
     <!-- $\mathrm{c}(m)$ -->
     <g transform="translate(20.267813 187.826) rotate(-90) scale(0.1 -0.1)">
      <defs>
       <path id="DejaVuSans-63" d="M 3122 3366 
L 3122 2828 
Q 2878 2963 2633 3030 
Q 2388 3097 2138 3097 
Q 1578 3097 1268 2742 
Q 959 2388 959 1747 
Q 959 1106 1268 751 
Q 1578 397 2138 397 
Q 2388 397 2633 464 
Q 2878 531 3122 666 
L 3122 134 
Q 2881 22 2623 -34 
Q 2366 -91 2075 -91 
Q 1284 -91 818 406 
Q 353 903 353 1747 
Q 353 2603 823 3093 
Q 1294 3584 2113 3584 
Q 2378 3584 2631 3529 
Q 2884 3475 3122 3366 
z
" transform="scale(0.015625)"/>
       <path id="DejaVuSans-28" d="M 1984 4856 
Q 1566 4138 1362 3434 
Q 1159 2731 1159 2009 
Q 1159 1288 1364 580 
Q 1569 -128 1984 -844 
L 1484 -844 
Q 1016 -109 783 600 
Q 550 1309 550 2009 
Q 550 2706 781 3412 
Q 1013 4119 1484 4856 
L 1984 4856 
z
" transform="scale(0.015625)"/>
       <path id="DejaVuSans-29" d="M 513 4856 
L 1013 4856 
Q 1481 4119 1714 3412 
Q 1947 2706 1947 2009 
Q 1947 1309 1714 600 
Q 1481 -109 1013 -844 
L 513 -844 
Q 928 -128 1133 580 
Q 1338 1288 1338 2009 
Q 1338 2731 1133 3434 
Q 928 4138 513 4856 
z
" transform="scale(0.015625)"/>
      </defs>
      <use xlink:href="#DejaVuSans-63" transform="translate(0 0.125)"/>
      <use xlink:href="#DejaVuSans-28" transform="translate(54.980469 0.125)"/>
      <use xlink:href="#DejaVuSans-Oblique-6d" transform="translate(93.994141 0.125)"/>
      <use xlink:href="#DejaVuSans-29" transform="translate(191.40625 0.125)"/>
     </g>
    </g>
   </g>
   <g id="line2d_17">
    <path d="M 60.262227 309.406901 
L 82.983283 294.691213 
L 85.048833 293.65982 
L 130.490944 278.386592 
L 204.850761 253.658304 
L 339.111542 209.278297 
L 471.306773 165.691247 
L 471.306773 165.691247 
" clip-path="url(#pcc818de939)" style="fill: none; stroke: #0000ff; stroke-width: 2; stroke-linecap: square"/>
   </g>
   <g id="line2d_18">
    <path d="M 60.262227 309.406909 
L 82.983283 294.691228 
L 85.048833 293.704003 
L 111.900989 284.583363 
L 173.867504 263.897382 
L 281.276129 228.308478 
L 471.306773 165.58416 
L 471.306773 165.58416 
" clip-path="url(#pcc818de939)" style="fill: none; stroke: #ff0000; stroke-width: 2; stroke-linecap: square"/>
   </g>
   <g id="line2d_19">
    <path d="M 60.262227 309.404298 
L 82.983283 294.686453 
L 85.048833 293.704003 
L 111.900989 284.583363 
L 173.867504 263.897382 
L 281.276129 228.308478 
L 471.306773 165.58416 
L 471.306773 165.58416 
" clip-path="url(#pcc818de939)" style="fill: none; stroke: #008000; stroke-width: 2; stroke-linecap: square"/>
   </g>
   <g id="line2d_20">
    <path d="M 60.262227 309.404298 
L 471.306773 43.145091 
L 471.306773 43.145091 
" clip-path="url(#pcc818de939)" style="fill: none; stroke-dasharray: 5.55,2.4; stroke-dashoffset: 0; stroke: #000000; stroke-opacity: 0.2; stroke-width: 1.5"/>
   </g>
   <g id="patch_3">
    <path d="M 39.71 322.72 
L 39.71 29.832 
" style="fill: none; stroke: #000000; stroke-width: 0.8; stroke-linejoin: miter; stroke-linecap: square"/>
   </g>
   <g id="patch_4">
    <path d="M 491.859 322.72 
L 491.859 29.832 
" style="fill: none; stroke: #000000; stroke-width: 0.8; stroke-linejoin: miter; stroke-linecap: square"/>
   </g>
   <g id="patch_5">
    <path d="M 39.71 322.72 
L 491.859 322.72 
" style="fill: none; stroke: #000000; stroke-width: 0.8; stroke-linejoin: miter; stroke-linecap: square"/>
   </g>
   <g id="patch_6">
    <path d="M 39.71 29.832 
L 491.859 29.832 
" style="fill: none; stroke: #000000; stroke-width: 0.8; stroke-linejoin: miter; stroke-linecap: square"/>
   </g>
   <g id="text_19">
    <!-- $\mathrm{c}_{T-1}(m)$ across period types -->
    <g transform="translate(180.5845 23.832) scale(0.12 -0.12)">
     <defs>
      <path id="DejaVuSans-Oblique-54" d="M 378 4666 
L 4325 4666 
L 4225 4134 
L 2559 4134 
L 1759 0 
L 1125 0 
L 1925 4134 
L 275 4134 
L 378 4666 
z
" transform="scale(0.015625)"/>
      <path id="DejaVuSans-2212" d="M 678 2272 
L 4684 2272 
L 4684 1741 
L 678 1741 
L 678 2272 
z
" transform="scale(0.015625)"/>
      <path id="DejaVuSans-20" transform="scale(0.015625)"/>
      <path id="DejaVuSans-61" d="M 2194 1759 
Q 1497 1759 1228 1600 
Q 959 1441 959 1056 
Q 959 750 1161 570 
Q 1363 391 1709 391 
Q 2188 391 2477 730 
Q 2766 1069 2766 1631 
L 2766 1759 
L 2194 1759 
z
M 3341 1997 
L 3341 0 
L 2766 0 
L 2766 531 
Q 2569 213 2275 61 
Q 1981 -91 1556 -91 
Q 1019 -91 701 211 
Q 384 513 384 1019 
Q 384 1609 779 1909 
Q 1175 2209 1959 2209 
L 2766 2209 
L 2766 2266 
Q 2766 2663 2505 2880 
Q 2244 3097 1772 3097 
Q 1472 3097 1187 3025 
Q 903 2953 641 2809 
L 641 3341 
Q 956 3463 1253 3523 
Q 1550 3584 1831 3584 
Q 2591 3584 2966 3190 
Q 3341 2797 3341 1997 
z
" transform="scale(0.015625)"/>
      <path id="DejaVuSans-72" d="M 2631 2963 
Q 2534 3019 2420 3045 
Q 2306 3072 2169 3072 
Q 1681 3072 1420 2755 
Q 1159 2438 1159 1844 
L 1159 0 
L 581 0 
L 581 3500 
L 1159 3500 
L 1159 2956 
Q 1341 3275 1631 3429 
Q 1922 3584 2338 3584 
Q 2397 3584 2469 3576 
Q 2541 3569 2628 3553 
L 2631 2963 
z
" transform="scale(0.015625)"/>
      <path id="DejaVuSans-6f" d="M 1959 3097 
Q 1497 3097 1228 2736 
Q 959 2375 959 1747 
Q 959 1119 1226 758 
Q 1494 397 1959 397 
Q 2419 397 2687 759 
Q 2956 1122 2956 1747 
Q 2956 2369 2687 2733 
Q 2419 3097 1959 3097 
z
M 1959 3584 
Q 2709 3584 3137 3096 
Q 3566 2609 3566 1747 
Q 3566 888 3137 398 
Q 2709 -91 1959 -91 
Q 1206 -91 779 398 
Q 353 888 353 1747 
Q 353 2609 779 3096 
Q 1206 3584 1959 3584 
z
" transform="scale(0.015625)"/>
      <path id="DejaVuSans-73" d="M 2834 3397 
L 2834 2853 
Q 2591 2978 2328 3040 
Q 2066 3103 1784 3103 
Q 1356 3103 1142 2972 
Q 928 2841 928 2578 
Q 928 2378 1081 2264 
Q 1234 2150 1697 2047 
L 1894 2003 
Q 2506 1872 2764 1633 
Q 3022 1394 3022 966 
Q 3022 478 2636 193 
Q 2250 -91 1575 -91 
Q 1294 -91 989 -36 
Q 684 19 347 128 
L 347 722 
Q 666 556 975 473 
Q 1284 391 1588 391 
Q 1994 391 2212 530 
Q 2431 669 2431 922 
Q 2431 1156 2273 1281 
Q 2116 1406 1581 1522 
L 1381 1569 
Q 847 1681 609 1914 
Q 372 2147 372 2553 
Q 372 3047 722 3315 
Q 1072 3584 1716 3584 
Q 2034 3584 2315 3537 
Q 2597 3491 2834 3397 
z
" transform="scale(0.015625)"/>
      <path id="DejaVuSans-70" d="M 1159 525 
L 1159 -1331 
L 581 -1331 
L 581 3500 
L 1159 3500 
L 1159 2969 
Q 1341 3281 1617 3432 
Q 1894 3584 2278 3584 
Q 2916 3584 3314 3078 
Q 3713 2572 3713 1747 
Q 3713 922 3314 415 
Q 2916 -91 2278 -91 
Q 1894 -91 1617 61 
Q 1341 213 1159 525 
z
M 3116 1747 
Q 3116 2381 2855 2742 
Q 2594 3103 2138 3103 
Q 1681 3103 1420 2742 
Q 1159 2381 1159 1747 
Q 1159 1113 1420 752 
Q 1681 391 2138 391 
Q 2594 391 2855 752 
Q 3116 1113 3116 1747 
z
" transform="scale(0.015625)"/>
      <path id="DejaVuSans-65" d="M 3597 1894 
L 3597 1613 
L 953 1613 
Q 991 1019 1311 708 
Q 1631 397 2203 397 
Q 2534 397 2845 478 
Q 3156 559 3463 722 
L 3463 178 
Q 3153 47 2828 -22 
Q 2503 -91 2169 -91 
Q 1331 -91 842 396 
Q 353 884 353 1716 
Q 353 2575 817 3079 
Q 1281 3584 2069 3584 
Q 2775 3584 3186 3129 
Q 3597 2675 3597 1894 
z
M 3022 2063 
Q 3016 2534 2758 2815 
Q 2500 3097 2075 3097 
Q 1594 3097 1305 2825 
Q 1016 2553 972 2059 
L 3022 2063 
z
" transform="scale(0.015625)"/>
      <path id="DejaVuSans-69" d="M 603 3500 
L 1178 3500 
L 1178 0 
L 603 0 
L 603 3500 
z
M 603 4863 
L 1178 4863 
L 1178 4134 
L 603 4134 
L 603 4863 
z
" transform="scale(0.015625)"/>
      <path id="DejaVuSans-64" d="M 2906 2969 
L 2906 4863 
L 3481 4863 
L 3481 0 
L 2906 0 
L 2906 525 
Q 2725 213 2448 61 
Q 2172 -91 1784 -91 
Q 1150 -91 751 415 
Q 353 922 353 1747 
Q 353 2572 751 3078 
Q 1150 3584 1784 3584 
Q 2172 3584 2448 3432 
Q 2725 3281 2906 2969 
z
M 947 1747 
Q 947 1113 1208 752 
Q 1469 391 1925 391 
Q 2381 391 2643 752 
Q 2906 1113 2906 1747 
Q 2906 2381 2643 2742 
Q 2381 3103 1925 3103 
Q 1469 3103 1208 2742 
Q 947 2381 947 1747 
z
" transform="scale(0.015625)"/>
      <path id="DejaVuSans-74" d="M 1172 4494 
L 1172 3500 
L 2356 3500 
L 2356 3053 
L 1172 3053 
L 1172 1153 
Q 1172 725 1289 603 
Q 1406 481 1766 481 
L 2356 481 
L 2356 0 
L 1766 0 
Q 1100 0 847 248 
Q 594 497 594 1153 
L 594 3053 
L 172 3053 
L 172 3500 
L 594 3500 
L 594 4494 
L 1172 4494 
z
" transform="scale(0.015625)"/>
      <path id="DejaVuSans-79" d="M 2059 -325 
Q 1816 -950 1584 -1140 
Q 1353 -1331 966 -1331 
L 506 -1331 
L 506 -850 
L 844 -850 
Q 1081 -850 1212 -737 
Q 1344 -625 1503 -206 
L 1606 56 
L 191 3500 
L 800 3500 
L 1894 763 
L 2988 3500 
L 3597 3500 
L 2059 -325 
z
" transform="scale(0.015625)"/>
     </defs>
     <use xlink:href="#DejaVuSans-63" transform="translate(0 0.015625)"/>
     <use xlink:href="#DejaVuSans-Oblique-54" transform="translate(55.9375 -16.390625) scale(0.7)"/>
     <use xlink:href="#DejaVuSans-2212" transform="translate(112.333984 -16.390625) scale(0.7)"/>
     <use xlink:href="#DejaVuSans-31" transform="translate(184.624023 -16.390625) scale(0.7)"/>
     <use xlink:href="#DejaVuSans-28" transform="translate(231.894531 0.015625)"/>
     <use xlink:href="#DejaVuSans-Oblique-6d" transform="translate(270.908203 0.015625)"/>
     <use xlink:href="#DejaVuSans-29" transform="translate(368.320312 0.015625)"/>
     <use xlink:href="#DejaVuSans-20" transform="translate(407.333984 0.015625)"/>
     <use xlink:href="#DejaVuSans-61" transform="translate(439.121094 0.015625)"/>
     <use xlink:href="#DejaVuSans-63" transform="translate(500.400391 0.015625)"/>
     <use xlink:href="#DejaVuSans-72" transform="translate(555.380859 0.015625)"/>
     <use xlink:href="#DejaVuSans-6f" transform="translate(596.494141 0.015625)"/>
     <use xlink:href="#DejaVuSans-73" transform="translate(657.675781 0.015625)"/>
     <use xlink:href="#DejaVuSans-73" transform="translate(709.775391 0.015625)"/>
     <use xlink:href="#DejaVuSans-20" transform="translate(761.875 0.015625)"/>
     <use xlink:href="#DejaVuSans-70" transform="translate(793.662109 0.015625)"/>
     <use xlink:href="#DejaVuSans-65" transform="translate(857.138672 0.015625)"/>
     <use xlink:href="#DejaVuSans-72" transform="translate(918.662109 0.015625)"/>
     <use xlink:href="#DejaVuSans-69" transform="translate(959.775391 0.015625)"/>
     <use xlink:href="#DejaVuSans-6f" transform="translate(987.558594 0.015625)"/>
     <use xlink:href="#DejaVuSans-64" transform="translate(1048.740234 0.015625)"/>
     <use xlink:href="#DejaVuSans-20" transform="translate(1112.216797 0.015625)"/>
     <use xlink:href="#DejaVuSans-74" transform="translate(1144.003906 0.015625)"/>
     <use xlink:href="#DejaVuSans-79" transform="translate(1183.212891 0.015625)"/>
     <use xlink:href="#DejaVuSans-70" transform="translate(1242.392578 0.015625)"/>
     <use xlink:href="#DejaVuSans-65" transform="translate(1305.869141 0.015625)"/>
     <use xlink:href="#DejaVuSans-73" transform="translate(1367.392578 0.015625)"/>
    </g>
   </g>
   <g id="legend_1">
    <g id="patch_7">
     <path d="M 46.01 76.662938 
L 118.11125 76.662938 
Q 119.91125 76.662938 119.91125 74.862938 
L 119.91125 36.132 
Q 119.91125 34.332 118.11125 34.332 
L 46.01 34.332 
Q 44.21 34.332 44.21 36.132 
L 44.21 74.862938 
Q 44.21 76.662938 46.01 76.662938 
z
" style="fill: #ffffff; opacity: 0.8; stroke: #cccccc; stroke-linejoin: miter"/>
    </g>
    <g id="line2d_21">
     <path d="M 47.81 41.620594 
L 56.81 41.620594 
L 65.81 41.620594 
" style="fill: none; stroke: #0000ff; stroke-width: 2; stroke-linecap: square"/>
    </g>
    <g id="text_20">
     <!-- cons-only -->
     <g transform="translate(73.01 44.770594) scale(0.09 -0.09)">
      <defs>
       <path id="DejaVuSans-6e" d="M 3513 2113 
L 3513 0 
L 2938 0 
L 2938 2094 
Q 2938 2591 2744 2837 
Q 2550 3084 2163 3084 
Q 1697 3084 1428 2787 
Q 1159 2491 1159 1978 
L 1159 0 
L 581 0 
L 581 3500 
L 1159 3500 
L 1159 2956 
Q 1366 3272 1645 3428 
Q 1925 3584 2291 3584 
Q 2894 3584 3203 3211 
Q 3513 2838 3513 2113 
z
" transform="scale(0.015625)"/>
       <path id="DejaVuSans-2d" d="M 313 2009 
L 1997 2009 
L 1997 1497 
L 313 1497 
L 313 2009 
z
" transform="scale(0.015625)"/>
       <path id="DejaVuSans-6c" d="M 603 4863 
L 1178 4863 
L 1178 0 
L 603 0 
L 603 4863 
z
" transform="scale(0.015625)"/>
      </defs>
      <use xlink:href="#DejaVuSans-63"/>
      <use xlink:href="#DejaVuSans-6f" x="54.980469"/>
      <use xlink:href="#DejaVuSans-6e" x="116.162109"/>
      <use xlink:href="#DejaVuSans-73" x="179.541016"/>
      <use xlink:href="#DejaVuSans-2d" x="231.640625"/>
      <use xlink:href="#DejaVuSans-6f" x="269.599609"/>
      <use xlink:href="#DejaVuSans-6e" x="330.78125"/>
      <use xlink:href="#DejaVuSans-6c" x="394.160156"/>
      <use xlink:href="#DejaVuSans-79" x="421.943359"/>
     </g>
    </g>
    <g id="line2d_22">
     <path d="M 47.81 54.830906 
L 56.81 54.830906 
L 65.81 54.830906 
" style="fill: none; stroke: #ff0000; stroke-width: 2; stroke-linecap: square"/>
    </g>
    <g id="text_21">
     <!-- port-cons -->
     <g transform="translate(73.01 57.980906) scale(0.09 -0.09)">
      <use xlink:href="#DejaVuSans-70"/>
      <use xlink:href="#DejaVuSans-6f" x="63.476562"/>
      <use xlink:href="#DejaVuSans-72" x="124.658203"/>
      <use xlink:href="#DejaVuSans-74" x="165.771484"/>
      <use xlink:href="#DejaVuSans-2d" x="204.980469"/>
      <use xlink:href="#DejaVuSans-63" x="241.064453"/>
      <use xlink:href="#DejaVuSans-6f" x="296.044922"/>
      <use xlink:href="#DejaVuSans-6e" x="357.226562"/>
      <use xlink:href="#DejaVuSans-73" x="420.605469"/>
     </g>
    </g>
    <g id="line2d_23">
     <path d="M 47.81 68.041219 
L 56.81 68.041219 
L 65.81 68.041219 
" style="fill: none; stroke: #008000; stroke-width: 2; stroke-linecap: square"/>
    </g>
    <g id="text_22">
     <!-- cons-port -->
     <g transform="translate(73.01 71.191219) scale(0.09 -0.09)">
      <use xlink:href="#DejaVuSans-63"/>
      <use xlink:href="#DejaVuSans-6f" x="54.980469"/>
      <use xlink:href="#DejaVuSans-6e" x="116.162109"/>
      <use xlink:href="#DejaVuSans-73" x="179.541016"/>
      <use xlink:href="#DejaVuSans-2d" x="231.640625"/>
      <use xlink:href="#DejaVuSans-70" x="267.724609"/>
      <use xlink:href="#DejaVuSans-6f" x="331.201172"/>
      <use xlink:href="#DejaVuSans-72" x="392.382812"/>
      <use xlink:href="#DejaVuSans-74" x="433.496094"/>
     </g>
    </g>
   </g>
  </g>
  <g id="axes_2">
   <g id="patch_8">
    <path d="M 545.051 322.72 
L 997.2 322.72 
L 997.2 29.832 
L 545.051 29.832 
z
" style="fill: #ffffff"/>
   </g>
   <g id="matplotlib.axis_3">
    <g id="xtick_9">
     <g id="line2d_24">
      <g>
       <use xlink:href="#m0ea66eb5a7" x="564.57304" y="322.72" style="stroke: #000000; stroke-width: 0.8"/>
      </g>
     </g>
     <g id="text_23">
      <!-- 0 -->
      <g transform="translate(561.39179 337.318438) scale(0.1 -0.1)">
       <defs>
        <path id="DejaVuSans-30" d="M 2034 4250 
Q 1547 4250 1301 3770 
Q 1056 3291 1056 2328 
Q 1056 1369 1301 889 
Q 1547 409 2034 409 
Q 2525 409 2770 889 
Q 3016 1369 3016 2328 
Q 3016 3291 2770 3770 
Q 2525 4250 2034 4250 
z
M 2034 4750 
Q 2819 4750 3233 4129 
Q 3647 3509 3647 2328 
Q 3647 1150 3233 529 
Q 2819 -91 2034 -91 
Q 1250 -91 836 529 
Q 422 1150 422 2328 
Q 422 3509 836 4129 
Q 1250 4750 2034 4750 
z
" transform="scale(0.015625)"/>
       </defs>
       <use xlink:href="#DejaVuSans-30"/>
      </g>
     </g>
    </g>
    <g id="xtick_10">
     <g id="line2d_25">
      <g>
       <use xlink:href="#m0ea66eb5a7" x="616.082382" y="322.72" style="stroke: #000000; stroke-width: 0.8"/>
      </g>
     </g>
     <g id="text_24">
      <!-- 5 -->
      <g transform="translate(612.901132 337.318438) scale(0.1 -0.1)">
       <use xlink:href="#DejaVuSans-35"/>
      </g>
     </g>
    </g>
    <g id="xtick_11">
     <g id="line2d_26">
      <g>
       <use xlink:href="#m0ea66eb5a7" x="667.591724" y="322.72" style="stroke: #000000; stroke-width: 0.8"/>
      </g>
     </g>
     <g id="text_25">
      <!-- 10 -->
      <g transform="translate(661.229224 337.318438) scale(0.1 -0.1)">
       <use xlink:href="#DejaVuSans-31"/>
       <use xlink:href="#DejaVuSans-30" x="63.623047"/>
      </g>
     </g>
    </g>
    <g id="xtick_12">
     <g id="line2d_27">
      <g>
       <use xlink:href="#m0ea66eb5a7" x="719.101065" y="322.72" style="stroke: #000000; stroke-width: 0.8"/>
      </g>
     </g>
     <g id="text_26">
      <!-- 15 -->
      <g transform="translate(712.738565 337.318438) scale(0.1 -0.1)">
       <use xlink:href="#DejaVuSans-31"/>
       <use xlink:href="#DejaVuSans-35" x="63.623047"/>
      </g>
     </g>
    </g>
    <g id="xtick_13">
     <g id="line2d_28">
      <g>
       <use xlink:href="#m0ea66eb5a7" x="770.610407" y="322.72" style="stroke: #000000; stroke-width: 0.8"/>
      </g>
     </g>
     <g id="text_27">
      <!-- 20 -->
      <g transform="translate(764.247907 337.318438) scale(0.1 -0.1)">
       <use xlink:href="#DejaVuSans-32"/>
       <use xlink:href="#DejaVuSans-30" x="63.623047"/>
      </g>
     </g>
    </g>
    <g id="xtick_14">
     <g id="line2d_29">
      <g>
       <use xlink:href="#m0ea66eb5a7" x="822.119748" y="322.72" style="stroke: #000000; stroke-width: 0.8"/>
      </g>
     </g>
     <g id="text_28">
      <!-- 25 -->
      <g transform="translate(815.757248 337.318438) scale(0.1 -0.1)">
       <use xlink:href="#DejaVuSans-32"/>
       <use xlink:href="#DejaVuSans-35" x="63.623047"/>
      </g>
     </g>
    </g>
    <g id="xtick_15">
     <g id="line2d_30">
      <g>
       <use xlink:href="#m0ea66eb5a7" x="873.62909" y="322.72" style="stroke: #000000; stroke-width: 0.8"/>
      </g>
     </g>
     <g id="text_29">
      <!-- 30 -->
      <g transform="translate(867.26659 337.318438) scale(0.1 -0.1)">
       <use xlink:href="#DejaVuSans-33"/>
       <use xlink:href="#DejaVuSans-30" x="63.623047"/>
      </g>
     </g>
    </g>
    <g id="xtick_16">
     <g id="line2d_31">
      <g>
       <use xlink:href="#m0ea66eb5a7" x="925.138431" y="322.72" style="stroke: #000000; stroke-width: 0.8"/>
      </g>
     </g>
     <g id="text_30">
      <!-- 35 -->
      <g transform="translate(918.775931 337.318438) scale(0.1 -0.1)">
       <use xlink:href="#DejaVuSans-33"/>
       <use xlink:href="#DejaVuSans-35" x="63.623047"/>
      </g>
     </g>
    </g>
    <g id="xtick_17">
     <g id="line2d_32">
      <g>
       <use xlink:href="#m0ea66eb5a7" x="976.647773" y="322.72" style="stroke: #000000; stroke-width: 0.8"/>
      </g>
     </g>
     <g id="text_31">
      <!-- 40 -->
      <g transform="translate(970.285273 337.318438) scale(0.1 -0.1)">
       <use xlink:href="#DejaVuSans-34"/>
       <use xlink:href="#DejaVuSans-30" x="63.623047"/>
      </g>
     </g>
    </g>
    <g id="text_32">
     <!-- $k$ -->
     <g transform="translate(768.2255 350.996563) scale(0.1 -0.1)">
      <defs>
       <path id="DejaVuSans-Oblique-6b" d="M 1172 4863 
L 1747 4863 
L 1197 2028 
L 3169 3500 
L 3916 3500 
L 1716 1825 
L 3322 0 
L 2625 0 
L 1131 1709 
L 800 0 
L 225 0 
L 1172 4863 
z
" transform="scale(0.015625)"/>
      </defs>
      <use xlink:href="#DejaVuSans-Oblique-6b" transform="translate(0 0.015625)"/>
     </g>
    </g>
   </g>
   <g id="matplotlib.axis_4">
    <g id="ytick_9">
     <g id="line2d_33">
      <g>
       <use xlink:href="#m96f16b4e76" x="545.051" y="309.406909" style="stroke: #000000; stroke-width: 0.8"/>
      </g>
     </g>
     <g id="text_33">
      <!-- 0.0 -->
      <g transform="translate(522.147875 313.206128) scale(0.1 -0.1)">
       <defs>
        <path id="DejaVuSans-2e" d="M 684 794 
L 1344 794 
L 1344 0 
L 684 0 
L 684 794 
z
" transform="scale(0.015625)"/>
       </defs>
       <use xlink:href="#DejaVuSans-30"/>
       <use xlink:href="#DejaVuSans-2e" x="63.623047"/>
       <use xlink:href="#DejaVuSans-30" x="95.410156"/>
      </g>
     </g>
    </g>
    <g id="ytick_10">
     <g id="line2d_34">
      <g>
       <use xlink:href="#m96f16b4e76" x="545.051" y="256.154545" style="stroke: #000000; stroke-width: 0.8"/>
      </g>
     </g>
     <g id="text_34">
      <!-- 0.2 -->
      <g transform="translate(522.147875 259.953764) scale(0.1 -0.1)">
       <use xlink:href="#DejaVuSans-30"/>
       <use xlink:href="#DejaVuSans-2e" x="63.623047"/>
       <use xlink:href="#DejaVuSans-32" x="95.410156"/>
      </g>
     </g>
    </g>
    <g id="ytick_11">
     <g id="line2d_35">
      <g>
       <use xlink:href="#m96f16b4e76" x="545.051" y="202.902182" style="stroke: #000000; stroke-width: 0.8"/>
      </g>
     </g>
     <g id="text_35">
      <!-- 0.4 -->
      <g transform="translate(522.147875 206.701401) scale(0.1 -0.1)">
       <use xlink:href="#DejaVuSans-30"/>
       <use xlink:href="#DejaVuSans-2e" x="63.623047"/>
       <use xlink:href="#DejaVuSans-34" x="95.410156"/>
      </g>
     </g>
    </g>
    <g id="ytick_12">
     <g id="line2d_36">
      <g>
       <use xlink:href="#m96f16b4e76" x="545.051" y="149.649818" style="stroke: #000000; stroke-width: 0.8"/>
      </g>
     </g>
     <g id="text_36">
      <!-- 0.6 -->
      <g transform="translate(522.147875 153.449037) scale(0.1 -0.1)">
       <use xlink:href="#DejaVuSans-30"/>
       <use xlink:href="#DejaVuSans-2e" x="63.623047"/>
       <use xlink:href="#DejaVuSans-36" x="95.410156"/>
      </g>
     </g>
    </g>
    <g id="ytick_13">
     <g id="line2d_37">
      <g>
       <use xlink:href="#m96f16b4e76" x="545.051" y="96.397455" style="stroke: #000000; stroke-width: 0.8"/>
      </g>
     </g>
     <g id="text_37">
      <!-- 0.8 -->
      <g transform="translate(522.147875 100.196673) scale(0.1 -0.1)">
       <use xlink:href="#DejaVuSans-30"/>
       <use xlink:href="#DejaVuSans-2e" x="63.623047"/>
       <use xlink:href="#DejaVuSans-38" x="95.410156"/>
      </g>
     </g>
    </g>
    <g id="ytick_14">
     <g id="line2d_38">
      <g>
       <use xlink:href="#m96f16b4e76" x="545.051" y="43.145091" style="stroke: #000000; stroke-width: 0.8"/>
      </g>
     </g>
     <g id="text_38">
      <!-- 1.0 -->
      <g transform="translate(522.147875 46.94431) scale(0.1 -0.1)">
       <use xlink:href="#DejaVuSans-31"/>
       <use xlink:href="#DejaVuSans-2e" x="63.623047"/>
       <use xlink:href="#DejaVuSans-30" x="95.410156"/>
      </g>
     </g>
    </g>
    <g id="text_39">
     <!-- $\varsigma^*(k)$ -->
     <g transform="translate(516.047875 189.526) rotate(-90) scale(0.1 -0.1)">
      <defs>
       <path id="DejaVuSans-Oblique-3c2" d="M 1891 -91 
Q 1050 -91 681 406 
Q 309 903 475 1747 
Q 641 2603 1206 3093 
Q 1772 3584 2591 3584 
Q 2856 3584 3100 3531 
Q 3341 3475 3559 3366 
L 3453 2828 
Q 3238 2963 3003 3031 
Q 2772 3097 2522 3097 
Q 1963 3097 1584 2744 
Q 1206 2388 1081 1747 
Q 956 1106 1197 750 
Q 1438 397 1984 397 
Q 2394 397 2597 159 
Q 2813 -88 2741 -463 
Q 2669 -822 2391 -1072 
Q 2084 -1344 1578 -1344 
Q 1622 -1109 1669 -872 
Q 1881 -888 2041 -750 
Q 2159 -641 2184 -525 
Q 2216 -359 2144 -222 
Q 2069 -91 1891 -91 
z
" transform="scale(0.015625)"/>
       <path id="DejaVuSans-2a" d="M 3009 3897 
L 1888 3291 
L 3009 2681 
L 2828 2375 
L 1778 3009 
L 1778 1831 
L 1422 1831 
L 1422 3009 
L 372 2375 
L 191 2681 
L 1313 3291 
L 191 3897 
L 372 4206 
L 1422 3572 
L 1422 4750 
L 1778 4750 
L 1778 3572 
L 2828 4206 
L 3009 3897 
z
" transform="scale(0.015625)"/>
      </defs>
      <use xlink:href="#DejaVuSans-Oblique-3c2" transform="translate(0 0.765625)"/>
      <use xlink:href="#DejaVuSans-2a" transform="translate(76.978997 39.046875) scale(0.7)"/>
      <use xlink:href="#DejaVuSans-28" transform="translate(128.351068 0.765625)"/>
      <use xlink:href="#DejaVuSans-Oblique-6b" transform="translate(167.36474 0.765625)"/>
      <use xlink:href="#DejaVuSans-29" transform="translate(225.274896 0.765625)"/>
     </g>
    </g>
   </g>
   <g id="line2d_39">
    <path d="M 565.603227 309.406909 
L 976.647773 309.406909 
L 976.647773 309.406909 
" clip-path="url(#p93611c8001)" style="fill: none; stroke: #0000ff; stroke-width: 2; stroke-linecap: square"/>
   </g>
   <g id="line2d_40">
    <path d="M 565.603227 43.145091 
L 567.668778 43.145091 
L 569.734328 106.892807 
L 571.799879 151.137981 
L 573.865429 175.878527 
L 575.93098 191.667109 
L 577.99653 202.629376 
L 580.062081 210.691488 
L 582.127631 216.873945 
L 584.193182 221.767995 
L 586.258732 225.740208 
L 588.324283 229.029741 
L 590.389833 231.799423 
L 592.455384 234.164081 
L 594.520934 236.206984 
L 596.586484 237.98982 
L 598.652035 239.559569 
L 600.717585 240.952483 
L 604.848686 243.315729 
L 608.979787 245.245271 
L 613.110888 246.851058 
L 617.241989 248.208387 
L 621.37309 249.371087 
L 627.569742 250.832957 
L 633.766393 252.036558 
L 642.028595 253.345682 
L 650.290797 254.405467 
L 660.618549 255.476868 
L 673.011852 256.496153 
L 687.470706 257.428199 
L 703.995109 258.258961 
L 724.650614 259.058377 
L 749.43722 259.783732 
L 780.420477 260.457897 
L 819.665936 261.078263 
L 871.304698 261.654064 
L 939.467864 262.172385 
L 976.647773 262.383227 
L 976.647773 262.383227 
" clip-path="url(#p93611c8001)" style="fill: none; stroke: #ff0000; stroke-width: 2; stroke-linecap: square"/>
   </g>
   <g id="line2d_41">
    <path d="M 565.603227 43.145091 
L 567.668778 133.773349 
L 569.734328 185.074318 
L 571.799879 207.203833 
L 573.865429 219.581347 
L 575.93098 227.509056 
L 577.99653 233.030517 
L 580.062081 237.101912 
L 582.127631 240.230951 
L 584.193182 242.712491 
L 586.258732 244.729721 
L 588.324283 246.402405 
L 590.389833 247.81228 
L 592.455384 249.017096 
L 594.520934 250.058768 
L 598.652035 251.769755 
L 602.783136 253.117008 
L 606.914237 254.205634 
L 611.045338 255.103807 
L 617.241989 256.190864 
L 623.438641 257.052289 
L 631.700843 257.956761 
L 642.028595 258.819306 
L 654.421898 259.595493 
L 668.880751 260.270294 
L 687.470706 260.906731 
L 712.257311 261.507903 
L 743.240569 262.026398 
L 786.617129 262.510649 
L 846.518093 262.935368 
L 931.205662 263.300002 
L 976.647773 263.434016 
L 976.647773 263.434016 
" clip-path="url(#p93611c8001)" style="fill: none; stroke: #008000; stroke-width: 2; stroke-linecap: square"/>
   </g>
   <g id="patch_9">
    <path d="M 545.051 322.72 
L 545.051 29.832 
" style="fill: none; stroke: #000000; stroke-width: 0.8; stroke-linejoin: miter; stroke-linecap: square"/>
   </g>
   <g id="patch_10">
    <path d="M 997.2 322.72 
L 997.2 29.832 
" style="fill: none; stroke: #000000; stroke-width: 0.8; stroke-linejoin: miter; stroke-linecap: square"/>
   </g>
   <g id="patch_11">
    <path d="M 545.051 322.72 
L 997.2 322.72 
" style="fill: none; stroke: #000000; stroke-width: 0.8; stroke-linejoin: miter; stroke-linecap: square"/>
   </g>
   <g id="patch_12">
    <path d="M 545.051 29.832 
L 997.2 29.832 
" style="fill: none; stroke: #000000; stroke-width: 0.8; stroke-linejoin: miter; stroke-linecap: square"/>
   </g>
   <g id="text_40">
    <!-- $\varsigma^*_{T-1}(k)$ for period types with portfolio -->
    <g transform="translate(657.6055 23.832) scale(0.12 -0.12)">
     <defs>
      <path id="DejaVuSans-66" d="M 2375 4863 
L 2375 4384 
L 1825 4384 
Q 1516 4384 1395 4259 
Q 1275 4134 1275 3809 
L 1275 3500 
L 2222 3500 
L 2222 3053 
L 1275 3053 
L 1275 0 
L 697 0 
L 697 3053 
L 147 3053 
L 147 3500 
L 697 3500 
L 697 3744 
Q 697 4328 969 4595 
Q 1241 4863 1831 4863 
L 2375 4863 
z
" transform="scale(0.015625)"/>
      <path id="DejaVuSans-77" d="M 269 3500 
L 844 3500 
L 1563 769 
L 2278 3500 
L 2956 3500 
L 3675 769 
L 4391 3500 
L 4966 3500 
L 4050 0 
L 3372 0 
L 2619 2869 
L 1863 0 
L 1184 0 
L 269 3500 
z
" transform="scale(0.015625)"/>
      <path id="DejaVuSans-68" d="M 3513 2113 
L 3513 0 
L 2938 0 
L 2938 2094 
Q 2938 2591 2744 2837 
Q 2550 3084 2163 3084 
Q 1697 3084 1428 2787 
Q 1159 2491 1159 1978 
L 1159 0 
L 581 0 
L 581 4863 
L 1159 4863 
L 1159 2956 
Q 1366 3272 1645 3428 
Q 1925 3584 2291 3584 
Q 2894 3584 3203 3211 
Q 3513 2838 3513 2113 
z
" transform="scale(0.015625)"/>
     </defs>
     <use xlink:href="#DejaVuSans-Oblique-3c2" transform="translate(0 0.765625)"/>
     <use xlink:href="#DejaVuSans-2a" transform="translate(76.978997 39.046875) scale(0.7)"/>
     <use xlink:href="#DejaVuSans-Oblique-54" transform="translate(58.691406 -26.578125) scale(0.7)"/>
     <use xlink:href="#DejaVuSans-2212" transform="translate(115.087891 -26.578125) scale(0.7)"/>
     <use xlink:href="#DejaVuSans-31" transform="translate(187.37793 -26.578125) scale(0.7)"/>
     <use xlink:href="#DejaVuSans-28" transform="translate(234.648438 0.765625)"/>
     <use xlink:href="#DejaVuSans-Oblique-6b" transform="translate(273.662109 0.765625)"/>
     <use xlink:href="#DejaVuSans-29" transform="translate(331.572266 0.765625)"/>
     <use xlink:href="#DejaVuSans-20" transform="translate(370.585938 0.765625)"/>
     <use xlink:href="#DejaVuSans-66" transform="translate(402.373047 0.765625)"/>
     <use xlink:href="#DejaVuSans-6f" transform="translate(437.578125 0.765625)"/>
     <use xlink:href="#DejaVuSans-72" transform="translate(498.759766 0.765625)"/>
     <use xlink:href="#DejaVuSans-20" transform="translate(539.873047 0.765625)"/>
     <use xlink:href="#DejaVuSans-70" transform="translate(571.660156 0.765625)"/>
     <use xlink:href="#DejaVuSans-65" transform="translate(635.136719 0.765625)"/>
     <use xlink:href="#DejaVuSans-72" transform="translate(696.660156 0.765625)"/>
     <use xlink:href="#DejaVuSans-69" transform="translate(737.773438 0.765625)"/>
     <use xlink:href="#DejaVuSans-6f" transform="translate(765.556641 0.765625)"/>
     <use xlink:href="#DejaVuSans-64" transform="translate(826.738281 0.765625)"/>
     <use xlink:href="#DejaVuSans-20" transform="translate(890.214844 0.765625)"/>
     <use xlink:href="#DejaVuSans-74" transform="translate(922.001953 0.765625)"/>
     <use xlink:href="#DejaVuSans-79" transform="translate(961.210938 0.765625)"/>
     <use xlink:href="#DejaVuSans-70" transform="translate(1020.390625 0.765625)"/>
     <use xlink:href="#DejaVuSans-65" transform="translate(1083.867188 0.765625)"/>
     <use xlink:href="#DejaVuSans-73" transform="translate(1145.390625 0.765625)"/>
     <use xlink:href="#DejaVuSans-20" transform="translate(1197.490234 0.765625)"/>
     <use xlink:href="#DejaVuSans-77" transform="translate(1229.277344 0.765625)"/>
     <use xlink:href="#DejaVuSans-69" transform="translate(1311.064453 0.765625)"/>
     <use xlink:href="#DejaVuSans-74" transform="translate(1338.847656 0.765625)"/>
     <use xlink:href="#DejaVuSans-68" transform="translate(1378.056641 0.765625)"/>
     <use xlink:href="#DejaVuSans-20" transform="translate(1441.435547 0.765625)"/>
     <use xlink:href="#DejaVuSans-70" transform="translate(1473.222656 0.765625)"/>
     <use xlink:href="#DejaVuSans-6f" transform="translate(1536.699219 0.765625)"/>
     <use xlink:href="#DejaVuSans-72" transform="translate(1597.880859 0.765625)"/>
     <use xlink:href="#DejaVuSans-74" transform="translate(1638.994141 0.765625)"/>
     <use xlink:href="#DejaVuSans-66" transform="translate(1678.203125 0.765625)"/>
     <use xlink:href="#DejaVuSans-6f" transform="translate(1713.408203 0.765625)"/>
     <use xlink:href="#DejaVuSans-6c" transform="translate(1774.589844 0.765625)"/>
     <use xlink:href="#DejaVuSans-69" transform="translate(1802.373047 0.765625)"/>
     <use xlink:href="#DejaVuSans-6f" transform="translate(1830.15625 0.765625)"/>
    </g>
   </g>
   <g id="legend_2">
    <g id="patch_13">
     <path d="M 918.79875 76.662938 
L 990.9 76.662938 
Q 992.7 76.662938 992.7 74.862938 
L 992.7 36.132 
Q 992.7 34.332 990.9 34.332 
L 918.79875 34.332 
Q 916.99875 34.332 916.99875 36.132 
L 916.99875 74.862938 
Q 916.99875 76.662938 918.79875 76.662938 
z
" style="fill: #ffffff; opacity: 0.8; stroke: #cccccc; stroke-linejoin: miter"/>
    </g>
    <g id="line2d_42">
     <path d="M 920.59875 41.620594 
L 929.59875 41.620594 
L 938.59875 41.620594 
" style="fill: none; stroke: #0000ff; stroke-width: 2; stroke-linecap: square"/>
    </g>
    <g id="text_41">
     <!-- cons-only -->
     <g transform="translate(945.79875 44.770594) scale(0.09 -0.09)">
      <use xlink:href="#DejaVuSans-63"/>
      <use xlink:href="#DejaVuSans-6f" x="54.980469"/>
      <use xlink:href="#DejaVuSans-6e" x="116.162109"/>
      <use xlink:href="#DejaVuSans-73" x="179.541016"/>
      <use xlink:href="#DejaVuSans-2d" x="231.640625"/>
      <use xlink:href="#DejaVuSans-6f" x="269.599609"/>
      <use xlink:href="#DejaVuSans-6e" x="330.78125"/>
      <use xlink:href="#DejaVuSans-6c" x="394.160156"/>
      <use xlink:href="#DejaVuSans-79" x="421.943359"/>
     </g>
    </g>
    <g id="line2d_43">
     <path d="M 920.59875 54.830906 
L 929.59875 54.830906 
L 938.59875 54.830906 
" style="fill: none; stroke: #ff0000; stroke-width: 2; stroke-linecap: square"/>
    </g>
    <g id="text_42">
     <!-- port-cons -->
     <g transform="translate(945.79875 57.980906) scale(0.09 -0.09)">
      <use xlink:href="#DejaVuSans-70"/>
      <use xlink:href="#DejaVuSans-6f" x="63.476562"/>
      <use xlink:href="#DejaVuSans-72" x="124.658203"/>
      <use xlink:href="#DejaVuSans-74" x="165.771484"/>
      <use xlink:href="#DejaVuSans-2d" x="204.980469"/>
      <use xlink:href="#DejaVuSans-63" x="241.064453"/>
      <use xlink:href="#DejaVuSans-6f" x="296.044922"/>
      <use xlink:href="#DejaVuSans-6e" x="357.226562"/>
      <use xlink:href="#DejaVuSans-73" x="420.605469"/>
     </g>
    </g>
    <g id="line2d_44">
     <path d="M 920.59875 68.041219 
L 929.59875 68.041219 
L 938.59875 68.041219 
" style="fill: none; stroke: #008000; stroke-width: 2; stroke-linecap: square"/>
    </g>
    <g id="text_43">
     <!-- cons-port -->
     <g transform="translate(945.79875 71.191219) scale(0.09 -0.09)">
      <use xlink:href="#DejaVuSans-63"/>
      <use xlink:href="#DejaVuSans-6f" x="54.980469"/>
      <use xlink:href="#DejaVuSans-6e" x="116.162109"/>
      <use xlink:href="#DejaVuSans-73" x="179.541016"/>
      <use xlink:href="#DejaVuSans-2d" x="231.640625"/>
      <use xlink:href="#DejaVuSans-70" x="267.724609"/>
      <use xlink:href="#DejaVuSans-6f" x="331.201172"/>
      <use xlink:href="#DejaVuSans-72" x="392.382812"/>
      <use xlink:href="#DejaVuSans-74" x="433.496094"/>
     </g>
    </g>
   </g>
  </g>
  <g id="axes_3">
   <g id="patch_14">
    <path d="M 39.71 677.32 
L 491.859 677.32 
L 491.859 384.432 
L 39.71 384.432 
z
" style="fill: #ffffff"/>
   </g>
   <g id="matplotlib.axis_5">
    <g id="xtick_18">
     <g id="line2d_45">
      <g>
       <use xlink:href="#m0ea66eb5a7" x="87.665197" y="677.32" style="stroke: #000000; stroke-width: 0.8"/>
      </g>
     </g>
     <g id="text_44">
      <!-- 1 -->
      <g transform="translate(84.483947 691.918437) scale(0.1 -0.1)">
       <use xlink:href="#DejaVuSans-31"/>
      </g>
     </g>
    </g>
    <g id="xtick_19">
     <g id="line2d_46">
      <g>
       <use xlink:href="#m0ea66eb5a7" x="142.471136" y="677.32" style="stroke: #000000; stroke-width: 0.8"/>
      </g>
     </g>
     <g id="text_45">
      <!-- 2 -->
      <g transform="translate(139.289886 691.918437) scale(0.1 -0.1)">
       <use xlink:href="#DejaVuSans-32"/>
      </g>
     </g>
    </g>
    <g id="xtick_20">
     <g id="line2d_47">
      <g>
       <use xlink:href="#m0ea66eb5a7" x="197.277076" y="677.32" style="stroke: #000000; stroke-width: 0.8"/>
      </g>
     </g>
     <g id="text_46">
      <!-- 3 -->
      <g transform="translate(194.095826 691.918437) scale(0.1 -0.1)">
       <use xlink:href="#DejaVuSans-33"/>
      </g>
     </g>
    </g>
    <g id="xtick_21">
     <g id="line2d_48">
      <g>
       <use xlink:href="#m0ea66eb5a7" x="252.083015" y="677.32" style="stroke: #000000; stroke-width: 0.8"/>
      </g>
     </g>
     <g id="text_47">
      <!-- 4 -->
      <g transform="translate(248.901765 691.918437) scale(0.1 -0.1)">
       <use xlink:href="#DejaVuSans-34"/>
      </g>
     </g>
    </g>
    <g id="xtick_22">
     <g id="line2d_49">
      <g>
       <use xlink:href="#m0ea66eb5a7" x="306.888955" y="677.32" style="stroke: #000000; stroke-width: 0.8"/>
      </g>
     </g>
     <g id="text_48">
      <!-- 5 -->
      <g transform="translate(303.707705 691.918437) scale(0.1 -0.1)">
       <use xlink:href="#DejaVuSans-35"/>
      </g>
     </g>
    </g>
    <g id="xtick_23">
     <g id="line2d_50">
      <g>
       <use xlink:href="#m0ea66eb5a7" x="361.694894" y="677.32" style="stroke: #000000; stroke-width: 0.8"/>
      </g>
     </g>
     <g id="text_49">
      <!-- 6 -->
      <g transform="translate(358.513644 691.918437) scale(0.1 -0.1)">
       <use xlink:href="#DejaVuSans-36"/>
      </g>
     </g>
    </g>
    <g id="xtick_24">
     <g id="line2d_51">
      <g>
       <use xlink:href="#m0ea66eb5a7" x="416.500833" y="677.32" style="stroke: #000000; stroke-width: 0.8"/>
      </g>
     </g>
     <g id="text_50">
      <!-- 7 -->
      <g transform="translate(413.319583 691.918437) scale(0.1 -0.1)">
       <use xlink:href="#DejaVuSans-37"/>
      </g>
     </g>
    </g>
    <g id="xtick_25">
     <g id="line2d_52">
      <g>
       <use xlink:href="#m0ea66eb5a7" x="471.306773" y="677.32" style="stroke: #000000; stroke-width: 0.8"/>
      </g>
     </g>
     <g id="text_51">
      <!-- 8 -->
      <g transform="translate(468.125523 691.918437) scale(0.1 -0.1)">
       <use xlink:href="#DejaVuSans-38"/>
      </g>
     </g>
    </g>
    <g id="text_52">
     <!-- $m$ -->
     <g transform="translate(260.8845 705.596563) scale(0.1 -0.1)">
      <use xlink:href="#DejaVuSans-Oblique-6d"/>
     </g>
    </g>
   </g>
   <g id="matplotlib.axis_6">
    <g id="ytick_15">
     <g id="line2d_53">
      <g>
       <use xlink:href="#m96f16b4e76" x="39.71" y="646.253605" style="stroke: #000000; stroke-width: 0.8"/>
      </g>
     </g>
     <g id="text_53">
      <!-- 1 -->
      <g transform="translate(26.3475 650.052824) scale(0.1 -0.1)">
       <use xlink:href="#DejaVuSans-31"/>
      </g>
     </g>
    </g>
    <g id="ytick_16">
     <g id="line2d_54">
      <g>
       <use xlink:href="#m96f16b4e76" x="39.71" y="610.752389" style="stroke: #000000; stroke-width: 0.8"/>
      </g>
     </g>
     <g id="text_54">
      <!-- 2 -->
      <g transform="translate(26.3475 614.551608) scale(0.1 -0.1)">
       <use xlink:href="#DejaVuSans-32"/>
      </g>
     </g>
    </g>
    <g id="ytick_17">
     <g id="line2d_55">
      <g>
       <use xlink:href="#m96f16b4e76" x="39.71" y="575.251173" style="stroke: #000000; stroke-width: 0.8"/>
      </g>
     </g>
     <g id="text_55">
      <!-- 3 -->
      <g transform="translate(26.3475 579.050391) scale(0.1 -0.1)">
       <use xlink:href="#DejaVuSans-33"/>
      </g>
     </g>
    </g>
    <g id="ytick_18">
     <g id="line2d_56">
      <g>
       <use xlink:href="#m96f16b4e76" x="39.71" y="539.749956" style="stroke: #000000; stroke-width: 0.8"/>
      </g>
     </g>
     <g id="text_56">
      <!-- 4 -->
      <g transform="translate(26.3475 543.549175) scale(0.1 -0.1)">
       <use xlink:href="#DejaVuSans-34"/>
      </g>
     </g>
    </g>
    <g id="ytick_19">
     <g id="line2d_57">
      <g>
       <use xlink:href="#m96f16b4e76" x="39.71" y="504.24874" style="stroke: #000000; stroke-width: 0.8"/>
      </g>
     </g>
     <g id="text_57">
      <!-- 5 -->
      <g transform="translate(26.3475 508.047959) scale(0.1 -0.1)">
       <use xlink:href="#DejaVuSans-35"/>
      </g>
     </g>
    </g>
    <g id="ytick_20">
     <g id="line2d_58">
      <g>
       <use xlink:href="#m96f16b4e76" x="39.71" y="468.747524" style="stroke: #000000; stroke-width: 0.8"/>
      </g>
     </g>
     <g id="text_58">
      <!-- 6 -->
      <g transform="translate(26.3475 472.546742) scale(0.1 -0.1)">
       <use xlink:href="#DejaVuSans-36"/>
      </g>
     </g>
    </g>
    <g id="ytick_21">
     <g id="line2d_59">
      <g>
       <use xlink:href="#m96f16b4e76" x="39.71" y="433.246307" style="stroke: #000000; stroke-width: 0.8"/>
      </g>
     </g>
     <g id="text_59">
      <!-- 7 -->
      <g transform="translate(26.3475 437.045526) scale(0.1 -0.1)">
       <use xlink:href="#DejaVuSans-37"/>
      </g>
     </g>
    </g>
    <g id="ytick_22">
     <g id="line2d_60">
      <g>
       <use xlink:href="#m96f16b4e76" x="39.71" y="397.745091" style="stroke: #000000; stroke-width: 0.8"/>
      </g>
     </g>
     <g id="text_60">
      <!-- 8 -->
      <g transform="translate(26.3475 401.54431) scale(0.1 -0.1)">
       <use xlink:href="#DejaVuSans-38"/>
      </g>
     </g>
    </g>
    <g id="text_61">
     <!-- $\mathrm{c}(m)$ -->
     <g transform="translate(20.267813 542.426) rotate(-90) scale(0.1 -0.1)">
      <use xlink:href="#DejaVuSans-63" transform="translate(0 0.125)"/>
      <use xlink:href="#DejaVuSans-28" transform="translate(54.980469 0.125)"/>
      <use xlink:href="#DejaVuSans-Oblique-6d" transform="translate(93.994141 0.125)"/>
      <use xlink:href="#DejaVuSans-29" transform="translate(191.40625 0.125)"/>
     </g>
    </g>
   </g>
   <g id="line2d_61">
    <path d="M 60.262227 664.006898 
L 80.917732 650.629066 
L 82.983283 649.473421 
L 87.114384 648.394275 
L 93.311035 646.986654 
L 101.573237 645.673496 
L 113.96654 643.985313 
L 136.687595 641.19936 
L 227.571816 630.43076 
L 458.91347 603.232094 
L 471.306773 601.779174 
L 471.306773 601.779174 
" clip-path="url(#pa0dc8c9ed0)" style="fill: none; stroke: #0000ff; stroke-width: 2; stroke-linecap: square"/>
   </g>
   <g id="line2d_62">
    <path d="M 60.262227 664.006909 
L 80.917732 650.629085 
L 82.983283 649.544332 
L 87.114384 648.462692 
L 93.311035 647.082265 
L 101.573237 645.738437 
L 113.96654 644.00451 
L 136.687595 641.117692 
L 173.867504 636.639887 
L 337.045992 617.330427 
L 471.306773 601.52047 
L 471.306773 601.52047 
" clip-path="url(#pa0dc8c9ed0)" style="fill: none; stroke: #ff0000; stroke-width: 2; stroke-linecap: square"/>
   </g>
   <g id="line2d_63">
    <path d="M 60.262227 664.004214 
L 80.917732 650.624358 
L 82.983283 649.542631 
L 87.114384 648.461282 
L 93.311035 647.081344 
L 101.573237 645.737911 
L 113.96654 644.004275 
L 136.687595 641.117647 
L 173.867504 636.639886 
L 337.045992 617.330427 
L 471.306773 601.52047 
L 471.306773 601.52047 
" clip-path="url(#pa0dc8c9ed0)" style="fill: none; stroke: #008000; stroke-width: 2; stroke-linecap: square"/>
   </g>
   <g id="line2d_64">
    <path d="M 60.262227 664.004214 
L 471.306773 397.745091 
L 471.306773 397.745091 
" clip-path="url(#pa0dc8c9ed0)" style="fill: none; stroke-dasharray: 5.55,2.4; stroke-dashoffset: 0; stroke: #000000; stroke-opacity: 0.2; stroke-width: 1.5"/>
   </g>
   <g id="patch_15">
    <path d="M 39.71 677.32 
L 39.71 384.432 
" style="fill: none; stroke: #000000; stroke-width: 0.8; stroke-linejoin: miter; stroke-linecap: square"/>
   </g>
   <g id="patch_16">
    <path d="M 491.859 677.32 
L 491.859 384.432 
" style="fill: none; stroke: #000000; stroke-width: 0.8; stroke-linejoin: miter; stroke-linecap: square"/>
   </g>
   <g id="patch_17">
    <path d="M 39.71 677.32 
L 491.859 677.32 
" style="fill: none; stroke: #000000; stroke-width: 0.8; stroke-linejoin: miter; stroke-linecap: square"/>
   </g>
   <g id="patch_18">
    <path d="M 39.71 384.432 
L 491.859 384.432 
" style="fill: none; stroke: #000000; stroke-width: 0.8; stroke-linejoin: miter; stroke-linecap: square"/>
   </g>
   <g id="text_62">
    <!-- $\mathrm{c}_0(m)$ across period types -->
    <g transform="translate(188.3245 378.432) scale(0.12 -0.12)">
     <use xlink:href="#DejaVuSans-63" transform="translate(0 0.015625)"/>
     <use xlink:href="#DejaVuSans-30" transform="translate(55.9375 -16.390625) scale(0.7)"/>
     <use xlink:href="#DejaVuSans-28" transform="translate(103.208008 0.015625)"/>
     <use xlink:href="#DejaVuSans-Oblique-6d" transform="translate(142.22168 0.015625)"/>
     <use xlink:href="#DejaVuSans-29" transform="translate(239.633789 0.015625)"/>
     <use xlink:href="#DejaVuSans-20" transform="translate(278.647461 0.015625)"/>
     <use xlink:href="#DejaVuSans-61" transform="translate(310.43457 0.015625)"/>
     <use xlink:href="#DejaVuSans-63" transform="translate(371.713867 0.015625)"/>
     <use xlink:href="#DejaVuSans-72" transform="translate(426.694336 0.015625)"/>
     <use xlink:href="#DejaVuSans-6f" transform="translate(467.807617 0.015625)"/>
     <use xlink:href="#DejaVuSans-73" transform="translate(528.989258 0.015625)"/>
     <use xlink:href="#DejaVuSans-73" transform="translate(581.088867 0.015625)"/>
     <use xlink:href="#DejaVuSans-20" transform="translate(633.188477 0.015625)"/>
     <use xlink:href="#DejaVuSans-70" transform="translate(664.975586 0.015625)"/>
     <use xlink:href="#DejaVuSans-65" transform="translate(728.452148 0.015625)"/>
     <use xlink:href="#DejaVuSans-72" transform="translate(789.975586 0.015625)"/>
     <use xlink:href="#DejaVuSans-69" transform="translate(831.088867 0.015625)"/>
     <use xlink:href="#DejaVuSans-6f" transform="translate(858.87207 0.015625)"/>
     <use xlink:href="#DejaVuSans-64" transform="translate(920.053711 0.015625)"/>
     <use xlink:href="#DejaVuSans-20" transform="translate(983.530273 0.015625)"/>
     <use xlink:href="#DejaVuSans-74" transform="translate(1015.317383 0.015625)"/>
     <use xlink:href="#DejaVuSans-79" transform="translate(1054.526367 0.015625)"/>
     <use xlink:href="#DejaVuSans-70" transform="translate(1113.706055 0.015625)"/>
     <use xlink:href="#DejaVuSans-65" transform="translate(1177.182617 0.015625)"/>
     <use xlink:href="#DejaVuSans-73" transform="translate(1238.706055 0.015625)"/>
    </g>
   </g>
   <g id="legend_3">
    <g id="patch_19">
     <path d="M 46.01 431.262938 
L 118.11125 431.262938 
Q 119.91125 431.262938 119.91125 429.462938 
L 119.91125 390.732 
Q 119.91125 388.932 118.11125 388.932 
L 46.01 388.932 
Q 44.21 388.932 44.21 390.732 
L 44.21 429.462938 
Q 44.21 431.262938 46.01 431.262938 
z
" style="fill: #ffffff; opacity: 0.8; stroke: #cccccc; stroke-linejoin: miter"/>
    </g>
    <g id="line2d_65">
     <path d="M 47.81 396.220594 
L 56.81 396.220594 
L 65.81 396.220594 
" style="fill: none; stroke: #0000ff; stroke-width: 2; stroke-linecap: square"/>
    </g>
    <g id="text_63">
     <!-- cons-only -->
     <g transform="translate(73.01 399.370594) scale(0.09 -0.09)">
      <use xlink:href="#DejaVuSans-63"/>
      <use xlink:href="#DejaVuSans-6f" x="54.980469"/>
      <use xlink:href="#DejaVuSans-6e" x="116.162109"/>
      <use xlink:href="#DejaVuSans-73" x="179.541016"/>
      <use xlink:href="#DejaVuSans-2d" x="231.640625"/>
      <use xlink:href="#DejaVuSans-6f" x="269.599609"/>
      <use xlink:href="#DejaVuSans-6e" x="330.78125"/>
      <use xlink:href="#DejaVuSans-6c" x="394.160156"/>
      <use xlink:href="#DejaVuSans-79" x="421.943359"/>
     </g>
    </g>
    <g id="line2d_66">
     <path d="M 47.81 409.430906 
L 56.81 409.430906 
L 65.81 409.430906 
" style="fill: none; stroke: #ff0000; stroke-width: 2; stroke-linecap: square"/>
    </g>
    <g id="text_64">
     <!-- port-cons -->
     <g transform="translate(73.01 412.580906) scale(0.09 -0.09)">
      <use xlink:href="#DejaVuSans-70"/>
      <use xlink:href="#DejaVuSans-6f" x="63.476562"/>
      <use xlink:href="#DejaVuSans-72" x="124.658203"/>
      <use xlink:href="#DejaVuSans-74" x="165.771484"/>
      <use xlink:href="#DejaVuSans-2d" x="204.980469"/>
      <use xlink:href="#DejaVuSans-63" x="241.064453"/>
      <use xlink:href="#DejaVuSans-6f" x="296.044922"/>
      <use xlink:href="#DejaVuSans-6e" x="357.226562"/>
      <use xlink:href="#DejaVuSans-73" x="420.605469"/>
     </g>
    </g>
    <g id="line2d_67">
     <path d="M 47.81 422.641219 
L 56.81 422.641219 
L 65.81 422.641219 
" style="fill: none; stroke: #008000; stroke-width: 2; stroke-linecap: square"/>
    </g>
    <g id="text_65">
     <!-- cons-port -->
     <g transform="translate(73.01 425.791219) scale(0.09 -0.09)">
      <use xlink:href="#DejaVuSans-63"/>
      <use xlink:href="#DejaVuSans-6f" x="54.980469"/>
      <use xlink:href="#DejaVuSans-6e" x="116.162109"/>
      <use xlink:href="#DejaVuSans-73" x="179.541016"/>
      <use xlink:href="#DejaVuSans-2d" x="231.640625"/>
      <use xlink:href="#DejaVuSans-70" x="267.724609"/>
      <use xlink:href="#DejaVuSans-6f" x="331.201172"/>
      <use xlink:href="#DejaVuSans-72" x="392.382812"/>
      <use xlink:href="#DejaVuSans-74" x="433.496094"/>
     </g>
    </g>
   </g>
  </g>
  <g id="axes_4">
   <g id="patch_20">
    <path d="M 545.051 677.32 
L 997.2 677.32 
L 997.2 384.432 
L 545.051 384.432 
z
" style="fill: #ffffff"/>
   </g>
   <g id="matplotlib.axis_7">
    <g id="xtick_26">
     <g id="line2d_68">
      <g>
       <use xlink:href="#m0ea66eb5a7" x="564.57304" y="677.32" style="stroke: #000000; stroke-width: 0.8"/>
      </g>
     </g>
     <g id="text_66">
      <!-- 0 -->
      <g transform="translate(561.39179 691.918437) scale(0.1 -0.1)">
       <use xlink:href="#DejaVuSans-30"/>
      </g>
     </g>
    </g>
    <g id="xtick_27">
     <g id="line2d_69">
      <g>
       <use xlink:href="#m0ea66eb5a7" x="616.082382" y="677.32" style="stroke: #000000; stroke-width: 0.8"/>
      </g>
     </g>
     <g id="text_67">
      <!-- 5 -->
      <g transform="translate(612.901132 691.918437) scale(0.1 -0.1)">
       <use xlink:href="#DejaVuSans-35"/>
      </g>
     </g>
    </g>
    <g id="xtick_28">
     <g id="line2d_70">
      <g>
       <use xlink:href="#m0ea66eb5a7" x="667.591724" y="677.32" style="stroke: #000000; stroke-width: 0.8"/>
      </g>
     </g>
     <g id="text_68">
      <!-- 10 -->
      <g transform="translate(661.229224 691.918437) scale(0.1 -0.1)">
       <use xlink:href="#DejaVuSans-31"/>
       <use xlink:href="#DejaVuSans-30" x="63.623047"/>
      </g>
     </g>
    </g>
    <g id="xtick_29">
     <g id="line2d_71">
      <g>
       <use xlink:href="#m0ea66eb5a7" x="719.101065" y="677.32" style="stroke: #000000; stroke-width: 0.8"/>
      </g>
     </g>
     <g id="text_69">
      <!-- 15 -->
      <g transform="translate(712.738565 691.918437) scale(0.1 -0.1)">
       <use xlink:href="#DejaVuSans-31"/>
       <use xlink:href="#DejaVuSans-35" x="63.623047"/>
      </g>
     </g>
    </g>
    <g id="xtick_30">
     <g id="line2d_72">
      <g>
       <use xlink:href="#m0ea66eb5a7" x="770.610407" y="677.32" style="stroke: #000000; stroke-width: 0.8"/>
      </g>
     </g>
     <g id="text_70">
      <!-- 20 -->
      <g transform="translate(764.247907 691.918437) scale(0.1 -0.1)">
       <use xlink:href="#DejaVuSans-32"/>
       <use xlink:href="#DejaVuSans-30" x="63.623047"/>
      </g>
     </g>
    </g>
    <g id="xtick_31">
     <g id="line2d_73">
      <g>
       <use xlink:href="#m0ea66eb5a7" x="822.119748" y="677.32" style="stroke: #000000; stroke-width: 0.8"/>
      </g>
     </g>
     <g id="text_71">
      <!-- 25 -->
      <g transform="translate(815.757248 691.918437) scale(0.1 -0.1)">
       <use xlink:href="#DejaVuSans-32"/>
       <use xlink:href="#DejaVuSans-35" x="63.623047"/>
      </g>
     </g>
    </g>
    <g id="xtick_32">
     <g id="line2d_74">
      <g>
       <use xlink:href="#m0ea66eb5a7" x="873.62909" y="677.32" style="stroke: #000000; stroke-width: 0.8"/>
      </g>
     </g>
     <g id="text_72">
      <!-- 30 -->
      <g transform="translate(867.26659 691.918437) scale(0.1 -0.1)">
       <use xlink:href="#DejaVuSans-33"/>
       <use xlink:href="#DejaVuSans-30" x="63.623047"/>
      </g>
     </g>
    </g>
    <g id="xtick_33">
     <g id="line2d_75">
      <g>
       <use xlink:href="#m0ea66eb5a7" x="925.138431" y="677.32" style="stroke: #000000; stroke-width: 0.8"/>
      </g>
     </g>
     <g id="text_73">
      <!-- 35 -->
      <g transform="translate(918.775931 691.918437) scale(0.1 -0.1)">
       <use xlink:href="#DejaVuSans-33"/>
       <use xlink:href="#DejaVuSans-35" x="63.623047"/>
      </g>
     </g>
    </g>
    <g id="xtick_34">
     <g id="line2d_76">
      <g>
       <use xlink:href="#m0ea66eb5a7" x="976.647773" y="677.32" style="stroke: #000000; stroke-width: 0.8"/>
      </g>
     </g>
     <g id="text_74">
      <!-- 40 -->
      <g transform="translate(970.285273 691.918437) scale(0.1 -0.1)">
       <use xlink:href="#DejaVuSans-34"/>
       <use xlink:href="#DejaVuSans-30" x="63.623047"/>
      </g>
     </g>
    </g>
    <g id="text_75">
     <!-- $k$ -->
     <g transform="translate(768.2255 705.596563) scale(0.1 -0.1)">
      <use xlink:href="#DejaVuSans-Oblique-6b" transform="translate(0 0.015625)"/>
     </g>
    </g>
   </g>
   <g id="matplotlib.axis_8">
    <g id="ytick_23">
     <g id="line2d_77">
      <g>
       <use xlink:href="#m96f16b4e76" x="545.051" y="664.006909" style="stroke: #000000; stroke-width: 0.8"/>
      </g>
     </g>
     <g id="text_76">
      <!-- 0.0 -->
      <g transform="translate(522.147875 667.806128) scale(0.1 -0.1)">
       <use xlink:href="#DejaVuSans-30"/>
       <use xlink:href="#DejaVuSans-2e" x="63.623047"/>
       <use xlink:href="#DejaVuSans-30" x="95.410156"/>
      </g>
     </g>
    </g>
    <g id="ytick_24">
     <g id="line2d_78">
      <g>
       <use xlink:href="#m96f16b4e76" x="545.051" y="610.754545" style="stroke: #000000; stroke-width: 0.8"/>
      </g>
     </g>
     <g id="text_77">
      <!-- 0.2 -->
      <g transform="translate(522.147875 614.553764) scale(0.1 -0.1)">
       <use xlink:href="#DejaVuSans-30"/>
       <use xlink:href="#DejaVuSans-2e" x="63.623047"/>
       <use xlink:href="#DejaVuSans-32" x="95.410156"/>
      </g>
     </g>
    </g>
    <g id="ytick_25">
     <g id="line2d_79">
      <g>
       <use xlink:href="#m96f16b4e76" x="545.051" y="557.502182" style="stroke: #000000; stroke-width: 0.8"/>
      </g>
     </g>
     <g id="text_78">
      <!-- 0.4 -->
      <g transform="translate(522.147875 561.301401) scale(0.1 -0.1)">
       <use xlink:href="#DejaVuSans-30"/>
       <use xlink:href="#DejaVuSans-2e" x="63.623047"/>
       <use xlink:href="#DejaVuSans-34" x="95.410156"/>
      </g>
     </g>
    </g>
    <g id="ytick_26">
     <g id="line2d_80">
      <g>
       <use xlink:href="#m96f16b4e76" x="545.051" y="504.249818" style="stroke: #000000; stroke-width: 0.8"/>
      </g>
     </g>
     <g id="text_79">
      <!-- 0.6 -->
      <g transform="translate(522.147875 508.049037) scale(0.1 -0.1)">
       <use xlink:href="#DejaVuSans-30"/>
       <use xlink:href="#DejaVuSans-2e" x="63.623047"/>
       <use xlink:href="#DejaVuSans-36" x="95.410156"/>
      </g>
     </g>
    </g>
    <g id="ytick_27">
     <g id="line2d_81">
      <g>
       <use xlink:href="#m96f16b4e76" x="545.051" y="450.997455" style="stroke: #000000; stroke-width: 0.8"/>
      </g>
     </g>
     <g id="text_80">
      <!-- 0.8 -->
      <g transform="translate(522.147875 454.796673) scale(0.1 -0.1)">
       <use xlink:href="#DejaVuSans-30"/>
       <use xlink:href="#DejaVuSans-2e" x="63.623047"/>
       <use xlink:href="#DejaVuSans-38" x="95.410156"/>
      </g>
     </g>
    </g>
    <g id="ytick_28">
     <g id="line2d_82">
      <g>
       <use xlink:href="#m96f16b4e76" x="545.051" y="397.745091" style="stroke: #000000; stroke-width: 0.8"/>
      </g>
     </g>
     <g id="text_81">
      <!-- 1.0 -->
      <g transform="translate(522.147875 401.54431) scale(0.1 -0.1)">
       <use xlink:href="#DejaVuSans-31"/>
       <use xlink:href="#DejaVuSans-2e" x="63.623047"/>
       <use xlink:href="#DejaVuSans-30" x="95.410156"/>
      </g>
     </g>
    </g>
    <g id="text_82">
     <!-- $\varsigma^*(k)$ -->
     <g transform="translate(516.047875 544.126) rotate(-90) scale(0.1 -0.1)">
      <use xlink:href="#DejaVuSans-Oblique-3c2" transform="translate(0 0.765625)"/>
      <use xlink:href="#DejaVuSans-2a" transform="translate(76.978997 39.046875) scale(0.7)"/>
      <use xlink:href="#DejaVuSans-28" transform="translate(128.351068 0.765625)"/>
      <use xlink:href="#DejaVuSans-Oblique-6b" transform="translate(167.36474 0.765625)"/>
      <use xlink:href="#DejaVuSans-29" transform="translate(225.274896 0.765625)"/>
     </g>
    </g>
   </g>
   <g id="line2d_83">
    <path d="M 565.603227 664.006909 
L 976.647773 664.006909 
L 976.647773 664.006909 
" clip-path="url(#pb17416ced2)" style="fill: none; stroke: #0000ff; stroke-width: 2; stroke-linecap: square"/>
   </g>
   <g id="line2d_84">
    <path d="M 565.603227 397.745091 
L 573.865429 397.745091 
L 575.93098 413.289796 
L 577.99653 442.566683 
L 580.062081 465.103507 
L 582.127631 482.77814 
L 584.193182 496.891126 
L 586.258732 508.375703 
L 588.324283 517.886503 
L 590.389833 525.886808 
L 592.455384 532.708331 
L 594.520934 538.593644 
L 596.586484 543.722456 
L 598.652035 548.232677 
L 600.717585 552.229906 
L 602.783136 555.797195 
L 604.848686 559.000378 
L 606.914237 561.892997 
L 608.979787 564.517745 
L 611.045338 566.910891 
L 613.110888 569.101571 
L 615.176439 571.114426 
L 619.30754 574.687562 
L 623.438641 577.762237 
L 627.569742 580.43631 
L 631.700843 582.783915 
L 635.831944 584.86131 
L 639.963045 586.712453 
L 644.094146 588.372794 
L 650.290797 590.565832 
L 656.487448 592.465553 
L 662.6841 594.126788 
L 668.880751 595.592215 
L 677.142953 597.29724 
L 685.405155 598.771213 
L 695.732907 600.354707 
L 706.06066 601.708556 
L 718.453963 603.094822 
L 732.912816 604.456281 
L 749.43722 605.753968 
L 768.027174 606.963826 
L 788.682679 608.074003 
L 813.469285 609.164033 
L 842.386992 610.191571 
L 875.435799 611.133626 
L 914.681258 612.022903 
L 962.188919 612.86589 
L 976.647773 613.083485 
L 976.647773 613.083485 
" clip-path="url(#pb17416ced2)" style="fill: none; stroke: #ff0000; stroke-width: 2; stroke-linecap: square"/>
   </g>
   <g id="line2d_85">
    <path d="M 565.603227 397.745091 
L 571.799879 397.745091 
L 573.865429 407.411697 
L 575.93098 443.346274 
L 577.99653 469.447609 
L 580.062081 489.015392 
L 582.127631 504.097649 
L 584.193182 516.044206 
L 586.258732 525.731888 
L 588.324283 533.743372 
L 590.389833 540.478917 
L 592.455384 546.221387 
L 594.520934 551.175887 
L 596.586484 555.494401 
L 598.652035 559.292476 
L 600.717585 562.659088 
L 602.783136 565.664268 
L 604.848686 568.363089 
L 606.914237 570.800619 
L 608.979787 573.012747 
L 611.045338 575.02987 
L 613.110888 576.876631 
L 617.241989 580.138651 
L 621.37309 582.929999 
L 625.504191 585.345674 
L 629.635292 587.457533 
L 633.766393 589.318782 
L 637.897494 590.972537 
L 644.094146 593.133673 
L 650.290797 594.985199 
L 656.487448 596.589305 
L 662.6841 597.992283 
L 670.946302 599.610973 
L 679.208504 600.998745 
L 689.536256 602.477345 
L 699.864008 603.731894 
L 712.257311 605.008252 
L 726.716165 606.252968 
L 743.240569 607.43004 
L 761.830523 608.520452 
L 782.486028 609.515757 
L 807.272633 610.488166 
L 836.19034 611.399613 
L 871.304698 612.276592 
L 912.615708 613.083485 
L 964.25447 613.858704 
L 976.647773 614.015449 
L 976.647773 614.015449 
" clip-path="url(#pb17416ced2)" style="fill: none; stroke: #008000; stroke-width: 2; stroke-linecap: square"/>
   </g>
   <g id="patch_21">
    <path d="M 545.051 677.32 
L 545.051 384.432 
" style="fill: none; stroke: #000000; stroke-width: 0.8; stroke-linejoin: miter; stroke-linecap: square"/>
   </g>
   <g id="patch_22">
    <path d="M 997.2 677.32 
L 997.2 384.432 
" style="fill: none; stroke: #000000; stroke-width: 0.8; stroke-linejoin: miter; stroke-linecap: square"/>
   </g>
   <g id="patch_23">
    <path d="M 545.051 677.32 
L 997.2 677.32 
" style="fill: none; stroke: #000000; stroke-width: 0.8; stroke-linejoin: miter; stroke-linecap: square"/>
   </g>
   <g id="patch_24">
    <path d="M 545.051 384.432 
L 997.2 384.432 
" style="fill: none; stroke: #000000; stroke-width: 0.8; stroke-linejoin: miter; stroke-linecap: square"/>
   </g>
   <g id="text_83">
    <!-- $\varsigma^*_0(k)$ for period types with portfolio -->
    <g transform="translate(663.9655 378.432) scale(0.12 -0.12)">
     <use xlink:href="#DejaVuSans-Oblique-3c2" transform="translate(0 0.765625)"/>
     <use xlink:href="#DejaVuSans-2a" transform="translate(76.978997 39.046875) scale(0.7)"/>
     <use xlink:href="#DejaVuSans-30" transform="translate(58.691406 -26.578125) scale(0.7)"/>
     <use xlink:href="#DejaVuSans-28" transform="translate(128.351068 0.765625)"/>
     <use xlink:href="#DejaVuSans-Oblique-6b" transform="translate(167.36474 0.765625)"/>
     <use xlink:href="#DejaVuSans-29" transform="translate(225.274896 0.765625)"/>
     <use xlink:href="#DejaVuSans-20" transform="translate(264.288568 0.765625)"/>
     <use xlink:href="#DejaVuSans-66" transform="translate(296.075677 0.765625)"/>
     <use xlink:href="#DejaVuSans-6f" transform="translate(331.280755 0.765625)"/>
     <use xlink:href="#DejaVuSans-72" transform="translate(392.462396 0.765625)"/>
     <use xlink:href="#DejaVuSans-20" transform="translate(433.575677 0.765625)"/>
     <use xlink:href="#DejaVuSans-70" transform="translate(465.362786 0.765625)"/>
     <use xlink:href="#DejaVuSans-65" transform="translate(528.839349 0.765625)"/>
     <use xlink:href="#DejaVuSans-72" transform="translate(590.362786 0.765625)"/>
     <use xlink:href="#DejaVuSans-69" transform="translate(631.476068 0.765625)"/>
     <use xlink:href="#DejaVuSans-6f" transform="translate(659.259271 0.765625)"/>
     <use xlink:href="#DejaVuSans-64" transform="translate(720.440911 0.765625)"/>
     <use xlink:href="#DejaVuSans-20" transform="translate(783.917474 0.765625)"/>
     <use xlink:href="#DejaVuSans-74" transform="translate(815.704583 0.765625)"/>
     <use xlink:href="#DejaVuSans-79" transform="translate(854.913568 0.765625)"/>
     <use xlink:href="#DejaVuSans-70" transform="translate(914.093255 0.765625)"/>
     <use xlink:href="#DejaVuSans-65" transform="translate(977.569818 0.765625)"/>
     <use xlink:href="#DejaVuSans-73" transform="translate(1039.093255 0.765625)"/>
     <use xlink:href="#DejaVuSans-20" transform="translate(1091.192865 0.765625)"/>
     <use xlink:href="#DejaVuSans-77" transform="translate(1122.979974 0.765625)"/>
     <use xlink:href="#DejaVuSans-69" transform="translate(1204.767083 0.765625)"/>
     <use xlink:href="#DejaVuSans-74" transform="translate(1232.550286 0.765625)"/>
     <use xlink:href="#DejaVuSans-68" transform="translate(1271.759271 0.765625)"/>
     <use xlink:href="#DejaVuSans-20" transform="translate(1335.138177 0.765625)"/>
     <use xlink:href="#DejaVuSans-70" transform="translate(1366.925286 0.765625)"/>
     <use xlink:href="#DejaVuSans-6f" transform="translate(1430.401849 0.765625)"/>
     <use xlink:href="#DejaVuSans-72" transform="translate(1491.58349 0.765625)"/>
     <use xlink:href="#DejaVuSans-74" transform="translate(1532.696771 0.765625)"/>
     <use xlink:href="#DejaVuSans-66" transform="translate(1571.905755 0.765625)"/>
     <use xlink:href="#DejaVuSans-6f" transform="translate(1607.110833 0.765625)"/>
     <use xlink:href="#DejaVuSans-6c" transform="translate(1668.292474 0.765625)"/>
     <use xlink:href="#DejaVuSans-69" transform="translate(1696.075677 0.765625)"/>
     <use xlink:href="#DejaVuSans-6f" transform="translate(1723.85888 0.765625)"/>
    </g>
   </g>
   <g id="legend_4">
    <g id="patch_25">
     <path d="M 918.79875 431.262938 
L 990.9 431.262938 
Q 992.7 431.262938 992.7 429.462938 
L 992.7 390.732 
Q 992.7 388.932 990.9 388.932 
L 918.79875 388.932 
Q 916.99875 388.932 916.99875 390.732 
L 916.99875 429.462938 
Q 916.99875 431.262938 918.79875 431.262938 
z
" style="fill: #ffffff; opacity: 0.8; stroke: #cccccc; stroke-linejoin: miter"/>
    </g>
    <g id="line2d_86">
     <path d="M 920.59875 396.220594 
L 929.59875 396.220594 
L 938.59875 396.220594 
" style="fill: none; stroke: #0000ff; stroke-width: 2; stroke-linecap: square"/>
    </g>
    <g id="text_84">
     <!-- cons-only -->
     <g transform="translate(945.79875 399.370594) scale(0.09 -0.09)">
      <use xlink:href="#DejaVuSans-63"/>
      <use xlink:href="#DejaVuSans-6f" x="54.980469"/>
      <use xlink:href="#DejaVuSans-6e" x="116.162109"/>
      <use xlink:href="#DejaVuSans-73" x="179.541016"/>
      <use xlink:href="#DejaVuSans-2d" x="231.640625"/>
      <use xlink:href="#DejaVuSans-6f" x="269.599609"/>
      <use xlink:href="#DejaVuSans-6e" x="330.78125"/>
      <use xlink:href="#DejaVuSans-6c" x="394.160156"/>
      <use xlink:href="#DejaVuSans-79" x="421.943359"/>
     </g>
    </g>
    <g id="line2d_87">
     <path d="M 920.59875 409.430906 
L 929.59875 409.430906 
L 938.59875 409.430906 
" style="fill: none; stroke: #ff0000; stroke-width: 2; stroke-linecap: square"/>
    </g>
    <g id="text_85">
     <!-- port-cons -->
     <g transform="translate(945.79875 412.580906) scale(0.09 -0.09)">
      <use xlink:href="#DejaVuSans-70"/>
      <use xlink:href="#DejaVuSans-6f" x="63.476562"/>
      <use xlink:href="#DejaVuSans-72" x="124.658203"/>
      <use xlink:href="#DejaVuSans-74" x="165.771484"/>
      <use xlink:href="#DejaVuSans-2d" x="204.980469"/>
      <use xlink:href="#DejaVuSans-63" x="241.064453"/>
      <use xlink:href="#DejaVuSans-6f" x="296.044922"/>
      <use xlink:href="#DejaVuSans-6e" x="357.226562"/>
      <use xlink:href="#DejaVuSans-73" x="420.605469"/>
     </g>
    </g>
    <g id="line2d_88">
     <path d="M 920.59875 422.641219 
L 929.59875 422.641219 
L 938.59875 422.641219 
" style="fill: none; stroke: #008000; stroke-width: 2; stroke-linecap: square"/>
    </g>
    <g id="text_86">
     <!-- cons-port -->
     <g transform="translate(945.79875 425.791219) scale(0.09 -0.09)">
      <use xlink:href="#DejaVuSans-63"/>
      <use xlink:href="#DejaVuSans-6f" x="54.980469"/>
      <use xlink:href="#DejaVuSans-6e" x="116.162109"/>
      <use xlink:href="#DejaVuSans-73" x="179.541016"/>
      <use xlink:href="#DejaVuSans-2d" x="231.640625"/>
      <use xlink:href="#DejaVuSans-70" x="267.724609"/>
      <use xlink:href="#DejaVuSans-6f" x="331.201172"/>
      <use xlink:href="#DejaVuSans-72" x="392.382812"/>
      <use xlink:href="#DejaVuSans-74" x="433.496094"/>
     </g>
    </g>
   </g>
  </g>
 </g>
 <defs>
  <clipPath id="pcc818de939">
   <rect x="39.71" y="29.832" width="452.149" height="292.888"/>
  </clipPath>
  <clipPath id="p93611c8001">
   <rect x="545.051" y="29.832" width="452.149" height="292.888"/>
  </clipPath>
  <clipPath id="pa0dc8c9ed0">
   <rect x="39.71" y="384.432" width="452.149" height="292.888"/>
  </clipPath>
  <clipPath id="pb17416ced2">
   <rect x="545.051" y="384.432" width="452.149" height="292.888"/>
  </clipPath>
 </defs>
</svg>
